OpenSans-ThinItalic.ufo
<glyph name="dollar" format="2">
  <advance width="1126"/>
  <unicode hex="0024"/>
  <outline>
    <contour>
      <point x="391" y="-119" type="line"/>
      <point x="440" y="-119" type="line"/>
      <point x="489" y="102" type="line"/>
      <point x="721" y="113"/>
      <point x="928" y="236"/>
      <point x="928" y="457" type="curve" smooth="yes"/>
      <point x="928" y="631"/>
      <point x="805" y="684"/>
      <point x="629" y="758" type="curve"/>
      <point x="752" y="1331" type="line"/>
      <point x="842" y="1323"/>
      <point x="930" y="1309"/>
      <point x="1028" y="1264" type="curve"/>
      <point x="1051" y="1313" type="line"/>
      <point x="963" y="1354"/>
      <point x="862" y="1374"/>
      <point x="762" y="1382" type="curve"/>
      <point x="797" y="1552" type="line"/>
      <point x="748" y="1552" type="line"/>
      <point x="713" y="1382" type="line"/>
      <point x="483" y="1372"/>
      <point x="279" y="1262"/>
      <point x="279" y="1034" type="curve" smooth="yes"/>
      <point x="279" y="860"/>
      <point x="401" y="788"/>
      <point x="573" y="723" type="curve"/>
      <point x="453" y="154" type="line"/>
      <point x="305" y="156"/>
      <point x="184" y="184"/>
      <point x="104" y="219" type="curve"/>
      <point x="104" y="162" type="line"/>
      <point x="174" y="133"/>
      <point x="299" y="102"/>
      <point x="440" y="102" type="curve"/>
    </contour>
    <contour>
      <point x="502" y="154" type="curve"/>
      <point x="616" y="705" type="line"/>
      <point x="774" y="639"/>
      <point x="874" y="592"/>
      <point x="874" y="453" type="curve" smooth="yes"/>
      <point x="874" y="268"/>
      <point x="698" y="164"/>
    </contour>
    <contour>
      <point x="584" y="774" type="line"/>
      <point x="446" y="834"/>
      <point x="336" y="883"/>
      <point x="336" y="1038" type="curve" smooth="yes"/>
      <point x="336" y="1217"/>
      <point x="498" y="1321"/>
      <point x="702" y="1331" type="curve"/>
    </contour>
  </outline>
</glyph>
<glyph name="parenright" format="2">
  <advance width="496"/>
  <unicode hex="0029"/>
  <outline>
    <contour>
      <point x="-129" y="-324" type="curve"/>
      <point x="-59" y="-324" type="line"/>
      <point x="229" y="-43"/>
      <point x="442" y="399"/>
      <point x="442" y="897" type="curve" smooth="yes"/>
      <point x="442" y="1116"/>
      <point x="395" y="1309"/>
      <point x="309" y="1462" type="curve"/>
      <point x="250" y="1462" type="line"/>
      <point x="342" y="1300"/>
      <point x="389" y="1108"/>
      <point x="389" y="897" type="curve" smooth="yes"/>
      <point x="389" y="442"/>
      <point x="197" y="-10"/>
    </contour>
  </outline>
</glyph>
<glyph name="asterisk" format="2">
  <advance width="1087"/>
  <unicode hex="002A"/>
  <outline>
    <contour>
      <point x="811" y="692" type="line"/>
      <point x="864" y="715" type="line"/>
      <point x="684" y="1094" type="line"/>
      <point x="1094" y="1124" type="line"/>
      <point x="1096" y="1182" type="line"/>
      <point x="678" y="1126" type="line"/>
      <point x="778" y="1538" type="line"/>
      <point x="723" y="1550" type="line"/>
      <point x="645" y="1135" type="line"/>
      <point x="289" y="1356" type="line"/>
      <point x="260" y="1305" type="line"/>
      <point x="627" y="1106" type="line"/>
      <point x="307" y="834" type="line"/>
      <point x="346" y="793" type="line"/>
      <point x="651" y="1081" type="line"/>
    </contour>
  </outline>
</glyph>
<glyph name="hyphen" format="2">
  <advance width="639"/>
  <unicode hex="002D"/>
  <outline>
    <contour>
      <point x="78" y="530" type="line"/>
      <point x="551" y="530" type="line"/>
      <point x="561" y="582" type="line"/>
      <point x="88" y="582" type="line"/>
    </contour>
  </outline>
</glyph>
<glyph name="period" format="2">
  <advance width="430"/>
  <unicode hex="002E"/>
  <outline>
    <contour>
      <point x="113" y="-16" type="curve" smooth="yes"/>
      <point x="152" y="-16"/>
      <point x="172" y="29"/>
      <point x="172" y="66" type="curve" smooth="yes"/>
      <point x="172" y="88"/>
      <point x="160" y="111"/>
      <point x="127" y="111" type="curve" smooth="yes"/>
      <point x="86" y="111"/>
      <point x="66" y="66"/>
      <point x="66" y="29" type="curve" smooth="yes"/>
      <point x="66" y="0"/>
      <point x="84" y="-16"/>
    </contour>
  </outline>
</glyph>
<glyph name="three" format="2">
  <advance width="1126"/>
  <unicode hex="0033"/>
  <outline>
    <contour>
      <point x="430" y="-20" type="curve" smooth="yes"/>
      <point x="754" y="-20"/>
      <point x="965" y="166"/>
      <point x="965" y="428" type="curve" smooth="yes"/>
      <point x="965" y="608"/>
      <point x="864" y="727"/>
      <point x="705" y="758" type="curve"/>
      <point x="705" y="762" type="line"/>
      <point x="897" y="797"/>
      <point x="1075" y="938"/>
      <point x="1075" y="1176" type="curve" smooth="yes"/>
      <point x="1075" y="1356"/>
      <point x="938" y="1483"/>
      <point x="745" y="1483" type="curve" smooth="yes"/>
      <point x="575" y="1483"/>
      <point x="422" y="1423"/>
      <point x="289" y="1331" type="curve"/>
      <point x="315" y="1288" type="line"/>
      <point x="459" y="1382"/>
      <point x="596" y="1432"/>
      <point x="743" y="1432" type="curve" smooth="yes"/>
      <point x="907" y="1432"/>
      <point x="1020" y="1329"/>
      <point x="1020" y="1178" type="curve" smooth="yes"/>
      <point x="1020" y="901"/>
      <point x="762" y="786"/>
      <point x="543" y="786" type="curve" smooth="yes"/>
      <point x="381" y="786" type="line"/>
      <point x="371" y="735" type="line"/>
      <point x="532" y="735" type="line" smooth="yes"/>
      <point x="760" y="735"/>
      <point x="909" y="635"/>
      <point x="909" y="428" type="curve" smooth="yes"/>
      <point x="909" y="197"/>
      <point x="725" y="31"/>
      <point x="432" y="31" type="curve" smooth="yes"/>
      <point x="274" y="31"/>
      <point x="131" y="74"/>
      <point x="45" y="125" type="curve"/>
      <point x="45" y="68" type="line"/>
      <point x="133" y="18"/>
      <point x="264" y="-20"/>
    </contour>
  </outline>
</glyph>
<glyph name="four" format="2">
  <advance width="1126"/>
  <unicode hex="0034"/>
  <outline>
    <contour>
      <point x="676" y="0" type="line"/>
      <point x="729" y="0" type="line"/>
      <point x="813" y="397" type="line"/>
      <point x="1071" y="397" type="line"/>
      <point x="1083" y="449" type="line"/>
      <point x="823" y="449" type="line"/>
      <point x="1040" y="1470" type="line"/>
      <point x="977" y="1470" type="line"/>
      <point x="39" y="434" type="line"/>
      <point x="31" y="397" type="line"/>
      <point x="760" y="397" type="line"/>
    </contour>
    <contour>
      <point x="117" y="449" type="line"/>
      <point x="809" y="1212" type="line" smooth="yes"/>
      <point x="887" y="1296"/>
      <point x="920" y="1335"/>
      <point x="973" y="1405" type="curve"/>
      <point x="977" y="1405" type="line"/>
      <point x="950" y="1296"/>
      <point x="938" y="1241"/>
      <point x="903" y="1073" type="curve" smooth="yes"/>
      <point x="770" y="449" type="line"/>
    </contour>
  </outline>
</glyph>
<glyph name="six" format="2">
  <advance width="1126"/>
  <unicode hex="0036"/>
  <outline>
    <contour>
      <point x="518" y="-20" type="curve" smooth="yes"/>
      <point x="768" y="-20"/>
      <point x="1006" y="213"/>
      <point x="1006" y="547" type="curve" smooth="yes"/>
      <point x="1006" y="756"/>
      <point x="872" y="899"/>
      <point x="664" y="899" type="curve" smooth="yes"/>
      <point x="442" y="899"/>
      <point x="295" y="774"/>
      <point x="219" y="659" type="curve"/>
      <point x="215" y="659" type="line"/>
      <point x="348" y="1237"/>
      <point x="618" y="1436"/>
      <point x="918" y="1436" type="curve" smooth="yes"/>
      <point x="991" y="1436"/>
      <point x="1057" y="1423"/>
      <point x="1100" y="1405" type="curve"/>
      <point x="1112" y="1458" type="line"/>
      <point x="1065" y="1475"/>
      <point x="991" y="1487"/>
      <point x="918" y="1487" type="curve" smooth="yes"/>
      <point x="768" y="1487"/>
      <point x="604" y="1436"/>
      <point x="477" y="1309" type="curve" smooth="yes"/>
      <point x="274" y="1106"/>
      <point x="139" y="713"/>
      <point x="139" y="428" type="curve" smooth="yes"/>
      <point x="139" y="186"/>
      <point x="242" y="-20"/>
    </contour>
    <contour>
      <point x="516" y="31" type="curve" smooth="yes"/>
      <point x="256" y="31"/>
      <point x="195" y="236"/>
      <point x="195" y="403" type="curve" smooth="yes"/>
      <point x="195" y="449"/>
      <point x="201" y="494"/>
      <point x="207" y="528" type="curve" smooth="yes"/>
      <point x="236" y="670"/>
      <point x="418" y="848"/>
      <point x="657" y="848" type="curve" smooth="yes"/>
      <point x="836" y="848"/>
      <point x="950" y="739"/>
      <point x="950" y="547" type="curve" smooth="yes"/>
      <point x="950" y="293"/>
      <point x="776" y="31"/>
    </contour>
  </outline>
</glyph>
<glyph name="seven" format="2">
  <advance width="1126"/>
  <unicode hex="0037"/>
  <outline>
    <contour>
      <point x="233" y="0" type="line"/>
      <point x="299" y="0" type="line"/>
      <point x="1145" y="1427" type="line"/>
      <point x="1151" y="1462" type="line"/>
      <point x="272" y="1462" type="line"/>
      <point x="262" y="1411" type="line"/>
      <point x="1073" y="1411" type="line"/>
    </contour>
  </outline>
</glyph>
<glyph name="nine" format="2">
  <advance width="1126"/>
  <unicode hex="0039"/>
  <outline>
    <contour>
      <point x="338" y="-20" type="curve" smooth="yes"/>
      <point x="463" y="-20"/>
      <point x="596" y="27"/>
      <point x="713" y="133" type="curve" smooth="yes"/>
      <point x="922" y="324"/>
      <point x="1071" y="743"/>
      <point x="1071" y="1038" type="curve" smooth="yes"/>
      <point x="1071" y="1288"/>
      <point x="958" y="1483"/>
      <point x="700" y="1483" type="curve" smooth="yes"/>
      <point x="428" y="1483"/>
      <point x="205" y="1237"/>
      <point x="205" y="907" type="curve" smooth="yes"/>
      <point x="205" y="711"/>
      <point x="336" y="563"/>
      <point x="551" y="563" type="curve" smooth="yes"/>
      <point x="768" y="563"/>
      <point x="915" y="682"/>
      <point x="987" y="793" type="curve"/>
      <point x="991" y="793" type="line"/>
      <point x="854" y="236"/>
      <point x="592" y="31"/>
      <point x="338" y="31" type="curve" smooth="yes"/>
      <point x="244" y="31"/>
      <point x="150" y="49"/>
      <point x="96" y="70" type="curve"/>
      <point x="96" y="12" type="line"/>
      <point x="156" y="-6"/>
      <point x="244" y="-20"/>
    </contour>
    <contour>
      <point x="553" y="614" type="curve" smooth="yes"/>
      <point x="375" y="614"/>
      <point x="260" y="727"/>
      <point x="260" y="907" type="curve" smooth="yes"/>
      <point x="260" y="1174"/>
      <point x="428" y="1432"/>
      <point x="700" y="1432" type="curve" smooth="yes"/>
      <point x="940" y="1432"/>
      <point x="1016" y="1243"/>
      <point x="1016" y="1049" type="curve" smooth="yes"/>
      <point x="1016" y="1004"/>
      <point x="1014" y="973"/>
      <point x="1006" y="938" type="curve" smooth="yes"/>
      <point x="971" y="784"/>
      <point x="793" y="614"/>
    </contour>
  </outline>
</glyph>
<glyph name="at" format="2">
  <advance width="1708"/>
  <unicode hex="0040"/>
  <outline>
    <contour>
      <point x="768" y="-184" type="curve" smooth="yes"/>
      <point x="918" y="-184"/>
      <point x="1049" y="-160"/>
      <point x="1171" y="-115" type="curve"/>
      <point x="1171" y="-63" type="line"/>
      <point x="1036" y="-115"/>
      <point x="899" y="-133"/>
      <point x="768" y="-133" type="curve" smooth="yes"/>
      <point x="455" y="-133"/>
      <point x="170" y="66"/>
      <point x="170" y="498" type="curve" smooth="yes"/>
      <point x="170" y="969"/>
      <point x="487" y="1395"/>
      <point x="1059" y="1395" type="curve" smooth="yes"/>
      <point x="1403" y="1395"/>
      <point x="1597" y="1176"/>
      <point x="1597" y="846" type="curve" smooth="yes"/>
      <point x="1597" y="522"/>
      <point x="1423" y="270"/>
      <point x="1239" y="270" type="curve" smooth="yes"/>
      <point x="1145" y="270"/>
      <point x="1116" y="340"/>
      <point x="1116" y="430" type="curve" smooth="yes"/>
      <point x="1116" y="487"/>
      <point x="1139" y="571"/>
      <point x="1174" y="698" type="curve" smooth="yes"/>
      <point x="1251" y="989" type="line"/>
      <point x="1186" y="1016"/>
      <point x="1098" y="1036"/>
      <point x="1006" y="1036" type="curve" smooth="yes"/>
      <point x="733" y="1036"/>
      <point x="502" y="795"/>
      <point x="502" y="473" type="curve" smooth="yes"/>
      <point x="502" y="309"/>
      <point x="600" y="219"/>
      <point x="735" y="219" type="curve" smooth="yes"/>
      <point x="877" y="219"/>
      <point x="989" y="295"/>
      <point x="1063" y="428" type="curve"/>
      <point x="1067" y="428" type="line"/>
      <point x="1067" y="287"/>
      <point x="1120" y="219"/>
      <point x="1237" y="219" type="curve" smooth="yes"/>
      <point x="1473" y="219"/>
      <point x="1653" y="504"/>
      <point x="1653" y="846" type="curve" smooth="yes"/>
      <point x="1653" y="1212"/>
      <point x="1425" y="1446"/>
      <point x="1063" y="1446" type="curve" smooth="yes"/>
      <point x="436" y="1446"/>
      <point x="113" y="969"/>
      <point x="113" y="496" type="curve" smooth="yes"/>
      <point x="113" y="35"/>
      <point x="426" y="-184"/>
    </contour>
    <contour>
      <point x="739" y="270" type="curve" smooth="yes"/>
      <point x="631" y="270"/>
      <point x="557" y="342"/>
      <point x="557" y="475" type="curve" smooth="yes"/>
      <point x="557" y="780"/>
      <point x="766" y="985"/>
      <point x="999" y="985" type="curve" smooth="yes"/>
      <point x="1077" y="985"/>
      <point x="1137" y="971"/>
      <point x="1190" y="952" type="curve"/>
      <point x="1110" y="655" type="line" smooth="yes"/>
      <point x="1042" y="408"/>
      <point x="913" y="270"/>
    </contour>
  </outline>
</glyph>
<glyph name="C" format="2">
  <advance width="1217"/>
  <unicode hex="0043"/>
  <anchor x="494" y="0" name="bottom"/>
  <anchor x="805" y="1462" name="top"/>
  <anchor x="1372" y="1462" name="topright"/>
  <outline>
    <contour>
      <point x="668" y="-20" type="curve" smooth="yes"/>
      <point x="811" y="-20"/>
      <point x="932" y="8"/>
      <point x="1024" y="43" type="curve"/>
      <point x="1024" y="90" type="line"/>
      <point x="926" y="57"/>
      <point x="809" y="31"/>
      <point x="670" y="31" type="curve" smooth="yes"/>
      <point x="393" y="31"/>
      <point x="225" y="229"/>
      <point x="225" y="553" type="curve" smooth="yes"/>
      <point x="225" y="1077"/>
      <point x="547" y="1432"/>
      <point x="965" y="1432" type="curve" smooth="yes"/>
      <point x="1071" y="1432"/>
      <point x="1176" y="1413"/>
      <point x="1272" y="1356" type="curve"/>
      <point x="1296" y="1407" type="line"/>
      <point x="1200" y="1458"/>
      <point x="1092" y="1483"/>
      <point x="965" y="1483" type="curve" smooth="yes"/>
      <point x="520" y="1483"/>
      <point x="172" y="1108"/>
      <point x="172" y="549" type="curve" smooth="yes"/>
      <point x="172" y="205"/>
      <point x="354" y="-20"/>
    </contour>
  </outline>
</glyph>
<glyph name="H" format="2">
  <advance width="1395"/>
  <unicode hex="0048"/>
  <anchor x="584" y="0" name="bottom"/>
  <anchor x="739" y="731" name="center"/>
  <anchor x="895" y="1462" name="top"/>
  <anchor x="1550" y="1462" name="topright"/>
  <outline>
    <contour>
      <point x="102" y="0" type="line"/>
      <point x="158" y="0" type="line"/>
      <point x="315" y="743" type="line"/>
      <point x="1178" y="743" type="line"/>
      <point x="1020" y="0" type="line"/>
      <point x="1075" y="0" type="line"/>
      <point x="1384" y="1462" type="line"/>
      <point x="1329" y="1462" type="line"/>
      <point x="1188" y="795" type="line"/>
      <point x="326" y="795" type="line"/>
      <point x="467" y="1462" type="line"/>
      <point x="412" y="1462" type="line"/>
    </contour>
  </outline>
</glyph>
<glyph name="K" format="2">
  <advance width="1112"/>
  <unicode hex="004B"/>
  <anchor x="442" y="0" name="bottom"/>
  <anchor x="754" y="1462" name="top"/>
  <anchor x="1268" y="1462" name="topright"/>
  <outline>
    <contour>
      <point x="102" y="0" type="line"/>
      <point x="158" y="0" type="line"/>
      <point x="283" y="596" type="line"/>
      <point x="537" y="811" type="line"/>
      <point x="930" y="0" type="line"/>
      <point x="991" y="0" type="line"/>
      <point x="580" y="848" type="line"/>
      <point x="1288" y="1462" type="line"/>
      <point x="1212" y="1462" type="line"/>
      <point x="414" y="770" type="line"/>
      <point x="297" y="664" type="line"/>
      <point x="467" y="1462" type="line"/>
      <point x="412" y="1462" type="line"/>
    </contour>
  </outline>
</glyph>
<glyph name="M" format="2">
  <advance width="1651"/>
  <unicode hex="004D"/>
  <anchor x="711" y="0" name="bottom"/>
  <anchor x="1022" y="1462" name="top"/>
  <anchor x="1806" y="1462" name="topright"/>
  <outline>
    <contour>
      <point x="102" y="0" type="line"/>
      <point x="158" y="0" type="line"/>
      <point x="416" y="1223" type="line" smooth="yes"/>
      <point x="428" y="1284"/>
      <point x="434" y="1323"/>
      <point x="446" y="1391" type="curve"/>
      <point x="451" y="1391" type="line"/>
      <point x="696" y="0" type="line"/>
      <point x="737" y="0" type="line"/>
      <point x="1571" y="1389" type="line"/>
      <point x="1575" y="1389" type="line"/>
      <point x="1559" y="1321"/>
      <point x="1546" y="1274"/>
      <point x="1538" y="1233" type="curve" smooth="yes"/>
      <point x="1278" y="0" type="line"/>
      <point x="1331" y="0" type="line"/>
      <point x="1640" y="1462" type="line"/>
      <point x="1554" y="1462" type="line"/>
      <point x="737" y="96" type="line"/>
      <point x="731" y="96" type="line"/>
      <point x="489" y="1462" type="line"/>
      <point x="412" y="1462" type="line"/>
    </contour>
  </outline>
</glyph>
<glyph name="P" format="2">
  <advance width="1143"/>
  <unicode hex="0050"/>
  <anchor x="457" y="0" name="bottom"/>
  <anchor x="768" y="1462" name="top"/>
  <anchor x="1298" y="1462" name="topright"/>
  <outline>
    <contour>
      <point x="102" y="0" type="line"/>
      <point x="158" y="0" type="line"/>
      <point x="289" y="625" type="line"/>
      <point x="578" y="625" type="line" smooth="yes"/>
      <point x="967" y="625"/>
      <point x="1143" y="823"/>
      <point x="1143" y="1102" type="curve" smooth="yes"/>
      <point x="1143" y="1339"/>
      <point x="997" y="1462"/>
      <point x="729" y="1462" type="curve" smooth="yes"/>
      <point x="412" y="1462" type="line"/>
    </contour>
    <contour>
      <point x="301" y="676" type="line"/>
      <point x="457" y="1411" type="line"/>
      <point x="719" y="1411" type="line" smooth="yes"/>
      <point x="954" y="1411"/>
      <point x="1087" y="1317"/>
      <point x="1087" y="1100" type="curve" smooth="yes"/>
      <point x="1087" y="850"/>
      <point x="940" y="676"/>
      <point x="586" y="676" type="curve" smooth="yes"/>
    </contour>
  </outline>
</glyph>
<glyph name="S" format="2">
  <advance width="1020"/>
  <unicode hex="0053"/>
  <anchor x="395" y="0" name="bottom"/>
  <anchor x="707" y="1462" name="top"/>
  <anchor x="1176" y="1462" name="topright"/>
  <outline>
    <contour>
      <point x="406" y="-20" type="curve" smooth="yes"/>
      <point x="616" y="-20"/>
      <point x="889" y="84"/>
      <point x="889" y="377" type="curve" smooth="yes"/>
      <point x="889" y="594"/>
      <point x="739" y="682"/>
      <point x="551" y="780" type="curve" smooth="yes"/>
      <point x="424" y="846"/>
      <point x="295" y="918"/>
      <point x="295" y="1090" type="curve" smooth="yes"/>
      <point x="295" y="1356"/>
      <point x="543" y="1432"/>
      <point x="702" y="1432" type="curve" smooth="yes"/>
      <point x="829" y="1432"/>
      <point x="909" y="1411"/>
      <point x="1020" y="1356" type="curve"/>
      <point x="1042" y="1407" type="line"/>
      <point x="944" y="1454"/>
      <point x="852" y="1483"/>
      <point x="705" y="1483" type="curve" smooth="yes"/>
      <point x="485" y="1483"/>
      <point x="240" y="1376"/>
      <point x="240" y="1087" type="curve" smooth="yes"/>
      <point x="240" y="903"/>
      <point x="379" y="805"/>
      <point x="516" y="737" type="curve" smooth="yes"/>
      <point x="702" y="645"/>
      <point x="834" y="565"/>
      <point x="834" y="377" type="curve" smooth="yes"/>
      <point x="834" y="123"/>
      <point x="588" y="31"/>
      <point x="406" y="31" type="curve" smooth="yes"/>
      <point x="252" y="31"/>
      <point x="135" y="61"/>
      <point x="39" y="109" type="curve"/>
      <point x="39" y="49" type="line"/>
      <point x="127" y="12"/>
      <point x="229" y="-20"/>
    </contour>
  </outline>
</glyph>
<glyph name="V" format="2">
  <advance width="1096"/>
  <unicode hex="0056"/>
  <anchor x="434" y="0" name="bottom"/>
  <anchor x="745" y="1462" name="top"/>
  <anchor x="1251" y="1462" name="topright"/>
  <outline>
    <contour>
      <point x="401" y="0" type="line"/>
      <point x="449" y="0" type="line"/>
      <point x="1249" y="1462" type="line"/>
      <point x="1190" y="1462" type="line"/>
      <point x="557" y="295" type="line" smooth="yes"/>
      <point x="506" y="203"/>
      <point x="471" y="137"/>
      <point x="440" y="76" type="curve"/>
      <point x="436" y="76" type="line"/>
      <point x="432" y="141"/>
      <point x="424" y="225"/>
      <point x="414" y="299" type="curve" smooth="yes"/>
      <point x="268" y="1462" type="line"/>
      <point x="217" y="1462" type="line"/>
    </contour>
  </outline>
</glyph>
<glyph name="X" format="2">
  <advance width="1001"/>
  <unicode hex="0058"/>
  <anchor x="387" y="0" name="bottom"/>
  <anchor x="698" y="1462" name="top"/>
  <anchor x="1157" y="1462" name="topright"/>
  <outline>
    <contour>
      <point x="-121" y="0" type="line"/>
      <point x="-55" y="0" type="line"/>
      <point x="537" y="717" type="line"/>
      <point x="825" y="0" type="line"/>
      <point x="881" y="0" type="line"/>
      <point x="575" y="756" type="line"/>
      <point x="1155" y="1462" type="line"/>
      <point x="1092" y="1462" type="line"/>
      <point x="551" y="799" type="line"/>
      <point x="293" y="1462" type="line"/>
      <point x="238" y="1462" type="line"/>
      <point x="514" y="762" type="line"/>
    </contour>
  </outline>
</glyph>
<glyph name="Y" format="2">
  <advance width="993"/>
  <unicode hex="0059"/>
  <anchor x="383" y="0" name="bottom"/>
  <anchor x="694" y="1462" name="top"/>
  <anchor x="1149" y="1462" name="topright"/>
  <outline>
    <contour>
      <point x="356" y="0" type="line"/>
      <point x="412" y="0" type="line"/>
      <point x="530" y="563" type="line"/>
      <point x="1184" y="1462" type="line"/>
      <point x="1120" y="1462" type="line"/>
      <point x="510" y="616" type="line"/>
      <point x="252" y="1462" type="line"/>
      <point x="197" y="1462" type="line"/>
      <point x="473" y="555" type="line"/>
    </contour>
  </outline>
</glyph>
<glyph name="Z" format="2">
  <advance width="1102"/>
  <unicode hex="005A"/>
  <anchor x="436" y="0" name="bottom"/>
  <anchor x="748" y="1462" name="top"/>
  <anchor x="1257" y="1462" name="topright"/>
  <outline>
    <contour>
      <point x="-16" y="0" type="line"/>
      <point x="883" y="0" type="line"/>
      <point x="893" y="51" type="line"/>
      <point x="70" y="51" type="line"/>
      <point x="1161" y="1425" type="line"/>
      <point x="1169" y="1462" type="line"/>
      <point x="328" y="1462" type="line"/>
      <point x="317" y="1411" type="line"/>
      <point x="1083" y="1411" type="line"/>
      <point x="-10" y="37" type="line"/>
    </contour>
  </outline>
</glyph>
<glyph name="backslash" format="2">
  <advance width="627"/>
  <unicode hex="005C"/>
  <outline>
    <contour>
      <point x="467" y="0" type="line"/>
      <point x="514" y="0" type="line"/>
      <point x="250" y="1462" type="line"/>
      <point x="201" y="1462" type="line"/>
    </contour>
  </outline>
</glyph>
<glyph name="asciicircum" format="2">
  <advance width="1126"/>
  <unicode hex="005E"/>
  <outline>
    <contour>
      <point x="102" y="569" type="line"/>
      <point x="168" y="569" type="line"/>
      <point x="756" y="1405" type="line"/>
      <point x="981" y="569" type="line"/>
      <point x="1032" y="569" type="line"/>
      <point x="791" y="1473" type="line"/>
      <point x="741" y="1473" type="line"/>
    </contour>
  </outline>
</glyph>
<glyph name="underscore" format="2">
  <advance width="760"/>
  <unicode hex="005F"/>
  <outline>
    <contour>
      <point x="-174" y="-274" type="line"/>
      <point x="586" y="-274" type="line"/>
      <point x="598" y="-223" type="line"/>
      <point x="-162" y="-223" type="line"/>
    </contour>
  </outline>
</glyph>
<glyph name="a" format="2">
  <advance width="1120"/>
  <unicode hex="0061"/>
  <anchor x="446" y="0" name="bottom"/>
  <anchor x="676" y="1081" name="top"/>
  <anchor x="1194" y="1081" name="topright"/>
  <outline>
    <contour>
      <point x="403" y="-20" type="curve" smooth="yes"/>
      <point x="596" y="-20"/>
      <point x="756" y="160"/>
      <point x="825" y="285" type="curve"/>
      <point x="829" y="285" type="line"/>
      <point x="772" y="0" type="line"/>
      <point x="817" y="0" type="line"/>
      <point x="1047" y="1081" type="line"/>
      <point x="1001" y="1081" type="line"/>
      <point x="946" y="834" type="line"/>
      <point x="942" y="834" type="line"/>
      <point x="922" y="952"/>
      <point x="846" y="1102"/>
      <point x="653" y="1102" type="curve" smooth="yes"/>
      <point x="291" y="1102"/>
      <point x="104" y="698"/>
      <point x="104" y="365" type="curve" smooth="yes"/>
      <point x="104" y="133"/>
      <point x="207" y="-20"/>
    </contour>
    <contour>
      <point x="410" y="31" type="curve" smooth="yes"/>
      <point x="242" y="31"/>
      <point x="160" y="160"/>
      <point x="160" y="365" type="curve" smooth="yes"/>
      <point x="160" y="688"/>
      <point x="332" y="1051"/>
      <point x="651" y="1051" type="curve" smooth="yes"/>
      <point x="809" y="1051"/>
      <point x="905" y="936"/>
      <point x="905" y="733" type="curve" smooth="yes"/>
      <point x="905" y="682"/>
      <point x="897" y="625"/>
      <point x="881" y="541" type="curve" smooth="yes"/>
      <point x="823" y="252"/>
      <point x="596" y="31"/>
    </contour>
  </outline>
</glyph>
<glyph name="c" format="2">
  <advance width="926"/>
  <unicode hex="0063"/>
  <anchor x="348" y="0" name="bottom"/>
  <anchor x="578" y="1081" name="top"/>
  <anchor x="999" y="1081" name="topright"/>
  <outline>
    <contour>
      <point x="506" y="-20" type="curve" smooth="yes"/>
      <point x="618" y="-20"/>
      <point x="702" y="6"/>
      <point x="768" y="39" type="curve"/>
      <point x="768" y="92" type="line"/>
      <point x="684" y="53"/>
      <point x="606" y="31"/>
      <point x="508" y="31" type="curve" smooth="yes"/>
      <point x="283" y="31"/>
      <point x="168" y="197"/>
      <point x="168" y="401" type="curve" smooth="yes"/>
      <point x="168" y="760"/>
      <point x="367" y="1051"/>
      <point x="686" y="1051" type="curve" smooth="yes"/>
      <point x="760" y="1051"/>
      <point x="854" y="1036"/>
      <point x="922" y="1001" type="curve"/>
      <point x="938" y="1053" type="line"/>
      <point x="872" y="1085"/>
      <point x="778" y="1102"/>
      <point x="686" y="1102" type="curve" smooth="yes"/>
      <point x="319" y="1102"/>
      <point x="113" y="772"/>
      <point x="113" y="397" type="curve" smooth="yes"/>
      <point x="113" y="160"/>
      <point x="252" y="-20"/>
    </contour>
  </outline>
</glyph>
<glyph name="f" format="2">
  <advance width="541"/>
  <unicode hex="0066"/>
  <anchor x="-145" y="-492" name="bottom"/>
  <anchor x="690" y="1567" name="top"/>
  <anchor x="840" y="1567" name="topright"/>
  <outline>
    <contour>
      <point x="-145" y="-492" type="curve" smooth="yes"/>
      <point x="-29" y="-492"/>
      <point x="51" y="-420"/>
      <point x="88" y="-246" type="curve" smooth="yes"/>
      <point x="360" y="1030" type="line"/>
      <point x="606" y="1030" type="line"/>
      <point x="616" y="1081" type="line"/>
      <point x="371" y="1081" type="line"/>
      <point x="403" y="1239" type="line" smooth="yes"/>
      <point x="442" y="1430"/>
      <point x="522" y="1516"/>
      <point x="688" y="1516" type="curve" smooth="yes"/>
      <point x="737" y="1516"/>
      <point x="786" y="1507"/>
      <point x="829" y="1489" type="curve"/>
      <point x="846" y="1540" type="line"/>
      <point x="807" y="1554"/>
      <point x="754" y="1567"/>
      <point x="690" y="1567" type="curve" smooth="yes"/>
      <point x="489" y="1567"/>
      <point x="395" y="1448"/>
      <point x="352" y="1247" type="curve" smooth="yes"/>
      <point x="317" y="1081" type="line"/>
      <point x="123" y="1075" type="line"/>
      <point x="115" y="1030" type="line"/>
      <point x="305" y="1030" type="line"/>
      <point x="37" y="-238" type="line" smooth="yes"/>
      <point x="8" y="-369"/>
      <point x="-51" y="-440"/>
      <point x="-145" y="-440" type="curve" smooth="yes"/>
      <point x="-182" y="-440"/>
      <point x="-231" y="-432"/>
      <point x="-270" y="-418" type="curve"/>
      <point x="-270" y="-471" type="line"/>
      <point x="-244" y="-481"/>
      <point x="-182" y="-492"/>
    </contour>
  </outline>
</glyph>
<glyph name="g" format="2">
  <advance width="1040"/>
  <unicode hex="0067"/>
  <note>
g
</note>
  <anchor x="365" y="-492" name="bottom"/>
  <anchor x="605" y="1081" name="top"/>
  <anchor x="1113" y="1081" name="topright"/>
  <outline>
    <contour>
      <point x="317" y="-492" type="curve" smooth="yes"/>
      <point x="437" y="-492"/>
      <point x="565" y="-468"/>
      <point x="665" y="-414" type="curve" smooth="yes"/>
      <point x="773" y="-356"/>
      <point x="849" y="-263"/>
      <point x="849" y="-125" type="curve" smooth="yes"/>
      <point x="849" y="18"/>
      <point x="725" y="110"/>
      <point x="502" y="126" type="curve"/>
      <point x="378" y="135" type="line"/>
      <point x="319" y="139"/>
      <point x="279" y="154"/>
      <point x="254" y="176" type="curve" smooth="yes"/>
      <point x="231" y="196"/>
      <point x="221" y="222"/>
      <point x="221" y="251" type="curve" smooth="yes"/>
      <point x="221" y="301"/>
      <point x="266" y="379"/>
      <point x="396" y="416" type="curve"/>
      <point x="422" y="410"/>
      <point x="450" y="406"/>
      <point x="480" y="406" type="curve" smooth="yes"/>
      <point x="611" y="406"/>
      <point x="710" y="445"/>
      <point x="778" y="511" type="curve" smooth="yes"/>
      <point x="849" y="580"/>
      <point x="886" y="678"/>
      <point x="890" y="793" type="curve" smooth="yes"/>
      <point x="894" y="886"/>
      <point x="866" y="966"/>
      <point x="814" y="1021" type="curve"/>
      <point x="1080" y="1022" type="line"/>
      <point x="1091" y="1080" type="line"/>
      <point x="727" y="1080" type="line"/>
      <point x="692" y="1094"/>
      <point x="652" y="1102"/>
      <point x="608" y="1102" type="curve" smooth="yes"/>
      <point x="500" y="1102"/>
      <point x="408" y="1071"/>
      <point x="339" y="1017" type="curve" smooth="yes"/>
      <point x="254" y="950"/>
      <point x="203" y="848"/>
      <point x="199" y="722" type="curve" smooth="yes"/>
      <point x="195" y="609"/>
      <point x="238" y="496"/>
      <point x="336" y="441" type="curve"/>
      <point x="221" y="393"/>
      <point x="166" y="325"/>
      <point x="166" y="252" type="curve" smooth="yes"/>
      <point x="166" y="200"/>
      <point x="189" y="153"/>
      <point x="236" y="126" type="curve"/>
      <point x="43" y="64"/>
      <point x="-68" y="-53"/>
      <point x="-68" y="-221" type="curve" smooth="yes"/>
      <point x="-68" y="-393"/>
      <point x="77" y="-492"/>
    </contour>
    <contour>
      <point x="329" y="-441" type="curve" smooth="yes"/>
      <point x="125" y="-441"/>
      <point x="-12" y="-374"/>
      <point x="-12" y="-216" type="curve" smooth="yes"/>
      <point x="-12" y="-75"/>
      <point x="82" y="39"/>
      <point x="302" y="99" type="curve"/>
      <point x="473" y="85" type="line"/>
      <point x="597" y="75"/>
      <point x="690" y="50"/>
      <point x="743" y="-3" type="curve" smooth="yes"/>
      <point x="776" y="-36"/>
      <point x="793" y="-79"/>
      <point x="793" y="-136" type="curve" smooth="yes"/>
      <point x="793" y="-234"/>
      <point x="739" y="-317"/>
      <point x="641" y="-372" type="curve" smooth="yes"/>
      <point x="563" y="-416"/>
      <point x="458" y="-441"/>
    </contour>
    <contour>
      <point x="496" y="457" type="curve" smooth="yes"/>
      <point x="403" y="457"/>
      <point x="332" y="490"/>
      <point x="291" y="554" type="curve" smooth="yes"/>
      <point x="265" y="596"/>
      <point x="253" y="652"/>
      <point x="254" y="720" type="curve" smooth="yes"/>
      <point x="258" y="917"/>
      <point x="388" y="1051"/>
      <point x="594" y="1051" type="curve" smooth="yes"/>
      <point x="669" y="1051"/>
      <point x="730" y="1026"/>
      <point x="772" y="982" type="curve" smooth="yes"/>
      <point x="816" y="937"/>
      <point x="839" y="870"/>
      <point x="836" y="788" type="curve" smooth="yes"/>
      <point x="829" y="590"/>
      <point x="702" y="457"/>
    </contour>
  </outline>
</glyph>
<glyph name="h" format="2">
  <advance width="1133"/>
  <unicode hex="0068"/>
  <anchor x="453" y="0" name="bottom"/>
  <anchor x="567" y="541" name="center"/>
  <anchor x="782" y="1556" name="top"/>
  <anchor x="1225" y="1556" name="topright"/>
  <outline>
    <contour>
      <point x="66" y="0" type="line"/>
      <point x="119" y="0" type="line"/>
      <point x="238" y="561" type="line" smooth="yes"/>
      <point x="291" y="815"/>
      <point x="498" y="1051"/>
      <point x="725" y="1051" type="curve" smooth="yes"/>
      <point x="870" y="1051"/>
      <point x="956" y="981"/>
      <point x="956" y="827" type="curve" smooth="yes"/>
      <point x="956" y="793"/>
      <point x="952" y="752"/>
      <point x="942" y="707" type="curve" smooth="yes"/>
      <point x="793" y="0" type="line"/>
      <point x="846" y="0" type="line"/>
      <point x="993" y="700" type="line" smooth="yes"/>
      <point x="1004" y="748"/>
      <point x="1010" y="797"/>
      <point x="1010" y="836" type="curve" smooth="yes"/>
      <point x="1010" y="1010"/>
      <point x="911" y="1102"/>
      <point x="733" y="1102" type="curve" smooth="yes"/>
      <point x="514" y="1102"/>
      <point x="356" y="928"/>
      <point x="285" y="797" type="curve"/>
      <point x="281" y="797" type="line"/>
      <point x="307" y="903"/>
      <point x="336" y="1026"/>
      <point x="360" y="1141" type="curve" smooth="yes"/>
      <point x="449" y="1556" type="line"/>
      <point x="395" y="1556" type="line"/>
    </contour>
  </outline>
</glyph>
<glyph name="i" format="2">
  <advance width="424"/>
  <unicode hex="0069"/>
  <anchor x="98" y="0" name="bottom"/>
  <anchor x="412" y="1477" name="top"/>
  <anchor x="582" y="1477" name="topright"/>
  <outline>
    <contour>
      <point x="66" y="0" type="line"/>
      <point x="119" y="0" type="line"/>
      <point x="348" y="1081" type="line"/>
      <point x="295" y="1081" type="line"/>
    </contour>
    <contour>
      <point x="387" y="1350" type="curve" smooth="yes"/>
      <point x="426" y="1350"/>
      <point x="446" y="1395"/>
      <point x="446" y="1432" type="curve" smooth="yes"/>
      <point x="446" y="1454"/>
      <point x="434" y="1477"/>
      <point x="401" y="1477" type="curve" smooth="yes"/>
      <point x="360" y="1477"/>
      <point x="340" y="1432"/>
      <point x="340" y="1395" type="curve" smooth="yes"/>
      <point x="340" y="1366"/>
      <point x="358" y="1350"/>
    </contour>
  </outline>
</glyph>
<glyph name="j" format="2">
  <advance width="424"/>
  <unicode hex="006A"/>
  <anchor x="-190" y="-492" name="bottom"/>
  <anchor x="412" y="1477" name="top"/>
  <anchor x="582" y="1477" name="topright"/>
  <outline>
    <contour>
      <point x="-176" y="-492" type="curve" smooth="yes"/>
      <point x="-43" y="-492"/>
      <point x="33" y="-412"/>
      <point x="68" y="-244" type="curve" smooth="yes"/>
      <point x="348" y="1081" type="line"/>
      <point x="295" y="1081" type="line"/>
      <point x="16" y="-236" type="line" smooth="yes"/>
      <point x="-10" y="-365"/>
      <point x="-63" y="-440"/>
      <point x="-176" y="-440" type="curve" smooth="yes"/>
      <point x="-209" y="-440"/>
      <point x="-258" y="-434"/>
      <point x="-291" y="-418" type="curve"/>
      <point x="-291" y="-471" type="line"/>
      <point x="-264" y="-481"/>
      <point x="-213" y="-492"/>
    </contour>
    <contour>
      <point x="387" y="1350" type="curve" smooth="yes"/>
      <point x="426" y="1350"/>
      <point x="446" y="1395"/>
      <point x="446" y="1432" type="curve" smooth="yes"/>
      <point x="446" y="1454"/>
      <point x="434" y="1477"/>
      <point x="401" y="1477" type="curve" smooth="yes"/>
      <point x="360" y="1477"/>
      <point x="340" y="1432"/>
      <point x="340" y="1395" type="curve" smooth="yes"/>
      <point x="340" y="1366"/>
      <point x="358" y="1350"/>
    </contour>
  </outline>
</glyph>
<glyph name="k" format="2">
  <advance width="899"/>
  <unicode hex="006B"/>
  <anchor x="336" y="0" name="bottom"/>
  <anchor x="666" y="1556" name="top"/>
  <anchor x="1073" y="1556" name="topright"/>
  <outline>
    <contour>
      <point x="66" y="0" type="line"/>
      <point x="119" y="0" type="line"/>
      <point x="193" y="352" type="line"/>
      <point x="436" y="575" type="line"/>
      <point x="727" y="0" type="line"/>
      <point x="786" y="0" type="line"/>
      <point x="475" y="610" type="line"/>
      <point x="977" y="1081" type="line"/>
      <point x="909" y="1081" type="line"/>
      <point x="203" y="418" type="line"/>
      <point x="201" y="418" type="line"/>
      <point x="233" y="547"/>
      <point x="256" y="651"/>
      <point x="285" y="786" type="curve" smooth="yes"/>
      <point x="449" y="1556" type="line"/>
      <point x="395" y="1556" type="line"/>
    </contour>
  </outline>
</glyph>
<glyph name="m" format="2">
  <advance width="1724"/>
  <unicode hex="006D"/>
  <anchor x="748" y="0" name="bottom"/>
  <anchor x="977" y="1081" name="top"/>
  <anchor x="1798" y="1081" name="topright"/>
  <outline>
    <contour>
      <point x="66" y="0" type="line"/>
      <point x="119" y="0" type="line"/>
      <point x="238" y="561" type="line" smooth="yes"/>
      <point x="289" y="805"/>
      <point x="473" y="1051"/>
      <point x="678" y="1051" type="curve" smooth="yes"/>
      <point x="809" y="1051"/>
      <point x="885" y="971"/>
      <point x="885" y="834" type="curve" smooth="yes"/>
      <point x="885" y="797"/>
      <point x="881" y="733"/>
      <point x="868" y="676" type="curve" smooth="yes"/>
      <point x="723" y="0" type="line"/>
      <point x="776" y="0" type="line"/>
      <point x="895" y="563" type="line" smooth="yes"/>
      <point x="946" y="807"/>
      <point x="1130" y="1051"/>
      <point x="1337" y="1051" type="curve" smooth="yes"/>
      <point x="1468" y="1051"/>
      <point x="1548" y="981"/>
      <point x="1548" y="827" type="curve" smooth="yes"/>
      <point x="1548" y="793"/>
      <point x="1544" y="752"/>
      <point x="1534" y="707" type="curve" smooth="yes"/>
      <point x="1384" y="0" type="line"/>
      <point x="1438" y="0" type="line"/>
      <point x="1585" y="700" type="line" smooth="yes"/>
      <point x="1595" y="748"/>
      <point x="1602" y="797"/>
      <point x="1602" y="836" type="curve" smooth="yes"/>
      <point x="1602" y="1010"/>
      <point x="1509" y="1102"/>
      <point x="1348" y="1102" type="curve" smooth="yes"/>
      <point x="1143" y="1102"/>
      <point x="1001" y="930"/>
      <point x="936" y="797" type="curve"/>
      <point x="934" y="797" type="line"/>
      <point x="944" y="979"/>
      <point x="877" y="1102"/>
      <point x="690" y="1102" type="curve" smooth="yes"/>
      <point x="483" y="1102"/>
      <point x="348" y="928"/>
      <point x="285" y="797" type="curve"/>
      <point x="281" y="797" type="line"/>
      <point x="340" y="1081" type="line"/>
      <point x="295" y="1081" type="line"/>
    </contour>
  </outline>
</glyph>
<glyph name="q" format="2">
  <advance width="1163"/>
  <unicode hex="0071"/>
  <anchor x="367" y="-475" name="bottom"/>
  <anchor x="696" y="1081" name="top"/>
  <anchor x="1237" y="1081" name="topright"/>
  <outline>
    <contour>
      <point x="705" y="-475" type="line"/>
      <point x="758" y="-475" type="line"/>
      <point x="1087" y="1081" type="line"/>
      <point x="1042" y="1081" type="line"/>
      <point x="987" y="834" type="line"/>
      <point x="983" y="834" type="line"/>
      <point x="963" y="961"/>
      <point x="870" y="1102"/>
      <point x="666" y="1102" type="curve" smooth="yes"/>
      <point x="285" y="1102"/>
      <point x="104" y="696"/>
      <point x="104" y="365" type="curve" smooth="yes"/>
      <point x="104" y="133"/>
      <point x="203" y="-20"/>
      <point x="414" y="-20" type="curve" smooth="yes"/>
      <point x="618" y="-20"/>
      <point x="795" y="158"/>
      <point x="870" y="297" type="curve"/>
      <point x="874" y="297" type="line"/>
      <point x="848" y="193"/>
      <point x="817" y="53"/>
      <point x="799" y="-31" type="curve" smooth="yes"/>
    </contour>
    <contour>
      <point x="420" y="31" type="curve" smooth="yes"/>
      <point x="236" y="31"/>
      <point x="160" y="160"/>
      <point x="160" y="365" type="curve" smooth="yes"/>
      <point x="160" y="686"/>
      <point x="326" y="1051"/>
      <point x="664" y="1051" type="curve" smooth="yes"/>
      <point x="831" y="1051"/>
      <point x="948" y="946"/>
      <point x="948" y="733" type="curve" smooth="yes"/>
      <point x="948" y="375"/>
      <point x="688" y="31"/>
    </contour>
  </outline>
</glyph>
<glyph name="s" format="2">
  <advance width="866"/>
  <unicode hex="0073"/>
  <anchor x="319" y="0" name="bottom"/>
  <anchor x="549" y="1081" name="top"/>
  <anchor x="940" y="1081" name="topright"/>
  <outline>
    <contour>
      <point x="336" y="-20" type="curve" smooth="yes"/>
      <point x="596" y="-20"/>
      <point x="707" y="115"/>
      <point x="707" y="281" type="curve" smooth="yes"/>
      <point x="707" y="451"/>
      <point x="575" y="514"/>
      <point x="446" y="584" type="curve" smooth="yes"/>
      <point x="328" y="647"/>
      <point x="219" y="698"/>
      <point x="219" y="821" type="curve" smooth="yes"/>
      <point x="219" y="983"/>
      <point x="348" y="1051"/>
      <point x="518" y="1051" type="curve" smooth="yes"/>
      <point x="625" y="1051"/>
      <point x="729" y="1024"/>
      <point x="799" y="989" type="curve"/>
      <point x="817" y="1040" type="line"/>
      <point x="745" y="1073"/>
      <point x="647" y="1102"/>
      <point x="520" y="1102" type="curve" smooth="yes"/>
      <point x="326" y="1102"/>
      <point x="164" y="1016"/>
      <point x="164" y="817" type="curve" smooth="yes"/>
      <point x="164" y="666"/>
      <point x="283" y="608"/>
      <point x="418" y="535" type="curve" smooth="yes"/>
      <point x="535" y="471"/>
      <point x="651" y="418"/>
      <point x="651" y="279" type="curve" smooth="yes"/>
      <point x="651" y="135"/>
      <point x="561" y="31"/>
      <point x="338" y="31" type="curve" smooth="yes"/>
      <point x="217" y="31"/>
      <point x="106" y="70"/>
      <point x="25" y="117" type="curve"/>
      <point x="25" y="55" type="line"/>
      <point x="88" y="23"/>
      <point x="193" y="-20"/>
    </contour>
  </outline>
</glyph>
<glyph name="w" format="2">
  <advance width="1333"/>
  <unicode hex="0077"/>
  <anchor x="553" y="0" name="bottom"/>
  <anchor x="782" y="1081" name="top"/>
  <anchor x="1407" y="1081" name="topright"/>
  <outline>
    <contour>
      <point x="178" y="0" type="line"/>
      <point x="225" y="0" type="line"/>
      <point x="639" y="797" type="line" smooth="yes"/>
      <point x="672" y="858"/>
      <point x="698" y="915"/>
      <point x="733" y="989" type="curve"/>
      <point x="735" y="989" type="line"/>
      <point x="739" y="915"/>
      <point x="743" y="866"/>
      <point x="752" y="797" type="curve" smooth="yes"/>
      <point x="834" y="0" type="line"/>
      <point x="881" y="0" type="line"/>
      <point x="1395" y="1081" type="line"/>
      <point x="1339" y="1081" type="line"/>
      <point x="977" y="319" type="line" smooth="yes"/>
      <point x="924" y="205"/>
      <point x="897" y="150"/>
      <point x="874" y="86" type="curve"/>
      <point x="870" y="86" type="line"/>
      <point x="868" y="152"/>
      <point x="862" y="215"/>
      <point x="852" y="319" type="curve" smooth="yes"/>
      <point x="772" y="1081" type="line"/>
      <point x="731" y="1081" type="line"/>
      <point x="336" y="319" type="line" smooth="yes"/>
      <point x="270" y="195"/>
      <point x="250" y="150"/>
      <point x="221" y="86" type="curve"/>
      <point x="217" y="86" type="line"/>
      <point x="217" y="152"/>
      <point x="215" y="215"/>
      <point x="209" y="319" type="curve" smooth="yes"/>
      <point x="164" y="1081" type="line"/>
      <point x="111" y="1081" type="line"/>
    </contour>
  </outline>
</glyph>
<glyph name="x" format="2">
  <advance width="932"/>
  <unicode hex="0078"/>
  <anchor x="352" y="0" name="bottom"/>
  <anchor x="582" y="1081" name="top"/>
  <anchor x="1006" y="1081" name="topright"/>
  <outline>
    <contour>
      <point x="-68" y="0" type="line"/>
      <point x="-2" y="0" type="line"/>
      <point x="451" y="518" type="line"/>
      <point x="696" y="0" type="line"/>
      <point x="756" y="0" type="line"/>
      <point x="489" y="555" type="line"/>
      <point x="961" y="1081" type="line"/>
      <point x="895" y="1081" type="line"/>
      <point x="461" y="596" type="line"/>
      <point x="238" y="1081" type="line"/>
      <point x="176" y="1081" type="line"/>
      <point x="422" y="559" type="line"/>
    </contour>
  </outline>
</glyph>
<glyph name="y" format="2">
  <advance width="840"/>
  <unicode hex="0079"/>
  <anchor x="199" y="-498" name="bottom"/>
  <anchor x="535" y="1081" name="top"/>
  <anchor x="913" y="1081" name="topright"/>
  <outline>
    <contour>
      <point x="-117" y="-498" type="curve" smooth="yes"/>
      <point x="12" y="-498"/>
      <point x="102" y="-401"/>
      <point x="197" y="-236" type="curve" smooth="yes"/>
      <point x="940" y="1081" type="line"/>
      <point x="881" y="1081" type="line"/>
      <point x="467" y="344" type="line" smooth="yes"/>
      <point x="399" y="225"/>
      <point x="352" y="135"/>
      <point x="322" y="76" type="curve"/>
      <point x="317" y="76" type="line"/>
      <point x="311" y="137"/>
      <point x="297" y="225"/>
      <point x="276" y="352" type="curve" smooth="yes"/>
      <point x="156" y="1081" type="line"/>
      <point x="102" y="1081" type="line"/>
      <point x="283" y="14" type="line"/>
      <point x="152" y="-211" type="line" smooth="yes"/>
      <point x="57" y="-373"/>
      <point x="-14" y="-446"/>
      <point x="-113" y="-446" type="curve" smooth="yes"/>
      <point x="-168" y="-446"/>
      <point x="-201" y="-438"/>
      <point x="-233" y="-424" type="curve"/>
      <point x="-233" y="-477" type="line"/>
      <point x="-203" y="-492"/>
      <point x="-168" y="-498"/>
    </contour>
  </outline>
</glyph>
<glyph name="braceleft" format="2">
  <advance width="670"/>
  <unicode hex="007B"/>
  <outline>
    <contour>
      <point x="408" y="-324" type="curve" smooth="yes"/>
      <point x="424" y="-324" type="line"/>
      <point x="424" y="-272" type="line"/>
      <point x="260" y="-272"/>
      <point x="197" y="-242"/>
      <point x="197" y="-117" type="curve" smooth="yes"/>
      <point x="197" y="-92"/>
      <point x="201" y="-61"/>
      <point x="209" y="-27" type="curve" smooth="yes"/>
      <point x="283" y="315" type="line" smooth="yes"/>
      <point x="291" y="352"/>
      <point x="295" y="383"/>
      <point x="295" y="412" type="curve" smooth="yes"/>
      <point x="295" y="492"/>
      <point x="262" y="541"/>
      <point x="186" y="565" type="curve"/>
      <point x="186" y="569" type="line"/>
      <point x="301" y="592"/>
      <point x="360" y="688"/>
      <point x="389" y="825" type="curve" smooth="yes"/>
      <point x="463" y="1174" type="line" smooth="yes"/>
      <point x="500" y="1343"/>
      <point x="600" y="1409"/>
      <point x="772" y="1411" type="curve"/>
      <point x="782" y="1462" type="line"/>
      <point x="770" y="1462" type="line" smooth="yes"/>
      <point x="573" y="1460"/>
      <point x="453" y="1378"/>
      <point x="412" y="1186" type="curve" smooth="yes"/>
      <point x="336" y="834" type="line" smooth="yes"/>
      <point x="299" y="659"/>
      <point x="231" y="594"/>
      <point x="66" y="594" type="curve"/>
      <point x="55" y="543" type="line"/>
      <point x="186" y="543"/>
      <point x="242" y="504"/>
      <point x="242" y="412" type="curve" smooth="yes"/>
      <point x="242" y="387"/>
      <point x="238" y="356"/>
      <point x="229" y="324" type="curve" smooth="yes"/>
      <point x="154" y="-23" type="line" smooth="yes"/>
      <point x="145" y="-59"/>
      <point x="141" y="-92"/>
      <point x="141" y="-121" type="curve" smooth="yes"/>
      <point x="141" y="-266"/>
      <point x="219" y="-324"/>
    </contour>
  </outline>
</glyph>
<glyph name="braceright" format="2">
  <advance width="670"/>
  <unicode hex="007D"/>
  <outline>
    <contour>
      <point x="-102" y="-326" type="line"/>
      <point x="-90" y="-326" type="line" smooth="yes"/>
      <point x="106" y="-326"/>
      <point x="227" y="-242"/>
      <point x="268" y="-49" type="curve" smooth="yes"/>
      <point x="344" y="303" type="line" smooth="yes"/>
      <point x="381" y="477"/>
      <point x="449" y="543"/>
      <point x="614" y="543" type="curve"/>
      <point x="625" y="594" type="line"/>
      <point x="494" y="594"/>
      <point x="438" y="633"/>
      <point x="438" y="725" type="curve" smooth="yes"/>
      <point x="438" y="750"/>
      <point x="442" y="780"/>
      <point x="451" y="813" type="curve" smooth="yes"/>
      <point x="526" y="1159" type="line" smooth="yes"/>
      <point x="535" y="1196"/>
      <point x="539" y="1229"/>
      <point x="539" y="1257" type="curve" smooth="yes"/>
      <point x="539" y="1403"/>
      <point x="461" y="1460"/>
      <point x="272" y="1460" type="curve" smooth="yes"/>
      <point x="256" y="1460" type="line"/>
      <point x="256" y="1409" type="line"/>
      <point x="420" y="1409"/>
      <point x="483" y="1378"/>
      <point x="483" y="1253" type="curve" smooth="yes"/>
      <point x="483" y="1229"/>
      <point x="479" y="1198"/>
      <point x="471" y="1163" type="curve" smooth="yes"/>
      <point x="397" y="821" type="line" smooth="yes"/>
      <point x="389" y="784"/>
      <point x="385" y="754"/>
      <point x="385" y="725" type="curve" smooth="yes"/>
      <point x="385" y="645"/>
      <point x="420" y="596"/>
      <point x="494" y="571" type="curve"/>
      <point x="494" y="567" type="line"/>
      <point x="379" y="545"/>
      <point x="319" y="449"/>
      <point x="291" y="311" type="curve" smooth="yes"/>
      <point x="217" y="-37" type="line" smooth="yes"/>
      <point x="180" y="-207"/>
      <point x="80" y="-272"/>
      <point x="-92" y="-274" type="curve"/>
    </contour>
  </outline>
</glyph>
<glyph name="dieresis" format="2">
  <advance width="1178"/>
  <unicode hex="00A8"/>
  <outline>
    <contour>
      <point x="940" y="1325" type="curve" smooth="yes"/>
      <point x="985" y="1325"/>
      <point x="1001" y="1372"/>
      <point x="1001" y="1409" type="curve" smooth="yes"/>
      <point x="1001" y="1434"/>
      <point x="989" y="1452"/>
      <point x="961" y="1452" type="curve" smooth="yes"/>
      <point x="915" y="1452"/>
      <point x="901" y="1403"/>
      <point x="901" y="1368" type="curve" smooth="yes"/>
      <point x="901" y="1343"/>
      <point x="913" y="1325"/>
    </contour>
    <contour>
      <point x="580" y="1325" type="curve" smooth="yes"/>
      <point x="625" y="1325"/>
      <point x="641" y="1372"/>
      <point x="641" y="1409" type="curve" smooth="yes"/>
      <point x="641" y="1434"/>
      <point x="629" y="1452"/>
      <point x="600" y="1452" type="curve" smooth="yes"/>
      <point x="555" y="1452"/>
      <point x="541" y="1403"/>
      <point x="541" y="1368" type="curve" smooth="yes"/>
      <point x="541" y="1343"/>
      <point x="553" y="1325"/>
    </contour>
  </outline>
</glyph>
<glyph name="twosuperior" format="2">
  <advance width="639"/>
  <unicode hex="00B2"/>
  <outline>
    <contour>
      <point x="102" y="852" type="line"/>
      <point x="651" y="852" type="line"/>
      <point x="662" y="903" type="line"/>
      <point x="195" y="903" type="line"/>
      <point x="440" y="1108" type="line" smooth="yes"/>
      <point x="637" y="1272"/>
      <point x="772" y="1391"/>
      <point x="772" y="1559" type="curve" smooth="yes"/>
      <point x="772" y="1669"/>
      <point x="696" y="1751"/>
      <point x="561" y="1751" type="curve" smooth="yes"/>
      <point x="469" y="1751"/>
      <point x="377" y="1718"/>
      <point x="295" y="1657" type="curve"/>
      <point x="319" y="1616" type="line"/>
      <point x="403" y="1673"/>
      <point x="477" y="1700"/>
      <point x="559" y="1700" type="curve" smooth="yes"/>
      <point x="657" y="1700"/>
      <point x="717" y="1642"/>
      <point x="717" y="1556" type="curve" smooth="yes"/>
      <point x="717" y="1417"/>
      <point x="606" y="1315"/>
      <point x="403" y="1143" type="curve" smooth="yes"/>
      <point x="111" y="895" type="line"/>
    </contour>
  </outline>
</glyph>
<glyph name="acute" format="2">
  <advance width="446"/>
  <unicode hex="00B4"/>
  <anchor x="238" y="1087" name="_top"/>
  <outline>
    <contour>
      <point x="233" y="1241" type="line"/>
      <point x="276" y="1241" type="line"/>
      <point x="385" y="1331"/>
      <point x="508" y="1462"/>
      <point x="580" y="1554" type="curve"/>
      <point x="580" y="1569" type="line"/>
      <point x="518" y="1569" type="line"/>
      <point x="459" y="1481"/>
      <point x="326" y="1335"/>
      <point x="233" y="1253" type="curve"/>
    </contour>
  </outline>
</glyph>
<glyph name="onesuperior" format="2">
  <advance width="639"/>
  <unicode hex="00B9"/>
  <outline>
    <contour>
      <point x="393" y="852" type="line"/>
      <point x="449" y="852" type="line"/>
      <point x="635" y="1729" type="line"/>
      <point x="592" y="1729" type="line"/>
      <point x="293" y="1579" type="line"/>
      <point x="315" y="1534" type="line"/>
      <point x="416" y="1585" type="line" smooth="yes"/>
      <point x="485" y="1620"/>
      <point x="524" y="1640"/>
      <point x="573" y="1669" type="curve"/>
      <point x="553" y="1591"/>
      <point x="530" y="1503"/>
      <point x="514" y="1423" type="curve" smooth="yes"/>
    </contour>
  </outline>
</glyph>
<glyph name="ordmasculine" format="2">
  <advance width="721"/>
  <unicode hex="00BA"/>
  <anchor x="395" y="809" name="bottom"/>
  <anchor x="537" y="1491" name="top"/>
  <outline>
    <contour>
      <point x="418" y="809" type="curve" smooth="yes"/>
      <point x="621" y="809"/>
      <point x="762" y="997"/>
      <point x="762" y="1235" type="curve" smooth="yes"/>
      <point x="762" y="1378"/>
      <point x="686" y="1485"/>
      <point x="539" y="1485" type="curve" smooth="yes"/>
      <point x="342" y="1485"/>
      <point x="193" y="1307"/>
      <point x="193" y="1061" type="curve" smooth="yes"/>
      <point x="193" y="915"/>
      <point x="272" y="809"/>
    </contour>
    <contour>
      <point x="420" y="860" type="curve" smooth="yes"/>
      <point x="309" y="860"/>
      <point x="248" y="940"/>
      <point x="248" y="1061" type="curve" smooth="yes"/>
      <point x="248" y="1278"/>
      <point x="375" y="1434"/>
      <point x="535" y="1434" type="curve" smooth="yes"/>
      <point x="647" y="1434"/>
      <point x="705" y="1346"/>
      <point x="705" y="1231" type="curve" smooth="yes"/>
      <point x="705" y="1028"/>
      <point x="586" y="860"/>
    </contour>
  </outline>
</glyph>
<glyph name="guillemotright" format="2">
  <advance width="760"/>
  <unicode hex="00BB"/>
  <outline>
    <contour>
      <point x="344" y="178" type="line"/>
      <point x="721" y="561" type="line"/>
      <point x="727" y="588" type="line"/>
      <point x="512" y="967" type="line"/>
      <point x="475" y="946" type="line"/>
      <point x="664" y="582" type="line"/>
      <point x="313" y="209" type="line"/>
    </contour>
    <contour>
      <point x="14" y="178" type="line"/>
      <point x="391" y="561" type="line"/>
      <point x="397" y="588" type="line"/>
      <point x="182" y="967" type="line"/>
      <point x="145" y="946" type="line"/>
      <point x="334" y="582" type="line"/>
      <point x="-16" y="209" type="line"/>
    </contour>
  </outline>
</glyph>
<glyph name="AE" format="2">
  <advance width="1604"/>
  <unicode hex="00C6"/>
  <anchor x="688" y="0" name="bottom"/>
  <anchor x="999" y="1462" name="top"/>
  <outline>
    <contour>
      <point x="-104" y="0" type="line"/>
      <point x="-39" y="0" type="line"/>
      <point x="301" y="553" type="line"/>
      <point x="727" y="553" type="line"/>
      <point x="610" y="0" type="line"/>
      <point x="1364" y="0" type="line"/>
      <point x="1374" y="51" type="line"/>
      <point x="676" y="51" type="line"/>
      <point x="823" y="745" type="line"/>
      <point x="1483" y="745" type="line"/>
      <point x="1493" y="797" type="line"/>
      <point x="834" y="797" type="line"/>
      <point x="965" y="1411" type="line"/>
      <point x="1663" y="1411" type="line"/>
      <point x="1673" y="1462" type="line"/>
      <point x="801" y="1462" type="line"/>
    </contour>
    <contour>
      <point x="332" y="604" type="line"/>
      <point x="829" y="1411" type="line"/>
      <point x="907" y="1411" type="line"/>
      <point x="737" y="604" type="line"/>
    </contour>
  </outline>
</glyph>
<glyph name="Eth" format="2">
  <advance width="1386"/>
  <unicode hex="00D0"/>
  <anchor x="580" y="0" name="bottom"/>
  <anchor x="891" y="1462" name="top"/>
  <outline>
    <contour>
      <point x="102" y="0" type="line"/>
      <point x="401" y="0" type="line" smooth="yes"/>
      <point x="1018" y="0"/>
      <point x="1305" y="422"/>
      <point x="1305" y="870" type="curve" smooth="yes"/>
      <point x="1305" y="1270"/>
      <point x="1081" y="1462"/>
      <point x="709" y="1462" type="curve" smooth="yes"/>
      <point x="412" y="1462" type="line"/>
      <point x="262" y="754" type="line"/>
      <point x="100" y="754" type="line"/>
      <point x="90" y="702" type="line"/>
      <point x="252" y="702" type="line"/>
    </contour>
    <contour>
      <point x="168" y="51" type="line"/>
      <point x="307" y="702" type="line"/>
      <point x="705" y="702" type="line"/>
      <point x="717" y="754" type="line"/>
      <point x="317" y="754" type="line"/>
      <point x="457" y="1411" type="line"/>
      <point x="688" y="1411" type="line" smooth="yes"/>
      <point x="1047" y="1411"/>
      <point x="1249" y="1241"/>
      <point x="1249" y="870" type="curve" smooth="yes"/>
      <point x="1249" y="432"/>
      <point x="961" y="51"/>
      <point x="403" y="51" type="curve" smooth="yes"/>
    </contour>
  </outline>
</glyph>
<glyph name="Oslash" format="2">
  <advance width="1466"/>
  <unicode hex="00D8"/>
  <anchor x="618" y="0" name="bottom"/>
  <anchor x="930" y="1462" name="top"/>
  <outline>
    <contour>
      <point x="90" y="-53" type="line"/>
      <point x="283" y="158" type="line"/>
      <point x="362" y="49"/>
      <point x="492" y="-20"/>
      <point x="684" y="-20" type="curve" smooth="yes"/>
      <point x="1237" y="-20"/>
      <point x="1384" y="594"/>
      <point x="1384" y="913" type="curve" smooth="yes"/>
      <point x="1384" y="1063"/>
      <point x="1354" y="1186"/>
      <point x="1300" y="1272" type="curve"/>
      <point x="1491" y="1481" type="line"/>
      <point x="1452" y="1516" type="line"/>
      <point x="1270" y="1317" type="line"/>
      <point x="1184" y="1430"/>
      <point x="1049" y="1485"/>
      <point x="883" y="1485" type="curve" smooth="yes"/>
      <point x="395" y="1485"/>
      <point x="172" y="1014"/>
      <point x="172" y="565" type="curve" smooth="yes"/>
      <point x="172" y="428"/>
      <point x="197" y="303"/>
      <point x="254" y="203" type="curve"/>
      <point x="53" y="-16" type="line"/>
    </contour>
    <contour>
      <point x="686" y="31" type="curve" smooth="yes"/>
      <point x="514" y="31"/>
      <point x="393" y="94"/>
      <point x="319" y="199" type="curve"/>
      <point x="1262" y="1229" type="line"/>
      <point x="1307" y="1147"/>
      <point x="1329" y="1038"/>
      <point x="1329" y="911" type="curve" smooth="yes"/>
      <point x="1329" y="590"/>
      <point x="1169" y="31"/>
    </contour>
    <contour>
      <point x="293" y="246" type="line"/>
      <point x="248" y="332"/>
      <point x="227" y="442"/>
      <point x="227" y="567" type="curve" smooth="yes"/>
      <point x="227" y="922"/>
      <point x="395" y="1434"/>
      <point x="879" y="1434" type="curve" smooth="yes"/>
      <point x="1042" y="1434"/>
      <point x="1159" y="1376"/>
      <point x="1233" y="1276" type="curve"/>
    </contour>
  </outline>
</glyph>
<glyph name="germandbls" format="2">
  <advance width="1087"/>
  <unicode hex="00DF"/>
  <anchor x="326" y="-492" name="bottom"/>
  <anchor x="762" y="1567" name="top"/>
  <outline>
    <contour>
      <point x="-182" y="-492" type="curve" smooth="yes"/>
      <point x="-61" y="-492"/>
      <point x="33" y="-414"/>
      <point x="68" y="-246" type="curve" smooth="yes"/>
      <point x="362" y="1153" type="line" smooth="yes"/>
      <point x="410" y="1380"/>
      <point x="520" y="1516"/>
      <point x="741" y="1516" type="curve" smooth="yes"/>
      <point x="889" y="1516"/>
      <point x="973" y="1434"/>
      <point x="973" y="1325" type="curve" smooth="yes"/>
      <point x="973" y="1180"/>
      <point x="883" y="1124"/>
      <point x="793" y="1071" type="curve" smooth="yes"/>
      <point x="698" y="1016"/>
      <point x="602" y="961"/>
      <point x="602" y="807" type="curve" smooth="yes"/>
      <point x="602" y="700"/>
      <point x="686" y="641"/>
      <point x="762" y="569" type="curve" smooth="yes"/>
      <point x="825" y="510"/>
      <point x="883" y="440"/>
      <point x="883" y="332" type="curve" smooth="yes"/>
      <point x="883" y="135"/>
      <point x="768" y="31"/>
      <point x="565" y="31" type="curve" smooth="yes"/>
      <point x="469" y="31"/>
      <point x="379" y="53"/>
      <point x="305" y="92" type="curve"/>
      <point x="305" y="35" type="line"/>
      <point x="362" y="6"/>
      <point x="444" y="-20"/>
      <point x="565" y="-20" type="curve" smooth="yes"/>
      <point x="821" y="-20"/>
      <point x="940" y="127"/>
      <point x="940" y="332" type="curve" smooth="yes"/>
      <point x="940" y="469"/>
      <point x="866" y="547"/>
      <point x="795" y="612" type="curve" smooth="yes"/>
      <point x="725" y="676"/>
      <point x="655" y="727"/>
      <point x="655" y="807" type="curve" smooth="yes"/>
      <point x="655" y="928"/>
      <point x="733" y="979"/>
      <point x="817" y="1028" type="curve" smooth="yes"/>
      <point x="918" y="1087"/>
      <point x="1030" y="1145"/>
      <point x="1030" y="1327" type="curve" smooth="yes"/>
      <point x="1030" y="1460"/>
      <point x="932" y="1567"/>
      <point x="743" y="1567" type="curve" smooth="yes"/>
      <point x="500" y="1567"/>
      <point x="367" y="1425"/>
      <point x="309" y="1153" type="curve" smooth="yes"/>
      <point x="16" y="-238" type="line" smooth="yes"/>
      <point x="-10" y="-365"/>
      <point x="-78" y="-440"/>
      <point x="-180" y="-440" type="curve" smooth="yes"/>
      <point x="-219" y="-440"/>
      <point x="-262" y="-434"/>
      <point x="-295" y="-418" type="curve"/>
      <point x="-295" y="-471" type="line"/>
      <point x="-266" y="-483"/>
      <point x="-229" y="-492"/>
    </contour>
  </outline>
</glyph>
<glyph name="eth" format="2">
  <advance width="1128"/>
  <unicode hex="00F0"/>
  <anchor x="451" y="0" name="bottom"/>
  <anchor x="782" y="1561" name="top"/>
  <outline>
    <contour>
      <point x="459" y="-20" type="curve" smooth="yes"/>
      <point x="825" y="-20"/>
      <point x="1012" y="322"/>
      <point x="1012" y="700" type="curve" smooth="yes"/>
      <point x="1012" y="985"/>
      <point x="920" y="1210"/>
      <point x="815" y="1362" type="curve"/>
      <point x="1061" y="1497" type="line"/>
      <point x="1038" y="1540" type="line"/>
      <point x="784" y="1399" type="line"/>
      <point x="741" y="1452"/>
      <point x="684" y="1511"/>
      <point x="621" y="1561" type="curve"/>
      <point x="582" y="1518" type="line"/>
      <point x="647" y="1470"/>
      <point x="698" y="1423"/>
      <point x="739" y="1372" type="curve"/>
      <point x="473" y="1225" type="line"/>
      <point x="496" y="1182" type="line"/>
      <point x="770" y="1335" type="line"/>
      <point x="889" y="1171"/>
      <point x="961" y="928"/>
      <point x="961" y="705" type="curve"/>
      <point x="956" y="705" type="line"/>
      <point x="920" y="842"/>
      <point x="793" y="952"/>
      <point x="606" y="952" type="curve" smooth="yes"/>
      <point x="281" y="952"/>
      <point x="102" y="668"/>
      <point x="102" y="373" type="curve" smooth="yes"/>
      <point x="102" y="152"/>
      <point x="236" y="-20"/>
    </contour>
    <contour>
      <point x="461" y="31" type="curve" smooth="yes"/>
      <point x="285" y="31"/>
      <point x="158" y="168"/>
      <point x="158" y="375" type="curve" smooth="yes"/>
      <point x="158" y="655"/>
      <point x="326" y="901"/>
      <point x="604" y="901" type="curve" smooth="yes"/>
      <point x="850" y="901"/>
      <point x="930" y="711"/>
      <point x="930" y="590" type="curve" smooth="yes"/>
      <point x="930" y="221"/>
      <point x="692" y="31"/>
    </contour>
  </outline>
</glyph>
<glyph name="Hbar" format="2">
  <advance width="1395"/>
  <unicode hex="0126"/>
  <anchor x="584" y="0" name="bottom"/>
  <anchor x="895" y="1462" name="top"/>
  <outline>
    <contour>
      <point x="102" y="0" type="line"/>
      <point x="158" y="0" type="line"/>
      <point x="315" y="743" type="line"/>
      <point x="1178" y="743" type="line"/>
      <point x="1020" y="0" type="line"/>
      <point x="1075" y="0" type="line"/>
      <point x="1313" y="1126" type="line"/>
      <point x="1513" y="1126" type="line"/>
      <point x="1526" y="1178" type="line"/>
      <point x="1323" y="1178" type="line"/>
      <point x="1384" y="1462" type="line"/>
      <point x="1329" y="1462" type="line"/>
      <point x="1270" y="1178" type="line"/>
      <point x="406" y="1178" type="line"/>
      <point x="467" y="1462" type="line"/>
      <point x="412" y="1462" type="line"/>
      <point x="352" y="1178" type="line"/>
      <point x="152" y="1178" type="line"/>
      <point x="139" y="1126" type="line"/>
      <point x="342" y="1126" type="line"/>
    </contour>
    <contour>
      <point x="326" y="795" type="line"/>
      <point x="395" y="1124" type="line"/>
      <point x="1257" y="1124" type="line"/>
      <point x="1188" y="795" type="line"/>
    </contour>
  </outline>
</glyph>
<glyph name="kgreenlandic" format="2">
  <advance width="899"/>
  <unicode hex="0138"/>
  <anchor x="336" y="0" name="bottom"/>
  <anchor x="565" y="1081" name="top"/>
  <outline>
    <contour>
      <point x="66" y="0" type="line"/>
      <point x="119" y="0" type="line"/>
      <point x="193" y="352" type="line"/>
      <point x="436" y="575" type="line"/>
      <point x="727" y="0" type="line"/>
      <point x="786" y="0" type="line"/>
      <point x="475" y="610" type="line"/>
      <point x="977" y="1081" type="line"/>
      <point x="909" y="1081" type="line"/>
      <point x="203" y="418" type="line"/>
      <point x="201" y="418" type="line"/>
      <point x="231" y="537"/>
      <point x="256" y="653"/>
      <point x="285" y="786" type="curve" smooth="yes"/>
      <point x="348" y="1081" type="line"/>
      <point x="295" y="1081" type="line"/>
    </contour>
  </outline>
</glyph>
<glyph name="Lslash" format="2">
  <advance width="1006"/>
  <unicode hex="0141"/>
  <anchor x="389" y="0" name="bottom"/>
  <anchor x="700" y="1462" name="top"/>
  <outline>
    <contour>
      <point x="102" y="0" type="line"/>
      <point x="852" y="0" type="line"/>
      <point x="862" y="51" type="line"/>
      <point x="168" y="51" type="line"/>
      <point x="289" y="623" type="line"/>
      <point x="692" y="860" type="line"/>
      <point x="668" y="903" type="line"/>
      <point x="303" y="688" type="line"/>
      <point x="467" y="1462" type="line"/>
      <point x="412" y="1462" type="line"/>
      <point x="240" y="649" type="line"/>
      <point x="20" y="520" type="line"/>
      <point x="45" y="477" type="line"/>
      <point x="225" y="584" type="line"/>
    </contour>
  </outline>
</glyph>
<glyph name="lslash" format="2">
  <advance width="424"/>
  <unicode hex="0142"/>
  <anchor x="98" y="0" name="bottom"/>
  <anchor x="428" y="1556" name="top"/>
  <outline>
    <contour>
      <point x="66" y="0" type="line"/>
      <point x="119" y="0" type="line"/>
      <point x="272" y="725" type="line"/>
      <point x="485" y="854" type="line"/>
      <point x="465" y="895" type="line"/>
      <point x="285" y="786" type="line"/>
      <point x="449" y="1556" type="line"/>
      <point x="395" y="1556" type="line"/>
      <point x="225" y="750" type="line"/>
      <point x="39" y="639" type="line"/>
      <point x="59" y="598" type="line"/>
      <point x="211" y="688" type="line"/>
    </contour>
  </outline>
</glyph>
<glyph name="Eng" format="2">
  <advance width="1380"/>
  <unicode hex="014A"/>
  <anchor x="500" y="-356" name="bottom"/>
  <anchor x="887" y="1462" name="top"/>
  <outline>
    <contour>
      <point x="702" y="-356" type="curve" smooth="yes"/>
      <point x="907" y="-356"/>
      <point x="1016" y="-213"/>
      <point x="1063" y="10" type="curve" smooth="yes"/>
      <point x="1370" y="1462" type="line"/>
      <point x="1317" y="1462" type="line"/>
      <point x="1098" y="432" type="line" smooth="yes"/>
      <point x="1077" y="336"/>
      <point x="1055" y="217"/>
      <point x="1034" y="111" type="curve"/>
      <point x="1030" y="111" type="line"/>
      <point x="451" y="1462" type="line"/>
      <point x="412" y="1462" type="line"/>
      <point x="102" y="0" type="line"/>
      <point x="158" y="0" type="line"/>
      <point x="375" y="1028" type="line"/>
      <point x="397" y="1137"/>
      <point x="414" y="1231"/>
      <point x="438" y="1350" type="curve"/>
      <point x="442" y="1350" type="line"/>
      <point x="1010" y="23" type="line"/>
      <point x="973" y="-162"/>
      <point x="889" y="-303"/>
      <point x="700" y="-303" type="curve" smooth="yes"/>
      <point x="653" y="-303"/>
      <point x="610" y="-295"/>
      <point x="569" y="-283" type="curve"/>
      <point x="563" y="-330" type="line"/>
      <point x="596" y="-348"/>
      <point x="647" y="-356"/>
    </contour>
  </outline>
</glyph>
<glyph name="eng" format="2">
  <advance width="1133"/>
  <unicode hex="014B"/>
  <anchor x="348" y="-492" name="bottom"/>
  <anchor x="682" y="1081" name="top"/>
  <anchor x="1206" y="1081" name="topright"/>
  <outline>
    <contour>
      <point x="545" y="-492" type="curve" smooth="yes"/>
      <point x="668" y="-492"/>
      <point x="758" y="-412"/>
      <point x="793" y="-246" type="curve" smooth="yes"/>
      <point x="993" y="700" type="line" smooth="yes"/>
      <point x="1004" y="748"/>
      <point x="1010" y="797"/>
      <point x="1010" y="836" type="curve" smooth="yes"/>
      <point x="1010" y="1010"/>
      <point x="911" y="1102"/>
      <point x="733" y="1102" type="curve" smooth="yes"/>
      <point x="514" y="1102"/>
      <point x="354" y="926"/>
      <point x="287" y="797" type="curve"/>
      <point x="283" y="797" type="line"/>
      <point x="340" y="1081" type="line"/>
      <point x="295" y="1081" type="line"/>
      <point x="66" y="0" type="line"/>
      <point x="119" y="0" type="line"/>
      <point x="238" y="561" type="line" smooth="yes"/>
      <point x="291" y="815"/>
      <point x="498" y="1051"/>
      <point x="725" y="1051" type="curve" smooth="yes"/>
      <point x="870" y="1051"/>
      <point x="956" y="981"/>
      <point x="956" y="827" type="curve" smooth="yes"/>
      <point x="956" y="793"/>
      <point x="952" y="752"/>
      <point x="942" y="707" type="curve" smooth="yes"/>
      <point x="741" y="-238" type="line" smooth="yes"/>
      <point x="715" y="-365"/>
      <point x="649" y="-440"/>
      <point x="547" y="-440" type="curve" smooth="yes"/>
      <point x="508" y="-440"/>
      <point x="465" y="-434"/>
      <point x="432" y="-418" type="curve"/>
      <point x="432" y="-471" type="line"/>
      <point x="461" y="-483"/>
      <point x="498" y="-492"/>
    </contour>
  </outline>
</glyph>
<glyph name="oe" format="2">
  <advance width="1823"/>
  <unicode hex="0153"/>
  <anchor x="797" y="0" name="bottom"/>
  <anchor x="1026" y="1081" name="top"/>
  <outline>
    <contour>
      <point x="469" y="-20" type="curve" smooth="yes"/>
      <point x="692" y="-20"/>
      <point x="850" y="119"/>
      <point x="934" y="326" type="curve"/>
      <point x="963" y="78"/>
      <point x="1139" y="-20"/>
      <point x="1323" y="-20" type="curve" smooth="yes"/>
      <point x="1436" y="-20"/>
      <point x="1534" y="12"/>
      <point x="1597" y="55" type="curve"/>
      <point x="1589" y="106" type="line"/>
      <point x="1524" y="70"/>
      <point x="1450" y="31"/>
      <point x="1333" y="31" type="curve" smooth="yes"/>
      <point x="1120" y="31"/>
      <point x="981" y="168"/>
      <point x="981" y="397" type="curve" smooth="yes"/>
      <point x="981" y="444"/>
      <point x="985" y="494"/>
      <point x="989" y="524" type="curve"/>
      <point x="1059" y="524" type="line" smooth="yes"/>
      <point x="1430" y="524"/>
      <point x="1737" y="602"/>
      <point x="1737" y="879" type="curve" smooth="yes"/>
      <point x="1737" y="1006"/>
      <point x="1634" y="1096"/>
      <point x="1493" y="1096" type="curve" smooth="yes"/>
      <point x="1257" y="1096"/>
      <point x="1092" y="952"/>
      <point x="997" y="735" type="curve"/>
      <point x="983" y="946"/>
      <point x="870" y="1102"/>
      <point x="653" y="1102" type="curve" smooth="yes"/>
      <point x="342" y="1102"/>
      <point x="113" y="823"/>
      <point x="113" y="393" type="curve" smooth="yes"/>
      <point x="113" y="150"/>
      <point x="227" y="-20"/>
    </contour>
    <contour>
      <point x="475" y="31" type="curve" smooth="yes"/>
      <point x="270" y="31"/>
      <point x="168" y="172"/>
      <point x="168" y="393" type="curve" smooth="yes"/>
      <point x="168" y="795"/>
      <point x="369" y="1051"/>
      <point x="649" y="1051" type="curve" smooth="yes"/>
      <point x="850" y="1051"/>
      <point x="948" y="901"/>
      <point x="948" y="694" type="curve" smooth="yes"/>
      <point x="948" y="328"/>
      <point x="772" y="31"/>
    </contour>
    <contour>
      <point x="997" y="575" type="line"/>
      <point x="1063" y="874"/>
      <point x="1264" y="1044"/>
      <point x="1485" y="1044" type="curve" smooth="yes"/>
      <point x="1612" y="1044"/>
      <point x="1681" y="973"/>
      <point x="1681" y="877" type="curve" smooth="yes"/>
      <point x="1681" y="666"/>
      <point x="1438" y="575"/>
      <point x="1096" y="575" type="curve" smooth="yes"/>
    </contour>
  </outline>
</glyph>
<glyph name="longs" format="2">
  <advance width="541"/>
  <unicode hex="017F"/>
  <anchor x="51" y="-492" name="bottom"/>
  <anchor x="487" y="1567" name="top"/>
  <outline>
    <contour>
      <point x="-178" y="-492" type="curve" smooth="yes"/>
      <point x="-37" y="-492"/>
      <point x="43" y="-410"/>
      <point x="84" y="-217" type="curve" smooth="yes"/>
      <point x="399" y="1266" type="line" smooth="yes"/>
      <point x="428" y="1401"/>
      <point x="496" y="1516"/>
      <point x="672" y="1516" type="curve" smooth="yes"/>
      <point x="723" y="1516"/>
      <point x="780" y="1507"/>
      <point x="819" y="1489" type="curve"/>
      <point x="836" y="1540" type="line"/>
      <point x="813" y="1548"/>
      <point x="756" y="1567"/>
      <point x="674" y="1567" type="curve" smooth="yes"/>
      <point x="504" y="1567"/>
      <point x="389" y="1468"/>
      <point x="348" y="1274" type="curve" smooth="yes"/>
      <point x="33" y="-209" type="line" smooth="yes"/>
      <point x="-4" y="-379"/>
      <point x="-68" y="-440"/>
      <point x="-178" y="-440" type="curve" smooth="yes"/>
      <point x="-215" y="-440"/>
      <point x="-260" y="-430"/>
      <point x="-285" y="-418" type="curve"/>
      <point x="-285" y="-471" type="line"/>
      <point x="-264" y="-481"/>
      <point x="-215" y="-492"/>
    </contour>
  </outline>
</glyph>
<glyph name="uni0185" format="2">
  <advance width="1163"/>
  <unicode hex="0185"/>
  <anchor x="467" y="0" name="bottom"/>
  <anchor x="797" y="1556" name="top"/>
  <outline>
    <contour>
      <point x="498" y="-20" type="curve" smooth="yes"/>
      <point x="870" y="-20"/>
      <point x="1051" y="385"/>
      <point x="1051" y="717" type="curve" smooth="yes"/>
      <point x="1051" y="958"/>
      <point x="934" y="1102"/>
      <point x="731" y="1102" type="curve" smooth="yes"/>
      <point x="506" y="1102"/>
      <point x="356" y="934"/>
      <point x="285" y="797" type="curve"/>
      <point x="281" y="797" type="line"/>
      <point x="307" y="901"/>
      <point x="336" y="1028"/>
      <point x="354" y="1112" type="curve" smooth="yes"/>
      <point x="449" y="1556" type="line"/>
      <point x="395" y="1556" type="line"/>
      <point x="195" y="616" type="line" smooth="yes"/>
      <point x="174" y="520"/>
      <point x="158" y="420"/>
      <point x="158" y="346" type="curve" smooth="yes"/>
      <point x="158" y="119"/>
      <point x="270" y="-20"/>
    </contour>
    <contour>
      <point x="500" y="31" type="curve" smooth="yes"/>
      <point x="311" y="31"/>
      <point x="211" y="139"/>
      <point x="211" y="342" type="curve" smooth="yes"/>
      <point x="211" y="680"/>
      <point x="422" y="1051"/>
      <point x="721" y="1051" type="curve" smooth="yes"/>
      <point x="901" y="1051"/>
      <point x="995" y="928"/>
      <point x="995" y="717" type="curve" smooth="yes"/>
      <point x="995" y="395"/>
      <point x="831" y="31"/>
    </contour>
  </outline>
</glyph>
<glyph name="uni0190" format="2">
  <advance width="1018"/>
  <unicode hex="0190"/>
  <anchor x="395" y="0" name="bottom"/>
  <anchor x="707" y="1462" name="top"/>
  <outline>
    <contour>
      <point x="481" y="-20" type="curve" smooth="yes"/>
      <point x="655" y="-20"/>
      <point x="768" y="25"/>
      <point x="846" y="61" type="curve"/>
      <point x="846" y="115" type="line"/>
      <point x="743" y="68"/>
      <point x="641" y="31"/>
      <point x="481" y="31" type="curve" smooth="yes"/>
      <point x="258" y="31"/>
      <point x="152" y="156"/>
      <point x="152" y="342" type="curve" smooth="yes"/>
      <point x="152" y="602"/>
      <point x="322" y="733"/>
      <point x="618" y="733" type="curve" smooth="yes"/>
      <point x="831" y="733" type="line"/>
      <point x="844" y="784" type="line"/>
      <point x="664" y="784" type="line" smooth="yes"/>
      <point x="453" y="784"/>
      <point x="338" y="879"/>
      <point x="338" y="1075" type="curve" smooth="yes"/>
      <point x="338" y="1292"/>
      <point x="481" y="1432"/>
      <point x="698" y="1432" type="curve" smooth="yes"/>
      <point x="831" y="1432"/>
      <point x="926" y="1395"/>
      <point x="993" y="1341" type="curve"/>
      <point x="1024" y="1389" type="line"/>
      <point x="952" y="1438"/>
      <point x="862" y="1483"/>
      <point x="705" y="1483" type="curve" smooth="yes"/>
      <point x="444" y="1483"/>
      <point x="283" y="1313"/>
      <point x="283" y="1071" type="curve" smooth="yes"/>
      <point x="283" y="909"/>
      <point x="354" y="813"/>
      <point x="467" y="770" type="curve"/>
      <point x="467" y="766" type="line"/>
      <point x="254" y="731"/>
      <point x="96" y="596"/>
      <point x="96" y="338" type="curve" smooth="yes"/>
      <point x="96" y="131"/>
      <point x="215" y="-20"/>
    </contour>
  </outline>
</glyph>
<glyph name="uni0193" format="2">
  <advance width="1413"/>
  <unicode hex="0193"/>
  <anchor x="592" y="0" name="bottom"/>
  <anchor x="903" y="1462" name="top"/>
  <outline>
    <contour>
      <point x="682" y="-20" type="curve" smooth="yes"/>
      <point x="831" y="-20"/>
      <point x="997" y="10"/>
      <point x="1135" y="74" type="curve"/>
      <point x="1272" y="717" type="line"/>
      <point x="807" y="717" type="line"/>
      <point x="795" y="666" type="line"/>
      <point x="1206" y="666" type="line"/>
      <point x="1087" y="109" type="line"/>
      <point x="981" y="63"/>
      <point x="829" y="31"/>
      <point x="684" y="31" type="curve" smooth="yes"/>
      <point x="418" y="31"/>
      <point x="225" y="199"/>
      <point x="225" y="547" type="curve" smooth="yes"/>
      <point x="225" y="1085"/>
      <point x="561" y="1432"/>
      <point x="948" y="1432" type="curve" smooth="yes"/>
      <point x="1087" y="1432"/>
      <point x="1221" y="1399"/>
      <point x="1337" y="1346" type="curve"/>
      <point x="1384" y="1548" type="line" smooth="yes"/>
      <point x="1409" y="1651"/>
      <point x="1444" y="1710"/>
      <point x="1528" y="1710" type="curve" smooth="yes"/>
      <point x="1573" y="1710"/>
      <point x="1602" y="1696"/>
      <point x="1618" y="1683" type="curve"/>
      <point x="1647" y="1729" type="line"/>
      <point x="1624" y="1745"/>
      <point x="1581" y="1761"/>
      <point x="1530" y="1761" type="curve" smooth="yes"/>
      <point x="1417" y="1761"/>
      <point x="1366" y="1694"/>
      <point x="1333" y="1556" type="curve" smooth="yes"/>
      <point x="1300" y="1421" type="line"/>
      <point x="1194" y="1462"/>
      <point x="1085" y="1483"/>
      <point x="950" y="1483" type="curve" smooth="yes"/>
      <point x="537" y="1483"/>
      <point x="172" y="1122"/>
      <point x="172" y="547" type="curve" smooth="yes"/>
      <point x="172" y="199"/>
      <point x="354" y="-20"/>
    </contour>
  </outline>
</glyph>
<glyph name="uni0194" format="2">
  <advance width="1053"/>
  <unicode hex="0194"/>
  <anchor x="307" y="-492" name="bottom"/>
  <anchor x="723" y="1462" name="top"/>
  <outline>
    <contour>
      <point x="350" y="-492" type="curve" smooth="yes"/>
      <point x="498" y="-492"/>
      <point x="569" y="-367"/>
      <point x="569" y="-188" type="curve" smooth="yes"/>
      <point x="569" y="-47"/>
      <point x="541" y="90"/>
      <point x="512" y="219" type="curve"/>
      <point x="1245" y="1462" type="line"/>
      <point x="1182" y="1462" type="line"/>
      <point x="606" y="489" type="line" smooth="yes"/>
      <point x="553" y="399"/>
      <point x="522" y="344"/>
      <point x="485" y="276" type="curve"/>
      <point x="473" y="348"/>
      <point x="459" y="412"/>
      <point x="442" y="483" type="curve" smooth="yes"/>
      <point x="207" y="1462" type="line"/>
      <point x="152" y="1462" type="line"/>
      <point x="444" y="231" type="line"/>
      <point x="264" y="-33"/>
      <point x="182" y="-184"/>
      <point x="182" y="-315" type="curve" smooth="yes"/>
      <point x="182" y="-430"/>
      <point x="244" y="-492"/>
    </contour>
    <contour>
      <point x="350" y="-440" type="curve" smooth="yes"/>
      <point x="283" y="-440"/>
      <point x="238" y="-397"/>
      <point x="238" y="-319" type="curve" smooth="yes"/>
      <point x="238" y="-197"/>
      <point x="303" y="-74"/>
      <point x="465" y="168" type="curve"/>
      <point x="492" y="51"/>
      <point x="514" y="-86"/>
      <point x="514" y="-188" type="curve" smooth="yes"/>
      <point x="514" y="-354"/>
      <point x="455" y="-440"/>
    </contour>
  </outline>
</glyph>
<glyph name="uni0197" format="2">
  <advance width="539"/>
  <unicode hex="0197"/>
  <anchor x="156" y="0" name="bottom"/>
  <anchor x="467" y="1462" name="top"/>
  <outline>
    <contour>
      <point x="16" y="0" type="line"/>
      <point x="340" y="0" type="line"/>
      <point x="348" y="41" type="line"/>
      <point x="213" y="47" type="line"/>
      <point x="358" y="733" type="line"/>
      <point x="528" y="733" type="line"/>
      <point x="539" y="784" type="line"/>
      <point x="371" y="784" type="line"/>
      <point x="504" y="1413" type="line"/>
      <point x="641" y="1421" type="line"/>
      <point x="649" y="1462" type="line"/>
      <point x="326" y="1462" type="line"/>
      <point x="317" y="1421" type="line"/>
      <point x="451" y="1413" type="line"/>
      <point x="317" y="784" type="line"/>
      <point x="152" y="784" type="line"/>
      <point x="141" y="733" type="line"/>
      <point x="305" y="733" type="line"/>
      <point x="160" y="47" type="line"/>
      <point x="25" y="41" type="line"/>
    </contour>
  </outline>
</glyph>
<glyph name="uni0198" format="2">
  <advance width="1214"/>
  <unicode hex="0198"/>
  <anchor x="442" y="0" name="bottom"/>
  <anchor x="754" y="1462" name="top"/>
  <outline>
    <contour>
      <point x="102" y="0" type="line"/>
      <point x="158" y="0" type="line"/>
      <point x="283" y="596" type="line"/>
      <point x="537" y="811" type="line"/>
      <point x="930" y="0" type="line"/>
      <point x="991" y="0" type="line"/>
      <point x="580" y="848" type="line"/>
      <point x="1178" y="1366" type="line" smooth="yes"/>
      <point x="1219" y="1403"/>
      <point x="1260" y="1425"/>
      <point x="1319" y="1425" type="curve" smooth="yes"/>
      <point x="1352" y="1425"/>
      <point x="1384" y="1419"/>
      <point x="1403" y="1413" type="curve"/>
      <point x="1403" y="1464" type="line"/>
      <point x="1384" y="1468"/>
      <point x="1358" y="1475"/>
      <point x="1321" y="1475" type="curve" smooth="yes"/>
      <point x="1249" y="1475"/>
      <point x="1194" y="1446"/>
      <point x="1147" y="1405" type="curve" smooth="yes"/>
      <point x="414" y="770" type="line"/>
      <point x="297" y="664" type="line"/>
      <point x="467" y="1462" type="line"/>
      <point x="412" y="1462" type="line"/>
    </contour>
  </outline>
</glyph>
<glyph name="uni0199" format="2">
  <advance width="899"/>
  <unicode hex="0199"/>
  <anchor x="336" y="0" name="bottom"/>
  <anchor x="670" y="1577" name="top"/>
  <outline>
    <contour>
      <point x="66" y="0" type="line"/>
      <point x="119" y="0" type="line"/>
      <point x="193" y="352" type="line"/>
      <point x="436" y="575" type="line"/>
      <point x="727" y="0" type="line"/>
      <point x="786" y="0" type="line"/>
      <point x="475" y="610" type="line"/>
      <point x="977" y="1081" type="line"/>
      <point x="909" y="1081" type="line"/>
      <point x="203" y="418" type="line"/>
      <point x="201" y="418" type="line"/>
      <point x="233" y="547"/>
      <point x="256" y="651"/>
      <point x="285" y="786" type="curve" smooth="yes"/>
      <point x="410" y="1378" type="line" smooth="yes"/>
      <point x="428" y="1464"/>
      <point x="455" y="1526"/>
      <point x="545" y="1526" type="curve" smooth="yes"/>
      <point x="590" y="1526"/>
      <point x="621" y="1509"/>
      <point x="637" y="1495" type="curve"/>
      <point x="662" y="1542" type="line"/>
      <point x="637" y="1561"/>
      <point x="596" y="1577"/>
      <point x="549" y="1577" type="curve" smooth="yes"/>
      <point x="430" y="1577"/>
      <point x="383" y="1503"/>
      <point x="358" y="1384" type="curve" smooth="yes"/>
    </contour>
  </outline>
</glyph>
<glyph name="uni01A2" format="2">
  <advance width="1987"/>
  <unicode hex="01A2"/>
  <anchor x="879" y="0" name="bottom"/>
  <anchor x="1190" y="1462" name="top"/>
  <outline>
    <contour>
      <point x="653" y="-20" type="curve" smooth="yes"/>
      <point x="1176" y="-20"/>
      <point x="1323" y="594"/>
      <point x="1323" y="913" type="curve" smooth="yes"/>
      <point x="1323" y="1040"/>
      <point x="1303" y="1145"/>
      <point x="1266" y="1227" type="curve"/>
      <point x="1333" y="1346"/>
      <point x="1436" y="1432"/>
      <point x="1608" y="1432" type="curve" smooth="yes"/>
      <point x="1769" y="1432"/>
      <point x="1862" y="1350"/>
      <point x="1862" y="1190" type="curve" smooth="yes"/>
      <point x="1862" y="1130"/>
      <point x="1851" y="1063"/>
      <point x="1839" y="1008" type="curve" smooth="yes"/>
      <point x="1626" y="0" type="line"/>
      <point x="1679" y="0" type="line"/>
      <point x="1892" y="1008" type="line" smooth="yes"/>
      <point x="1905" y="1067"/>
      <point x="1915" y="1135"/>
      <point x="1915" y="1196" type="curve" smooth="yes"/>
      <point x="1915" y="1386"/>
      <point x="1798" y="1483"/>
      <point x="1612" y="1483" type="curve" smooth="yes"/>
      <point x="1415" y="1483"/>
      <point x="1309" y="1384"/>
      <point x="1239" y="1278" type="curve"/>
      <point x="1159" y="1417"/>
      <point x="1020" y="1485"/>
      <point x="852" y="1485" type="curve" smooth="yes"/>
      <point x="395" y="1485"/>
      <point x="172" y="1014"/>
      <point x="172" y="565" type="curve" smooth="yes"/>
      <point x="172" y="246"/>
      <point x="307" y="-20"/>
    </contour>
    <contour>
      <point x="655" y="31" type="curve" smooth="yes"/>
      <point x="362" y="31"/>
      <point x="227" y="252"/>
      <point x="227" y="567" type="curve" smooth="yes"/>
      <point x="227" y="922"/>
      <point x="391" y="1434"/>
      <point x="848" y="1434" type="curve" smooth="yes"/>
      <point x="1133" y="1434"/>
      <point x="1268" y="1233"/>
      <point x="1268" y="911" type="curve" smooth="yes"/>
      <point x="1268" y="590"/>
      <point x="1120" y="31"/>
    </contour>
  </outline>
</glyph>
<glyph name="uni01A4" format="2">
  <advance width="1278"/>
  <unicode hex="01A4"/>
  <anchor x="524" y="0" name="bottom"/>
  <anchor x="836" y="1462" name="top"/>
  <outline>
    <contour>
      <point x="250" y="0" type="line"/>
      <point x="305" y="0" type="line"/>
      <point x="436" y="625" type="line"/>
      <point x="725" y="625" type="line" smooth="yes"/>
      <point x="1114" y="625"/>
      <point x="1290" y="823"/>
      <point x="1290" y="1102" type="curve" smooth="yes"/>
      <point x="1290" y="1339"/>
      <point x="1145" y="1462"/>
      <point x="877" y="1462" type="curve" smooth="yes"/>
      <point x="489" y="1462" type="line" smooth="yes"/>
      <point x="297" y="1462"/>
      <point x="190" y="1329"/>
      <point x="190" y="1153" type="curve" smooth="yes"/>
      <point x="190" y="1104"/>
      <point x="199" y="1071"/>
      <point x="205" y="1051" type="curve"/>
      <point x="260" y="1051" type="line"/>
      <point x="254" y="1069"/>
      <point x="246" y="1104"/>
      <point x="246" y="1153" type="curve" smooth="yes"/>
      <point x="246" y="1290"/>
      <point x="319" y="1411"/>
      <point x="489" y="1411" type="curve" smooth="yes"/>
      <point x="549" y="1411" type="line"/>
    </contour>
    <contour>
      <point x="449" y="676" type="line"/>
      <point x="604" y="1411" type="line"/>
      <point x="866" y="1411" type="line" smooth="yes"/>
      <point x="1102" y="1411"/>
      <point x="1235" y="1317"/>
      <point x="1235" y="1100" type="curve" smooth="yes"/>
      <point x="1235" y="850"/>
      <point x="1087" y="676"/>
      <point x="733" y="676" type="curve" smooth="yes"/>
    </contour>
  </outline>
</glyph>
<glyph name="uni01AC" format="2">
  <advance width="985"/>
  <unicode hex="01AC"/>
  <anchor x="379" y="0" name="bottom"/>
  <anchor x="690" y="1462" name="top"/>
  <outline>
    <contour>
      <point x="352" y="0" type="line"/>
      <point x="408" y="0" type="line"/>
      <point x="707" y="1411" type="line"/>
      <point x="1169" y="1411" type="line"/>
      <point x="1180" y="1462" type="line"/>
      <point x="489" y="1462" type="line" smooth="yes"/>
      <point x="297" y="1462"/>
      <point x="190" y="1329"/>
      <point x="190" y="1153" type="curve" smooth="yes"/>
      <point x="190" y="1104"/>
      <point x="199" y="1071"/>
      <point x="205" y="1051" type="curve"/>
      <point x="260" y="1051" type="line"/>
      <point x="254" y="1069"/>
      <point x="246" y="1104"/>
      <point x="246" y="1153" type="curve" smooth="yes"/>
      <point x="246" y="1290"/>
      <point x="319" y="1411"/>
      <point x="489" y="1411" type="curve" smooth="yes"/>
      <point x="651" y="1411" type="line"/>
    </contour>
  </outline>
</glyph>
<glyph name="uhorn" format="2">
  <advance width="1286"/>
  <unicode hex="01B0"/>
  <anchor x="528" y="0" name="bottom"/>
  <anchor x="758" y="1081" name="top"/>
  <outline>
    <contour>
      <point x="389" y="-20" type="curve" smooth="yes"/>
      <point x="608" y="-20"/>
      <point x="768" y="156"/>
      <point x="836" y="285" type="curve"/>
      <point x="840" y="285" type="line"/>
      <point x="782" y="0" type="line"/>
      <point x="827" y="0" type="line"/>
      <point x="1001" y="825" type="line"/>
      <point x="1169" y="852"/>
      <point x="1255" y="958"/>
      <point x="1303" y="1163" type="curve"/>
      <point x="1294" y="1182" type="line"/>
      <point x="1247" y="1182" type="line"/>
      <point x="1212" y="985"/>
      <point x="1133" y="899"/>
      <point x="1014" y="881" type="curve"/>
      <point x="1057" y="1081" type="line"/>
      <point x="1004" y="1081" type="line"/>
      <point x="885" y="520" type="line" smooth="yes"/>
      <point x="831" y="266"/>
      <point x="625" y="31"/>
      <point x="397" y="31" type="curve" smooth="yes"/>
      <point x="252" y="31"/>
      <point x="166" y="100"/>
      <point x="166" y="254" type="curve" smooth="yes"/>
      <point x="166" y="289"/>
      <point x="170" y="330"/>
      <point x="180" y="375" type="curve" smooth="yes"/>
      <point x="330" y="1081" type="line"/>
      <point x="276" y="1081" type="line"/>
      <point x="129" y="381" type="line" smooth="yes"/>
      <point x="119" y="334"/>
      <point x="113" y="285"/>
      <point x="113" y="246" type="curve" smooth="yes"/>
      <point x="113" y="72"/>
      <point x="211" y="-20"/>
    </contour>
  </outline>
</glyph>
<glyph name="uni01B1" format="2">
  <advance width="1538"/>
  <unicode hex="01B1"/>
  <anchor x="655" y="0" name="bottom"/>
  <anchor x="967" y="1462" name="top"/>
  <outline>
    <contour>
      <point x="678" y="-23" type="curve" smooth="yes"/>
      <point x="1137" y="-23"/>
      <point x="1440" y="356"/>
      <point x="1440" y="840" type="curve" smooth="yes"/>
      <point x="1440" y="1100"/>
      <point x="1327" y="1300"/>
      <point x="1171" y="1411" type="curve"/>
      <point x="1620" y="1411" type="line"/>
      <point x="1630" y="1462" type="line"/>
      <point x="1106" y="1462" type="line"/>
      <point x="1098" y="1415" type="line"/>
      <point x="1270" y="1292"/>
      <point x="1384" y="1104"/>
      <point x="1384" y="840" type="curve" smooth="yes"/>
      <point x="1384" y="385"/>
      <point x="1106" y="29"/>
      <point x="680" y="29" type="curve" smooth="yes"/>
      <point x="391" y="29"/>
      <point x="207" y="203"/>
      <point x="207" y="516" type="curve" smooth="yes"/>
      <point x="207" y="940"/>
      <point x="436" y="1239"/>
      <point x="811" y="1415" type="curve"/>
      <point x="819" y="1462" type="line"/>
      <point x="291" y="1462" type="line"/>
      <point x="281" y="1411" type="line"/>
      <point x="711" y="1411" type="line"/>
      <point x="346" y="1221"/>
      <point x="152" y="903"/>
      <point x="152" y="516" type="curve" smooth="yes"/>
      <point x="152" y="172"/>
      <point x="365" y="-23"/>
    </contour>
  </outline>
</glyph>
<glyph name="uni01B3" format="2">
  <advance width="1026"/>
  <unicode hex="01B3"/>
  <anchor x="369" y="0" name="bottom"/>
  <anchor x="680" y="1462" name="top"/>
  <outline>
    <contour>
      <point x="356" y="0" type="line"/>
      <point x="412" y="0" type="line"/>
      <point x="530" y="563" type="line"/>
      <point x="1122" y="1391" type="line" smooth="yes"/>
      <point x="1143" y="1419"/>
      <point x="1163" y="1434"/>
      <point x="1182" y="1434" type="curve" smooth="yes"/>
      <point x="1192" y="1434"/>
      <point x="1204" y="1432"/>
      <point x="1223" y="1425" type="curve"/>
      <point x="1233" y="1479" type="line"/>
      <point x="1219" y="1483"/>
      <point x="1202" y="1487"/>
      <point x="1186" y="1487" type="curve" smooth="yes"/>
      <point x="1143" y="1487"/>
      <point x="1118" y="1470"/>
      <point x="1073" y="1407" type="curve" smooth="yes"/>
      <point x="510" y="616" type="line"/>
      <point x="252" y="1462" type="line"/>
      <point x="197" y="1462" type="line"/>
      <point x="473" y="555" type="line"/>
    </contour>
  </outline>
</glyph>
<glyph name="uni01B4" format="2">
  <advance width="1004"/>
  <unicode hex="01B4"/>
  <anchor x="199" y="-498" name="bottom"/>
  <anchor x="535" y="1081" name="top"/>
  <outline>
    <contour>
      <point x="-117" y="-498" type="curve" smooth="yes"/>
      <point x="12" y="-498"/>
      <point x="102" y="-401"/>
      <point x="197" y="-236" type="curve" smooth="yes"/>
      <point x="793" y="821" type="line" smooth="yes"/>
      <point x="893" y="997"/>
      <point x="936" y="1053"/>
      <point x="1020" y="1053" type="curve" smooth="yes"/>
      <point x="1047" y="1053"/>
      <point x="1073" y="1047"/>
      <point x="1092" y="1038" type="curve"/>
      <point x="1092" y="1090" type="line"/>
      <point x="1075" y="1098"/>
      <point x="1047" y="1104"/>
      <point x="1020" y="1104" type="curve" smooth="yes"/>
      <point x="905" y="1104"/>
      <point x="850" y="1026"/>
      <point x="750" y="848" type="curve" smooth="yes"/>
      <point x="467" y="344" type="line" smooth="yes"/>
      <point x="399" y="223"/>
      <point x="352" y="135"/>
      <point x="322" y="76" type="curve"/>
      <point x="317" y="76" type="line"/>
      <point x="311" y="137"/>
      <point x="297" y="225"/>
      <point x="276" y="352" type="curve" smooth="yes"/>
      <point x="156" y="1081" type="line"/>
      <point x="102" y="1081" type="line"/>
      <point x="283" y="14" type="line"/>
      <point x="152" y="-211" type="line" smooth="yes"/>
      <point x="57" y="-373"/>
      <point x="-14" y="-446"/>
      <point x="-113" y="-446" type="curve" smooth="yes"/>
      <point x="-168" y="-446"/>
      <point x="-201" y="-438"/>
      <point x="-233" y="-424" type="curve"/>
      <point x="-233" y="-477" type="line"/>
      <point x="-203" y="-492"/>
      <point x="-168" y="-498"/>
    </contour>
  </outline>
</glyph>
<glyph name="uni01B9" format="2">
  <advance width="954"/>
  <unicode hex="01B9"/>
  <anchor x="258" y="-492" name="bottom"/>
  <anchor x="592" y="1081" name="top"/>
  <outline>
    <contour>
      <point x="311" y="-492" type="curve" smooth="yes"/>
      <point x="471" y="-492"/>
      <point x="561" y="-451"/>
      <point x="641" y="-410" type="curve"/>
      <point x="651" y="-348" type="line"/>
      <point x="559" y="-401"/>
      <point x="471" y="-440"/>
      <point x="319" y="-440" type="curve" smooth="yes"/>
      <point x="137" y="-440"/>
      <point x="25" y="-332"/>
      <point x="25" y="-127" type="curve" smooth="yes"/>
      <point x="25" y="139"/>
      <point x="162" y="387"/>
      <point x="625" y="387" type="curve" smooth="yes"/>
      <point x="684" y="387" type="line"/>
      <point x="694" y="432" type="line"/>
      <point x="348" y="1034" type="line"/>
      <point x="944" y="1034" type="line"/>
      <point x="956" y="1085" type="line"/>
      <point x="301" y="1085" type="line"/>
      <point x="289" y="1034" type="line"/>
      <point x="629" y="438" type="line"/>
      <point x="117" y="438"/>
      <point x="-31" y="147"/>
      <point x="-31" y="-133" type="curve" smooth="yes"/>
      <point x="-31" y="-381"/>
      <point x="125" y="-492"/>
    </contour>
  </outline>
</glyph>
<glyph name="uni01BB" format="2">
  <advance width="1016"/>
  <unicode hex="01BB"/>
  <anchor x="393" y="0" name="bottom"/>
  <anchor x="725" y="1563" name="top"/>
  <outline>
    <contour>
      <point x="20" y="0" type="line"/>
      <point x="860" y="0" type="line"/>
      <point x="870" y="51" type="line"/>
      <point x="102" y="51" type="line"/>
      <point x="102" y="53" type="line"/>
      <point x="791" y="758" type="line"/>
      <point x="963" y="758" type="line"/>
      <point x="975" y="809" type="line"/>
      <point x="840" y="809" type="line"/>
      <point x="948" y="930"/>
      <point x="1049" y="1079"/>
      <point x="1049" y="1249" type="curve" smooth="yes"/>
      <point x="1049" y="1448"/>
      <point x="924" y="1563"/>
      <point x="723" y="1563" type="curve" smooth="yes"/>
      <point x="555" y="1563"/>
      <point x="434" y="1503"/>
      <point x="322" y="1413" type="curve"/>
      <point x="352" y="1372" type="line"/>
      <point x="451" y="1456"/>
      <point x="573" y="1511"/>
      <point x="715" y="1511" type="curve" smooth="yes"/>
      <point x="889" y="1511"/>
      <point x="995" y="1421"/>
      <point x="995" y="1249" type="curve" smooth="yes"/>
      <point x="995" y="1075"/>
      <point x="879" y="922"/>
      <point x="772" y="809" type="curve"/>
      <point x="281" y="809" type="line"/>
      <point x="268" y="758" type="line"/>
      <point x="721" y="758" type="line"/>
      <point x="29" y="47" type="line"/>
    </contour>
  </outline>
</glyph>
<glyph name="uni01BC" format="2">
  <advance width="1151"/>
  <unicode hex="01BC"/>
  <anchor x="461" y="0" name="bottom"/>
  <anchor x="772" y="1462" name="top"/>
  <outline>
    <contour>
      <point x="473" y="-20" type="curve" smooth="yes"/>
      <point x="827" y="-20"/>
      <point x="981" y="205"/>
      <point x="981" y="496" type="curve" smooth="yes"/>
      <point x="981" y="721"/>
      <point x="838" y="866"/>
      <point x="559" y="866" type="curve" smooth="yes"/>
      <point x="498" y="866" type="line"/>
      <point x="616" y="1411" type="line"/>
      <point x="1042" y="1411" type="line"/>
      <point x="1053" y="1462" type="line"/>
      <point x="367" y="1462" type="line"/>
      <point x="356" y="1411" type="line"/>
      <point x="563" y="1411" type="line"/>
      <point x="436" y="817" type="line"/>
      <point x="551" y="817" type="line" smooth="yes"/>
      <point x="793" y="817"/>
      <point x="926" y="709"/>
      <point x="926" y="496" type="curve" smooth="yes"/>
      <point x="926" y="223"/>
      <point x="780" y="31"/>
      <point x="481" y="31" type="curve" smooth="yes"/>
      <point x="328" y="31"/>
      <point x="209" y="72"/>
      <point x="127" y="119" type="curve"/>
      <point x="127" y="53" type="line"/>
      <point x="199" y="14"/>
      <point x="319" y="-20"/>
    </contour>
  </outline>
</glyph>
<glyph name="uni01BD" format="2">
  <advance width="762"/>
  <unicode hex="01BD"/>
  <anchor x="266" y="0" name="bottom"/>
  <anchor x="496" y="1081" name="top"/>
  <outline>
    <contour>
      <point x="250" y="-14" type="curve" smooth="yes"/>
      <point x="565" y="-14"/>
      <point x="645" y="180"/>
      <point x="645" y="352" type="curve" smooth="yes"/>
      <point x="645" y="518"/>
      <point x="553" y="625"/>
      <point x="344" y="625" type="curve" smooth="yes"/>
      <point x="219" y="625" type="line"/>
      <point x="307" y="1030" type="line"/>
      <point x="735" y="1030" type="line"/>
      <point x="745" y="1081" type="line"/>
      <point x="117" y="1081" type="line"/>
      <point x="106" y="1030" type="line"/>
      <point x="254" y="1030" type="line"/>
      <point x="156" y="573" type="line"/>
      <point x="330" y="573" type="line" smooth="yes"/>
      <point x="520" y="573"/>
      <point x="590" y="481"/>
      <point x="590" y="348" type="curve" smooth="yes"/>
      <point x="590" y="199"/>
      <point x="522" y="37"/>
      <point x="248" y="37" type="curve" smooth="yes"/>
      <point x="129" y="37"/>
      <point x="27" y="72"/>
      <point x="-33" y="104" type="curve"/>
      <point x="-33" y="45" type="line"/>
      <point x="27" y="16"/>
      <point x="111" y="-14"/>
    </contour>
  </outline>
</glyph>
<glyph name="uni01C2" format="2">
  <advance width="1008"/>
  <unicode hex="01C2"/>
  <anchor x="383" y="0" name="bottom"/>
  <anchor x="715" y="1556" name="top"/>
  <outline>
    <contour>
      <point x="358" y="0" type="line"/>
      <point x="412" y="0" type="line"/>
      <point x="541" y="604" type="line"/>
      <point x="807" y="604" type="line"/>
      <point x="817" y="655" type="line"/>
      <point x="551" y="655" type="line"/>
      <point x="604" y="899" type="line"/>
      <point x="870" y="899" type="line"/>
      <point x="881" y="950" type="line"/>
      <point x="614" y="950" type="line"/>
      <point x="743" y="1556" type="line"/>
      <point x="690" y="1556" type="line"/>
      <point x="561" y="950" type="line"/>
      <point x="299" y="950" type="line"/>
      <point x="289" y="899" type="line"/>
      <point x="551" y="899" type="line"/>
      <point x="498" y="655" type="line"/>
      <point x="236" y="655" type="line"/>
      <point x="225" y="604" type="line"/>
      <point x="487" y="604" type="line"/>
    </contour>
  </outline>
</glyph>
<glyph name="uni01E4" format="2">
  <advance width="1366"/>
  <unicode hex="01E4"/>
  <anchor x="569" y="0" name="bottom"/>
  <anchor x="881" y="1462" name="top"/>
  <outline>
    <contour>
      <point x="682" y="-20" type="curve" smooth="yes"/>
      <point x="831" y="-20"/>
      <point x="997" y="10"/>
      <point x="1135" y="74" type="curve"/>
      <point x="1192" y="346" type="line"/>
      <point x="1298" y="346" type="line"/>
      <point x="1309" y="397" type="line"/>
      <point x="1204" y="397" type="line"/>
      <point x="1272" y="717" type="line"/>
      <point x="807" y="717" type="line"/>
      <point x="795" y="666" type="line"/>
      <point x="1206" y="666" type="line"/>
      <point x="1149" y="397" type="line"/>
      <point x="743" y="397" type="line"/>
      <point x="733" y="346" type="line"/>
      <point x="1139" y="346" type="line"/>
      <point x="1087" y="109" type="line"/>
      <point x="981" y="63"/>
      <point x="829" y="31"/>
      <point x="684" y="31" type="curve" smooth="yes"/>
      <point x="418" y="31"/>
      <point x="225" y="199"/>
      <point x="225" y="547" type="curve" smooth="yes"/>
      <point x="225" y="1085"/>
      <point x="561" y="1432"/>
      <point x="948" y="1432" type="curve" smooth="yes"/>
      <point x="1087" y="1432"/>
      <point x="1221" y="1399"/>
      <point x="1337" y="1346" type="curve"/>
      <point x="1360" y="1397" type="line"/>
      <point x="1239" y="1450"/>
      <point x="1104" y="1483"/>
      <point x="950" y="1483" type="curve" smooth="yes"/>
      <point x="537" y="1483"/>
      <point x="172" y="1122"/>
      <point x="172" y="547" type="curve" smooth="yes"/>
      <point x="172" y="199"/>
      <point x="354" y="-20"/>
    </contour>
  </outline>
</glyph>
<glyph name="Aringacute" format="2">
  <advance width="1120"/>
  <unicode hex="01FA"/>
  <anchor x="446" y="0" name="bottom"/>
  <anchor x="885" y="2060" name="top"/>
  <outline>
    <contour>
      <point x="-102" y="0" type="line"/>
      <point x="-45" y="0" type="line"/>
      <point x="291" y="555" type="line"/>
      <point x="868" y="555" type="line"/>
      <point x="969" y="0" type="line"/>
      <point x="1020" y="0" type="line"/>
      <point x="803" y="1272" type="line"/>
      <point x="899" y="1288"/>
      <point x="973" y="1366"/>
      <point x="973" y="1475" type="curve" smooth="yes"/>
      <point x="973" y="1587"/>
      <point x="881" y="1679"/>
      <point x="768" y="1679" type="curve" smooth="yes"/>
      <point x="655" y="1679"/>
      <point x="561" y="1591"/>
      <point x="561" y="1475" type="curve" smooth="yes"/>
      <point x="561" y="1391"/>
      <point x="606" y="1325"/>
      <point x="672" y="1292" type="curve"/>
    </contour>
    <contour>
      <point x="319" y="606" type="line"/>
      <point x="641" y="1145" type="line" smooth="yes"/>
      <point x="672" y="1194"/>
      <point x="698" y="1243"/>
      <point x="717" y="1276" type="curve"/>
      <point x="756" y="1270" type="line"/>
      <point x="760" y="1233"/>
      <point x="766" y="1186"/>
      <point x="772" y="1145" type="curve" smooth="yes"/>
      <point x="860" y="606" type="line"/>
    </contour>
    <contour>
      <point x="768" y="1319" type="curve" smooth="yes"/>
      <point x="676" y="1319"/>
      <point x="610" y="1389"/>
      <point x="610" y="1475" type="curve" smooth="yes"/>
      <point x="610" y="1561"/>
      <point x="678" y="1630"/>
      <point x="768" y="1630" type="curve" smooth="yes"/>
      <point x="852" y="1630"/>
      <point x="924" y="1561"/>
      <point x="924" y="1475" type="curve" smooth="yes"/>
      <point x="924" y="1389"/>
      <point x="860" y="1319"/>
    </contour>
    <contour>
      <point x="774" y="1733" type="line"/>
      <point x="817" y="1733" type="line"/>
      <point x="926" y="1823"/>
      <point x="1049" y="1954"/>
      <point x="1120" y="2046" type="curve"/>
      <point x="1120" y="2060" type="line"/>
      <point x="1059" y="2060" type="line"/>
      <point x="999" y="1972"/>
      <point x="866" y="1827"/>
      <point x="774" y="1745" type="curve"/>
    </contour>
  </outline>
</glyph>
<glyph name="aringacute" format="2">
  <advance width="1120"/>
  <unicode hex="01FB"/>
  <anchor x="446" y="0" name="bottom"/>
  <anchor x="872" y="2003" name="top"/>
  <outline>
    <contour>
      <point x="403" y="-20" type="curve" smooth="yes"/>
      <point x="596" y="-20"/>
      <point x="756" y="160"/>
      <point x="825" y="285" type="curve"/>
      <point x="829" y="285" type="line"/>
      <point x="772" y="0" type="line"/>
      <point x="817" y="0" type="line"/>
      <point x="1047" y="1081" type="line"/>
      <point x="1001" y="1081" type="line"/>
      <point x="946" y="834" type="line"/>
      <point x="942" y="834" type="line"/>
      <point x="922" y="952"/>
      <point x="846" y="1102"/>
      <point x="653" y="1102" type="curve" smooth="yes"/>
      <point x="291" y="1102"/>
      <point x="104" y="698"/>
      <point x="104" y="365" type="curve" smooth="yes"/>
      <point x="104" y="133"/>
      <point x="207" y="-20"/>
    </contour>
    <contour>
      <point x="410" y="31" type="curve" smooth="yes"/>
      <point x="242" y="31"/>
      <point x="160" y="160"/>
      <point x="160" y="365" type="curve" smooth="yes"/>
      <point x="160" y="688"/>
      <point x="332" y="1051"/>
      <point x="651" y="1051" type="curve" smooth="yes"/>
      <point x="809" y="1051"/>
      <point x="905" y="936"/>
      <point x="905" y="733" type="curve" smooth="yes"/>
      <point x="905" y="682"/>
      <point x="897" y="625"/>
      <point x="881" y="541" type="curve" smooth="yes"/>
      <point x="823" y="252"/>
      <point x="596" y="31"/>
    </contour>
    <contour>
      <point x="733" y="1188" type="curve" smooth="yes"/>
      <point x="846" y="1188"/>
      <point x="938" y="1272"/>
      <point x="938" y="1393" type="curve" smooth="yes"/>
      <point x="938" y="1505"/>
      <point x="846" y="1597"/>
      <point x="733" y="1597" type="curve" smooth="yes"/>
      <point x="621" y="1597"/>
      <point x="526" y="1509"/>
      <point x="526" y="1393" type="curve" smooth="yes"/>
      <point x="526" y="1270"/>
      <point x="623" y="1188"/>
    </contour>
    <contour>
      <point x="733" y="1237" type="curve" smooth="yes"/>
      <point x="641" y="1237"/>
      <point x="575" y="1307"/>
      <point x="575" y="1393" type="curve" smooth="yes"/>
      <point x="575" y="1479"/>
      <point x="643" y="1548"/>
      <point x="733" y="1548" type="curve" smooth="yes"/>
      <point x="817" y="1548"/>
      <point x="889" y="1479"/>
      <point x="889" y="1393" type="curve" smooth="yes"/>
      <point x="889" y="1307"/>
      <point x="825" y="1237"/>
    </contour>
    <contour>
      <point x="707" y="1675" type="line"/>
      <point x="750" y="1675" type="line"/>
      <point x="858" y="1765"/>
      <point x="981" y="1896"/>
      <point x="1053" y="1989" type="curve"/>
      <point x="1053" y="2003" type="line"/>
      <point x="991" y="2003" type="line"/>
      <point x="932" y="1915"/>
      <point x="799" y="1769"/>
      <point x="707" y="1688" type="curve"/>
    </contour>
  </outline>
</glyph>
<glyph name="uni021D" format="2">
  <advance width="952"/>
  <unicode hex="021D"/>
  <anchor x="303" y="-395" name="bottom"/>
  <anchor x="569" y="1081" name="top"/>
  <outline>
    <contour>
      <point x="-137" y="-494" type="line"/>
      <point x="324" y="-395"/>
      <point x="780" y="-258"/>
      <point x="780" y="158" type="curve" smooth="yes"/>
      <point x="780" y="313"/>
      <point x="684" y="410"/>
      <point x="594" y="455" type="curve"/>
      <point x="768" y="524"/>
      <point x="893" y="641"/>
      <point x="893" y="840" type="curve" smooth="yes"/>
      <point x="893" y="1008"/>
      <point x="760" y="1104"/>
      <point x="569" y="1104" type="curve" smooth="yes"/>
      <point x="438" y="1104"/>
      <point x="319" y="1067"/>
      <point x="213" y="1018" type="curve"/>
      <point x="229" y="973" type="line"/>
      <point x="328" y="1018"/>
      <point x="449" y="1053"/>
      <point x="565" y="1053" type="curve" smooth="yes"/>
      <point x="707" y="1053"/>
      <point x="840" y="985"/>
      <point x="840" y="831" type="curve" smooth="yes"/>
      <point x="840" y="561"/>
      <point x="573" y="477"/>
      <point x="268" y="397" type="curve"/>
      <point x="268" y="350" type="line"/>
      <point x="367" y="375"/>
      <point x="457" y="401"/>
      <point x="535" y="430" type="curve"/>
      <point x="655" y="373"/>
      <point x="725" y="283"/>
      <point x="725" y="156" type="curve" smooth="yes"/>
      <point x="725" y="-217"/>
      <point x="303" y="-342"/>
      <point x="-125" y="-440" type="curve"/>
    </contour>
  </outline>
</glyph>
<glyph name="uni0220" format="2">
  <advance width="1202"/>
  <unicode hex="0220"/>
  <anchor x="383" y="-492" name="bottom"/>
  <anchor x="799" y="1462" name="top"/>
  <outline>
    <contour>
      <point x="739" y="-492" type="line"/>
      <point x="793" y="-492" type="line"/>
      <point x="1114" y="963" type="line" smooth="yes"/>
      <point x="1128" y="1026"/>
      <point x="1143" y="1114"/>
      <point x="1143" y="1192" type="curve" smooth="yes"/>
      <point x="1143" y="1380"/>
      <point x="1032" y="1481"/>
      <point x="819" y="1481" type="curve" smooth="yes"/>
      <point x="596" y="1481"/>
      <point x="504" y="1397"/>
      <point x="449" y="1309" type="curve"/>
      <point x="444" y="1309" type="line"/>
      <point x="465" y="1462" type="line"/>
      <point x="424" y="1462" type="line"/>
      <point x="115" y="0" type="line"/>
      <point x="168" y="0" type="line"/>
      <point x="383" y="1018" type="line" smooth="yes"/>
      <point x="453" y="1352"/>
      <point x="596" y="1430"/>
      <point x="807" y="1430" type="curve" smooth="yes"/>
      <point x="995" y="1430"/>
      <point x="1087" y="1350"/>
      <point x="1087" y="1188" type="curve" smooth="yes"/>
      <point x="1087" y="1114"/>
      <point x="1077" y="1049"/>
      <point x="1059" y="963" type="curve" smooth="yes"/>
    </contour>
  </outline>
</glyph>
<glyph name="uni0221" format="2">
  <advance width="1823"/>
  <unicode hex="0221"/>
  <anchor x="752" y="-215" name="bottom"/>
  <anchor x="1126" y="1556" name="top"/>
  <outline>
    <contour>
      <point x="944" y="-215" type="line"/>
      <point x="956" y="-139"/>
      <point x="981" y="-41"/>
      <point x="1004" y="14" type="curve"/>
      <point x="1055" y="4"/>
      <point x="1141" y="-10"/>
      <point x="1264" y="-10" type="curve" smooth="yes"/>
      <point x="1497" y="-10"/>
      <point x="1622" y="76"/>
      <point x="1622" y="219" type="curve" smooth="yes"/>
      <point x="1622" y="338"/>
      <point x="1544" y="406"/>
      <point x="1403" y="406" type="curve" smooth="yes"/>
      <point x="1206" y="406"/>
      <point x="1063" y="287"/>
      <point x="973" y="82" type="curve"/>
      <point x="938" y="100"/>
      <point x="911" y="127"/>
      <point x="913" y="209" type="curve" smooth="yes"/>
      <point x="915" y="250"/>
      <point x="922" y="305"/>
      <point x="938" y="381" type="curve" smooth="yes"/>
      <point x="1188" y="1556" type="line"/>
      <point x="1135" y="1556" type="line"/>
      <point x="1040" y="1112" type="line" smooth="yes"/>
      <point x="1022" y="1026"/>
      <point x="1001" y="926"/>
      <point x="987" y="834" type="curve"/>
      <point x="983" y="834" type="line"/>
      <point x="965" y="958"/>
      <point x="870" y="1102"/>
      <point x="664" y="1102" type="curve" smooth="yes"/>
      <point x="285" y="1102"/>
      <point x="104" y="696"/>
      <point x="104" y="365" type="curve" smooth="yes"/>
      <point x="104" y="133"/>
      <point x="201" y="-20"/>
      <point x="412" y="-20" type="curve" smooth="yes"/>
      <point x="621" y="-20"/>
      <point x="780" y="147"/>
      <point x="866" y="289" type="curve"/>
      <point x="870" y="289" type="line"/>
      <point x="846" y="154"/>
      <point x="872" y="74"/>
      <point x="952" y="33" type="curve"/>
      <point x="924" y="-41"/>
      <point x="903" y="-125"/>
      <point x="887" y="-215" type="curve"/>
    </contour>
    <contour>
      <point x="416" y="31" type="curve" smooth="yes"/>
      <point x="244" y="31"/>
      <point x="160" y="154"/>
      <point x="160" y="365" type="curve" smooth="yes"/>
      <point x="160" y="686"/>
      <point x="326" y="1051"/>
      <point x="662" y="1051" type="curve" smooth="yes"/>
      <point x="829" y="1051"/>
      <point x="948" y="946"/>
      <point x="948" y="733" type="curve" smooth="yes"/>
      <point x="948" y="354"/>
      <point x="676" y="31"/>
    </contour>
    <contour>
      <point x="1262" y="41" type="curve" smooth="yes"/>
      <point x="1165" y="41"/>
      <point x="1083" y="53"/>
      <point x="1026" y="66" type="curve"/>
      <point x="1094" y="223"/>
      <point x="1210" y="354"/>
      <point x="1405" y="354" type="curve" smooth="yes"/>
      <point x="1516" y="354"/>
      <point x="1567" y="301"/>
      <point x="1567" y="219" type="curve" smooth="yes"/>
      <point x="1567" y="115"/>
      <point x="1487" y="41"/>
    </contour>
  </outline>
</glyph>
<glyph name="uni0222" format="2">
  <advance width="1319"/>
  <unicode hex="0222"/>
  <anchor x="545" y="0" name="bottom"/>
  <anchor x="856" y="1462" name="top"/>
  <outline>
    <contour>
      <point x="596" y="-16" type="curve" smooth="yes"/>
      <point x="950" y="-16"/>
      <point x="1149" y="203"/>
      <point x="1149" y="502" type="curve" smooth="yes"/>
      <point x="1149" y="750"/>
      <point x="1001" y="860"/>
      <point x="877" y="893" type="curve"/>
      <point x="1061" y="928"/>
      <point x="1133" y="1022"/>
      <point x="1196" y="1300" type="curve" smooth="yes"/>
      <point x="1233" y="1462" type="line"/>
      <point x="1180" y="1462" type="line"/>
      <point x="1143" y="1296" type="line" smooth="yes"/>
      <point x="1079" y="1014"/>
      <point x="1004" y="924"/>
      <point x="711" y="924" type="curve" smooth="yes"/>
      <point x="510" y="924"/>
      <point x="403" y="989"/>
      <point x="403" y="1143" type="curve" smooth="yes"/>
      <point x="403" y="1186"/>
      <point x="408" y="1233"/>
      <point x="422" y="1294" type="curve" smooth="yes"/>
      <point x="459" y="1462" type="line"/>
      <point x="406" y="1462" type="line"/>
      <point x="369" y="1290" type="line" smooth="yes"/>
      <point x="354" y="1227"/>
      <point x="350" y="1186"/>
      <point x="350" y="1137" type="curve" smooth="yes"/>
      <point x="350" y="1014"/>
      <point x="416" y="932"/>
      <point x="539" y="901" type="curve"/>
      <point x="305" y="860"/>
      <point x="135" y="680"/>
      <point x="135" y="397" type="curve" smooth="yes"/>
      <point x="135" y="119"/>
      <point x="297" y="-16"/>
    </contour>
    <contour>
      <point x="598" y="37" type="curve" smooth="yes"/>
      <point x="322" y="37"/>
      <point x="190" y="162"/>
      <point x="190" y="403" type="curve" smooth="yes"/>
      <point x="190" y="692"/>
      <point x="375" y="872"/>
      <point x="684" y="872" type="curve" smooth="yes"/>
      <point x="977" y="872"/>
      <point x="1094" y="713"/>
      <point x="1094" y="500" type="curve" smooth="yes"/>
      <point x="1094" y="233"/>
      <point x="930" y="37"/>
    </contour>
  </outline>
</glyph>
<glyph name="uni0235" format="2">
  <advance width="1364"/>
  <unicode hex="0235"/>
  <anchor x="567" y="0" name="bottom"/>
  <anchor x="797" y="1081" name="top"/>
  <outline>
    <contour>
      <point x="752" y="-45" type="line"/>
      <point x="768" y="18"/>
      <point x="809" y="115"/>
      <point x="852" y="170" type="curve"/>
      <point x="864" y="49"/>
      <point x="936" y="-20"/>
      <point x="1053" y="-20" type="curve" smooth="yes"/>
      <point x="1176" y="-20"/>
      <point x="1257" y="55"/>
      <point x="1257" y="184" type="curve" smooth="yes"/>
      <point x="1257" y="293"/>
      <point x="1180" y="354"/>
      <point x="1077" y="354" type="curve" smooth="yes"/>
      <point x="1004" y="354"/>
      <point x="940" y="319"/>
      <point x="905" y="289" type="curve"/>
      <point x="993" y="700" type="line" smooth="yes"/>
      <point x="1004" y="748"/>
      <point x="1010" y="797"/>
      <point x="1010" y="836" type="curve" smooth="yes"/>
      <point x="1010" y="1010"/>
      <point x="911" y="1102"/>
      <point x="733" y="1102" type="curve" smooth="yes"/>
      <point x="514" y="1102"/>
      <point x="354" y="926"/>
      <point x="287" y="797" type="curve"/>
      <point x="283" y="797" type="line"/>
      <point x="340" y="1081" type="line"/>
      <point x="295" y="1081" type="line"/>
      <point x="66" y="0" type="line"/>
      <point x="119" y="0" type="line"/>
      <point x="238" y="561" type="line" smooth="yes"/>
      <point x="291" y="815"/>
      <point x="498" y="1051"/>
      <point x="725" y="1051" type="curve" smooth="yes"/>
      <point x="870" y="1051"/>
      <point x="956" y="981"/>
      <point x="956" y="827" type="curve" smooth="yes"/>
      <point x="956" y="793"/>
      <point x="952" y="752"/>
      <point x="942" y="707" type="curve" smooth="yes"/>
      <point x="858" y="311" type="line" smooth="yes"/>
      <point x="854" y="289"/>
      <point x="850" y="264"/>
      <point x="848" y="242" type="curve"/>
      <point x="780" y="166"/>
      <point x="729" y="66"/>
      <point x="698" y="-29" type="curve"/>
    </contour>
    <contour>
      <point x="1053" y="31" type="curve" smooth="yes"/>
      <point x="963" y="31"/>
      <point x="899" y="98"/>
      <point x="899" y="219" type="curve"/>
      <point x="936" y="264"/>
      <point x="995" y="303"/>
      <point x="1075" y="303" type="curve" smooth="yes"/>
      <point x="1151" y="303"/>
      <point x="1202" y="252"/>
      <point x="1202" y="182" type="curve" smooth="yes"/>
      <point x="1202" y="86"/>
      <point x="1149" y="31"/>
    </contour>
  </outline>
</glyph>
<glyph name="uni0236" format="2">
  <advance width="631"/>
  <unicode hex="0236"/>
  <anchor x="201" y="0" name="bottom"/>
  <anchor x="487" y="1350" name="top"/>
  <outline>
    <contour>
      <point x="18" y="-45" type="line"/>
      <point x="35" y="18"/>
      <point x="76" y="115"/>
      <point x="119" y="170" type="curve"/>
      <point x="131" y="49"/>
      <point x="203" y="-20"/>
      <point x="319" y="-20" type="curve" smooth="yes"/>
      <point x="442" y="-20"/>
      <point x="524" y="55"/>
      <point x="524" y="184" type="curve" smooth="yes"/>
      <point x="524" y="293"/>
      <point x="446" y="354"/>
      <point x="344" y="354" type="curve" smooth="yes"/>
      <point x="270" y="354"/>
      <point x="207" y="319"/>
      <point x="172" y="289" type="curve"/>
      <point x="330" y="1030" type="line"/>
      <point x="664" y="1030" type="line"/>
      <point x="676" y="1081" type="line"/>
      <point x="342" y="1081" type="line"/>
      <point x="399" y="1350" type="line"/>
      <point x="356" y="1350" type="line"/>
      <point x="287" y="1081" type="line"/>
      <point x="129" y="1075" type="line"/>
      <point x="119" y="1030" type="line"/>
      <point x="276" y="1030" type="line"/>
      <point x="125" y="311" type="line" smooth="yes"/>
      <point x="121" y="289"/>
      <point x="117" y="264"/>
      <point x="115" y="242" type="curve"/>
      <point x="47" y="166"/>
      <point x="-4" y="66"/>
      <point x="-35" y="-29" type="curve"/>
    </contour>
    <contour>
      <point x="319" y="31" type="curve" smooth="yes"/>
      <point x="229" y="31"/>
      <point x="166" y="98"/>
      <point x="166" y="219" type="curve"/>
      <point x="203" y="264"/>
      <point x="262" y="303"/>
      <point x="342" y="303" type="curve" smooth="yes"/>
      <point x="418" y="303"/>
      <point x="469" y="252"/>
      <point x="469" y="182" type="curve" smooth="yes"/>
      <point x="469" y="86"/>
      <point x="416" y="31"/>
    </contour>
  </outline>
</glyph>
<glyph name="uni023D" format="2">
  <advance width="1006"/>
  <unicode hex="023D"/>
  <anchor x="389" y="0" name="bottom"/>
  <anchor x="700" y="1462" name="top"/>
  <outline>
    <contour>
      <point x="102" y="0" type="line"/>
      <point x="831" y="0" type="line"/>
      <point x="842" y="51" type="line"/>
      <point x="168" y="51" type="line"/>
      <point x="303" y="692" type="line"/>
      <point x="645" y="692" type="line"/>
      <point x="657" y="743" type="line"/>
      <point x="315" y="743" type="line"/>
      <point x="467" y="1462" type="line"/>
      <point x="412" y="1462" type="line"/>
      <point x="260" y="743" type="line"/>
      <point x="78" y="743" type="line"/>
      <point x="68" y="692" type="line"/>
      <point x="248" y="692" type="line"/>
    </contour>
  </outline>
</glyph>
<glyph name="uni023F" format="2">
  <advance width="866"/>
  <unicode hex="023F"/>
  <anchor x="215" y="-492" name="bottom"/>
  <anchor x="549" y="1081" name="top"/>
  <outline>
    <contour>
      <point x="504" y="-492" type="curve" smooth="yes"/>
      <point x="565" y="-492"/>
      <point x="606" y="-477"/>
      <point x="629" y="-467" type="curve"/>
      <point x="629" y="-416" type="line"/>
      <point x="596" y="-430"/>
      <point x="561" y="-440"/>
      <point x="512" y="-440" type="curve" smooth="yes"/>
      <point x="403" y="-440"/>
      <point x="352" y="-379"/>
      <point x="332" y="-207" type="curve" smooth="yes"/>
      <point x="317" y="-92"/>
      <point x="299" y="-43"/>
      <point x="276" y="-18" type="curve"/>
      <point x="563" y="-20"/>
      <point x="707" y="72"/>
      <point x="707" y="295" type="curve" smooth="yes"/>
      <point x="707" y="451"/>
      <point x="573" y="516"/>
      <point x="446" y="584" type="curve" smooth="yes"/>
      <point x="330" y="645"/>
      <point x="219" y="702"/>
      <point x="219" y="817" type="curve" smooth="yes"/>
      <point x="219" y="999"/>
      <point x="389" y="1051"/>
      <point x="518" y="1051" type="curve" smooth="yes"/>
      <point x="621" y="1051"/>
      <point x="729" y="1024"/>
      <point x="799" y="989" type="curve"/>
      <point x="815" y="1038" type="line"/>
      <point x="743" y="1075"/>
      <point x="643" y="1102"/>
      <point x="520" y="1102" type="curve" smooth="yes"/>
      <point x="358" y="1102"/>
      <point x="164" y="1032"/>
      <point x="164" y="813" type="curve" smooth="yes"/>
      <point x="164" y="670"/>
      <point x="295" y="602"/>
      <point x="422" y="535" type="curve" smooth="yes"/>
      <point x="539" y="473"/>
      <point x="651" y="418"/>
      <point x="651" y="293" type="curve" smooth="yes"/>
      <point x="651" y="123"/>
      <point x="553" y="31"/>
      <point x="311" y="31" type="curve" smooth="yes"/>
      <point x="203" y="31"/>
      <point x="102" y="66"/>
      <point x="25" y="115" type="curve"/>
      <point x="25" y="55" type="line"/>
      <point x="72" y="27"/>
      <point x="137" y="6"/>
      <point x="182" y="-6" type="curve" smooth="yes"/>
      <point x="244" y="-23"/>
      <point x="262" y="-70"/>
      <point x="281" y="-217" type="curve" smooth="yes"/>
      <point x="303" y="-401"/>
      <point x="369" y="-492"/>
    </contour>
  </outline>
</glyph>
<glyph name="uni0246" format="2">
  <advance width="1096"/>
  <unicode hex="0246"/>
  <anchor x="430" y="0" name="bottom"/>
  <anchor x="741" y="1462" name="top"/>
  <outline>
    <contour>
      <point x="231" y="-154" type="line"/>
      <point x="274" y="-154" type="line"/>
      <point x="1040" y="1556" type="line"/>
      <point x="997" y="1556" type="line"/>
    </contour>
    <component base="E" xOffset="-4"/>
  </outline>
</glyph>
<glyph name="uni024A" format="2">
  <advance width="1411"/>
  <unicode hex="024A"/>
  <anchor x="487" y="-492" name="bottom"/>
  <anchor x="903" y="1462" name="top"/>
  <outline>
    <contour>
      <point x="1053" y="-492" type="curve" smooth="yes"/>
      <point x="1094" y="-492"/>
      <point x="1122" y="-481"/>
      <point x="1143" y="-471" type="curve"/>
      <point x="1143" y="-420" type="line"/>
      <point x="1122" y="-430"/>
      <point x="1092" y="-440"/>
      <point x="1053" y="-440" type="curve" smooth="yes"/>
      <point x="1014" y="-440"/>
      <point x="995" y="-414"/>
      <point x="995" y="-383" type="curve" smooth="yes"/>
      <point x="995" y="-358"/>
      <point x="1001" y="-334"/>
      <point x="1008" y="-303" type="curve" smooth="yes"/>
      <point x="1380" y="1462" type="line"/>
      <point x="1335" y="1462" type="line"/>
      <point x="1278" y="1214" type="line"/>
      <point x="1274" y="1214" type="line"/>
      <point x="1245" y="1350"/>
      <point x="1106" y="1483"/>
      <point x="885" y="1483" type="curve" smooth="yes"/>
      <point x="426" y="1483"/>
      <point x="178" y="1014"/>
      <point x="178" y="565" type="curve" smooth="yes"/>
      <point x="178" y="246"/>
      <point x="268" y="-20"/>
      <point x="629" y="-20" type="curve" smooth="yes"/>
      <point x="838" y="-20"/>
      <point x="1004" y="135"/>
      <point x="1073" y="260" type="curve"/>
      <point x="1077" y="260" type="line"/>
      <point x="1057" y="184"/>
      <point x="1038" y="98"/>
      <point x="1018" y="0" type="curve" smooth="yes"/>
      <point x="954" y="-301" type="line" smooth="yes"/>
      <point x="948" y="-330"/>
      <point x="942" y="-367"/>
      <point x="942" y="-385" type="curve" smooth="yes"/>
      <point x="942" y="-449"/>
      <point x="979" y="-492"/>
    </contour>
    <contour>
      <point x="639" y="31" type="curve" smooth="yes"/>
      <point x="328" y="31"/>
      <point x="233" y="252"/>
      <point x="233" y="567" type="curve" smooth="yes"/>
      <point x="233" y="922"/>
      <point x="426" y="1432"/>
      <point x="885" y="1432" type="curve" smooth="yes"/>
      <point x="1067" y="1432"/>
      <point x="1237" y="1317"/>
      <point x="1237" y="1114" type="curve" smooth="yes"/>
      <point x="1237" y="1071"/>
      <point x="1235" y="1024"/>
      <point x="1221" y="961" type="curve" smooth="yes"/>
      <point x="1126" y="516" type="line" smooth="yes"/>
      <point x="1065" y="225"/>
      <point x="838" y="31"/>
    </contour>
  </outline>
</glyph>
<glyph name="uni024E" format="2">
  <advance width="993"/>
  <unicode hex="024E"/>
  <anchor x="383" y="0" name="bottom"/>
  <anchor x="694" y="1462" name="top"/>
  <outline>
    <contour>
      <point x="356" y="0" type="line"/>
      <point x="412" y="0" type="line"/>
      <point x="530" y="563" type="line"/>
      <point x="944" y="1133" type="line"/>
      <point x="1102" y="1133" type="line"/>
      <point x="1114" y="1184" type="line"/>
      <point x="981" y="1184" type="line"/>
      <point x="1184" y="1462" type="line"/>
      <point x="1120" y="1462" type="line"/>
      <point x="920" y="1184" type="line"/>
      <point x="336" y="1184" type="line"/>
      <point x="252" y="1462" type="line"/>
      <point x="197" y="1462" type="line"/>
      <point x="281" y="1184" type="line"/>
      <point x="160" y="1184" type="line"/>
      <point x="150" y="1133" type="line"/>
      <point x="297" y="1133" type="line"/>
      <point x="473" y="555" type="line"/>
    </contour>
    <contour>
      <point x="510" y="616" type="line"/>
      <point x="352" y="1133" type="line"/>
      <point x="883" y="1133" type="line"/>
    </contour>
  </outline>
</glyph>
<glyph name="uni0250" format="2">
  <advance width="981"/>
  <unicode hex="0250"/>
  <anchor x="377" y="0" name="bottom"/>
  <anchor x="606" y="1081" name="top"/>
  <outline>
    <contour>
      <point x="375" y="-18" type="curve" smooth="yes"/>
      <point x="502" y="-18"/>
      <point x="588" y="10"/>
      <point x="700" y="59" type="curve"/>
      <point x="705" y="119" type="line"/>
      <point x="604" y="70"/>
      <point x="500" y="33"/>
      <point x="377" y="33" type="curve" smooth="yes"/>
      <point x="233" y="33"/>
      <point x="166" y="106"/>
      <point x="166" y="233" type="curve" smooth="yes"/>
      <point x="166" y="281"/>
      <point x="172" y="328"/>
      <point x="184" y="385" type="curve" smooth="yes"/>
      <point x="203" y="471" type="line"/>
      <point x="399" y="475" type="line" smooth="yes"/>
      <point x="821" y="483"/>
      <point x="930" y="670"/>
      <point x="930" y="858" type="curve" smooth="yes"/>
      <point x="930" y="1010"/>
      <point x="842" y="1106"/>
      <point x="668" y="1106" type="curve" smooth="yes"/>
      <point x="489" y="1106"/>
      <point x="365" y="1008"/>
      <point x="295" y="881" type="curve"/>
      <point x="291" y="881" type="line"/>
      <point x="326" y="1081" type="line"/>
      <point x="283" y="1081" type="line"/>
      <point x="131" y="385" type="line" smooth="yes"/>
      <point x="119" y="328"/>
      <point x="113" y="274"/>
      <point x="113" y="229" type="curve" smooth="yes"/>
      <point x="113" y="78"/>
      <point x="193" y="-18"/>
    </contour>
    <contour>
      <point x="213" y="522" type="line"/>
      <point x="238" y="633" type="line" smooth="yes"/>
      <point x="291" y="872"/>
      <point x="436" y="1055"/>
      <point x="666" y="1055" type="curve" smooth="yes"/>
      <point x="809" y="1055"/>
      <point x="874" y="975"/>
      <point x="874" y="858" type="curve" smooth="yes"/>
      <point x="874" y="702"/>
      <point x="797" y="535"/>
      <point x="401" y="526" type="curve" smooth="yes"/>
    </contour>
  </outline>
</glyph>
<glyph name="uni0254" format="2">
  <advance width="926"/>
  <unicode hex="0254"/>
  <anchor x="348" y="0" name="bottom"/>
  <anchor x="578" y="1081" name="top"/>
  <outline>
    <contour>
      <point x="272" y="-20" type="curve" smooth="yes"/>
      <point x="639" y="-20"/>
      <point x="846" y="309"/>
      <point x="846" y="684" type="curve" smooth="yes"/>
      <point x="846" y="922"/>
      <point x="707" y="1102"/>
      <point x="453" y="1102" type="curve" smooth="yes"/>
      <point x="340" y="1102"/>
      <point x="256" y="1075"/>
      <point x="190" y="1042" type="curve"/>
      <point x="190" y="989" type="line"/>
      <point x="274" y="1028"/>
      <point x="352" y="1051"/>
      <point x="451" y="1051" type="curve" smooth="yes"/>
      <point x="676" y="1051"/>
      <point x="791" y="885"/>
      <point x="791" y="680" type="curve" smooth="yes"/>
      <point x="791" y="322"/>
      <point x="592" y="31"/>
      <point x="272" y="31" type="curve" smooth="yes"/>
      <point x="199" y="31"/>
      <point x="104" y="45"/>
      <point x="37" y="80" type="curve"/>
      <point x="20" y="29" type="line"/>
      <point x="86" y="-4"/>
      <point x="180" y="-20"/>
    </contour>
  </outline>
</glyph>
<glyph name="uni0255" format="2">
  <advance width="926"/>
  <unicode hex="0255"/>
  <anchor x="348" y="0" name="bottom"/>
  <anchor x="578" y="1081" name="top"/>
  <outline>
    <contour>
      <point x="129" y="-162" type="line"/>
      <point x="164" y="-66"/>
      <point x="207" y="18"/>
      <point x="242" y="74" type="curve"/>
      <point x="295" y="23"/>
      <point x="387" y="-18"/>
      <point x="498" y="-18" type="curve" smooth="yes"/>
      <point x="662" y="-18"/>
      <point x="776" y="55"/>
      <point x="776" y="190" type="curve" smooth="yes"/>
      <point x="776" y="293"/>
      <point x="711" y="354"/>
      <point x="586" y="354" type="curve" smooth="yes"/>
      <point x="440" y="354"/>
      <point x="328" y="276"/>
      <point x="238" y="160" type="curve"/>
      <point x="190" y="225"/>
      <point x="168" y="309"/>
      <point x="168" y="401" type="curve" smooth="yes"/>
      <point x="168" y="760"/>
      <point x="367" y="1051"/>
      <point x="686" y="1051" type="curve" smooth="yes"/>
      <point x="760" y="1051"/>
      <point x="854" y="1036"/>
      <point x="922" y="1001" type="curve"/>
      <point x="938" y="1053" type="line"/>
      <point x="872" y="1085"/>
      <point x="778" y="1102"/>
      <point x="686" y="1102" type="curve" smooth="yes"/>
      <point x="319" y="1102"/>
      <point x="113" y="772"/>
      <point x="113" y="397" type="curve" smooth="yes"/>
      <point x="113" y="285"/>
      <point x="147" y="184"/>
      <point x="205" y="113" type="curve"/>
      <point x="154" y="37"/>
      <point x="113" y="-51"/>
      <point x="76" y="-143" type="curve"/>
    </contour>
    <contour>
      <point x="506" y="33" type="curve" smooth="yes"/>
      <point x="410" y="33"/>
      <point x="322" y="70"/>
      <point x="272" y="119" type="curve"/>
      <point x="348" y="225"/>
      <point x="446" y="303"/>
      <point x="582" y="303" type="curve" smooth="yes"/>
      <point x="674" y="303"/>
      <point x="721" y="254"/>
      <point x="721" y="186" type="curve" smooth="yes"/>
      <point x="721" y="88"/>
      <point x="639" y="33"/>
    </contour>
  </outline>
</glyph>
<glyph name="uni0256" format="2">
  <advance width="1104"/>
  <unicode hex="0256"/>
  <anchor x="334" y="-492" name="bottom"/>
  <anchor x="768" y="1556" name="top"/>
  <anchor x="1337" y="1556" name="topright"/>
  <outline>
    <contour>
      <point x="840" y="-492" type="curve" smooth="yes"/>
      <point x="881" y="-492"/>
      <point x="909" y="-481"/>
      <point x="930" y="-471" type="curve"/>
      <point x="930" y="-420" type="line"/>
      <point x="909" y="-430"/>
      <point x="879" y="-440"/>
      <point x="840" y="-440" type="curve" smooth="yes"/>
      <point x="801" y="-440"/>
      <point x="782" y="-414"/>
      <point x="782" y="-383" type="curve" smooth="yes"/>
      <point x="782" y="-358"/>
      <point x="788" y="-332"/>
      <point x="795" y="-303" type="curve" smooth="yes"/>
      <point x="1188" y="1556" type="line"/>
      <point x="1135" y="1556" type="line"/>
      <point x="1040" y="1104" type="line" smooth="yes"/>
      <point x="1022" y="1018"/>
      <point x="1001" y="924"/>
      <point x="987" y="834" type="curve"/>
      <point x="983" y="834" type="line"/>
      <point x="965" y="958"/>
      <point x="872" y="1102"/>
      <point x="666" y="1102" type="curve" smooth="yes"/>
      <point x="285" y="1102"/>
      <point x="104" y="696"/>
      <point x="104" y="365" type="curve" smooth="yes"/>
      <point x="104" y="133"/>
      <point x="203" y="-20"/>
      <point x="414" y="-20" type="curve" smooth="yes"/>
      <point x="618" y="-20"/>
      <point x="795" y="158"/>
      <point x="870" y="297" type="curve"/>
      <point x="874" y="297" type="line"/>
      <point x="848" y="193"/>
      <point x="817" y="53"/>
      <point x="799" y="-31" type="curve" smooth="yes"/>
      <point x="741" y="-301" type="line" smooth="yes"/>
      <point x="735" y="-330"/>
      <point x="729" y="-367"/>
      <point x="729" y="-385" type="curve" smooth="yes"/>
      <point x="729" y="-449"/>
      <point x="766" y="-492"/>
    </contour>
    <contour>
      <point x="420" y="31" type="curve" smooth="yes"/>
      <point x="236" y="31"/>
      <point x="160" y="160"/>
      <point x="160" y="365" type="curve" smooth="yes"/>
      <point x="160" y="686"/>
      <point x="326" y="1051"/>
      <point x="664" y="1051" type="curve" smooth="yes"/>
      <point x="831" y="1051"/>
      <point x="948" y="946"/>
      <point x="948" y="733" type="curve" smooth="yes"/>
      <point x="948" y="375"/>
      <point x="688" y="31"/>
    </contour>
  </outline>
</glyph>
<glyph name="uni0258" format="2">
  <advance width="887"/>
  <unicode hex="0258"/>
  <anchor x="330" y="0" name="bottom"/>
  <anchor x="559" y="1081" name="top"/>
  <outline>
    <contour>
      <point x="221" y="-20" type="curve" smooth="yes"/>
      <point x="625" y="-20"/>
      <point x="778" y="367"/>
      <point x="778" y="684" type="curve" smooth="yes"/>
      <point x="778" y="963"/>
      <point x="645" y="1096"/>
      <point x="449" y="1096" type="curve" smooth="yes"/>
      <point x="233" y="1096"/>
      <point x="131" y="969"/>
      <point x="131" y="819" type="curve" smooth="yes"/>
      <point x="131" y="586"/>
      <point x="338" y="539"/>
      <point x="602" y="539" type="curve" smooth="yes"/>
      <point x="715" y="539" type="line"/>
      <point x="676" y="274"/>
      <point x="520" y="31"/>
      <point x="227" y="31" type="curve" smooth="yes"/>
      <point x="94" y="31"/>
      <point x="-2" y="82"/>
      <point x="-47" y="117" type="curve"/>
      <point x="-47" y="51" type="line"/>
      <point x="-6" y="25"/>
      <point x="76" y="-20"/>
    </contour>
    <contour>
      <point x="719" y="590" type="curve"/>
      <point x="614" y="590" type="line" smooth="yes"/>
      <point x="395" y="590"/>
      <point x="186" y="618"/>
      <point x="186" y="819" type="curve" smooth="yes"/>
      <point x="186" y="950"/>
      <point x="274" y="1044"/>
      <point x="444" y="1044" type="curve" smooth="yes"/>
      <point x="608" y="1044"/>
      <point x="723" y="932"/>
      <point x="723" y="680" type="curve" smooth="yes"/>
      <point x="723" y="649"/>
      <point x="721" y="618"/>
    </contour>
  </outline>
</glyph>
<glyph name="uni025E" format="2">
  <advance width="1030"/>
  <unicode hex="025E"/>
  <anchor x="401" y="0" name="bottom"/>
  <anchor x="631" y="1081" name="top"/>
  <outline>
    <contour>
      <point x="500" y="-20" type="curve" smooth="yes"/>
      <point x="760" y="-20"/>
      <point x="868" y="166"/>
      <point x="868" y="330" type="curve" smooth="yes"/>
      <point x="868" y="483"/>
      <point x="786" y="545"/>
      <point x="682" y="563" type="curve"/>
      <point x="682" y="567" type="line"/>
      <point x="825" y="596"/>
      <point x="944" y="682"/>
      <point x="944" y="866" type="curve" smooth="yes"/>
      <point x="944" y="993"/>
      <point x="866" y="1100"/>
      <point x="678" y="1100" type="curve" smooth="yes"/>
      <point x="332" y="1100"/>
      <point x="129" y="760"/>
      <point x="129" y="414" type="curve" smooth="yes"/>
      <point x="129" y="117"/>
      <point x="268" y="-20"/>
    </contour>
    <contour>
      <point x="508" y="31" type="curve" smooth="yes"/>
      <point x="305" y="31"/>
      <point x="184" y="147"/>
      <point x="184" y="414" type="curve" smooth="yes"/>
      <point x="184" y="741"/>
      <point x="373" y="1049"/>
      <point x="676" y="1049" type="curve" smooth="yes"/>
      <point x="819" y="1049"/>
      <point x="889" y="981"/>
      <point x="889" y="862" type="curve" smooth="yes"/>
      <point x="889" y="649"/>
      <point x="707" y="592"/>
      <point x="516" y="592" type="curve" smooth="yes"/>
      <point x="461" y="592" type="line"/>
      <point x="451" y="541" type="line"/>
      <point x="518" y="541" type="line" smooth="yes"/>
      <point x="709" y="541"/>
      <point x="813" y="494"/>
      <point x="813" y="326" type="curve" smooth="yes"/>
      <point x="813" y="184"/>
      <point x="721" y="31"/>
    </contour>
  </outline>
</glyph>
<glyph name="uni025F" format="2">
  <advance width="424"/>
  <unicode hex="025F"/>
  <anchor x="-6" y="-492" name="bottom"/>
  <anchor x="328" y="1081" name="top"/>
  <anchor x="467" y="1081" name="topright"/>
  <outline>
    <contour>
      <point x="-176" y="-492" type="curve" smooth="yes"/>
      <point x="-43" y="-492"/>
      <point x="33" y="-412"/>
      <point x="68" y="-244" type="curve" smooth="yes"/>
      <point x="229" y="522" type="line"/>
      <point x="371" y="522" type="line"/>
      <point x="383" y="573" type="line"/>
      <point x="240" y="573" type="line"/>
      <point x="348" y="1081" type="line"/>
      <point x="295" y="1081" type="line"/>
      <point x="188" y="573" type="line"/>
      <point x="43" y="573" type="line"/>
      <point x="33" y="522" type="line"/>
      <point x="176" y="522" type="line"/>
      <point x="16" y="-236" type="line" smooth="yes"/>
      <point x="-10" y="-365"/>
      <point x="-63" y="-440"/>
      <point x="-176" y="-440" type="curve" smooth="yes"/>
      <point x="-209" y="-440"/>
      <point x="-258" y="-434"/>
      <point x="-291" y="-418" type="curve"/>
      <point x="-291" y="-471" type="line"/>
      <point x="-264" y="-481"/>
      <point x="-213" y="-492"/>
    </contour>
  </outline>
</glyph>
<glyph name="uni0260" format="2">
  <advance width="1163"/>
  <unicode hex="0260"/>
  <anchor x="362" y="-492" name="bottom"/>
  <anchor x="801" y="1577" name="top"/>
  <outline>
    <contour>
      <point x="352" y="-492" type="curve" smooth="yes"/>
      <point x="651" y="-492"/>
      <point x="791" y="-319"/>
      <point x="846" y="-57" type="curve" smooth="yes"/>
      <point x="1149" y="1378" type="line" smooth="yes"/>
      <point x="1167" y="1466"/>
      <point x="1194" y="1526"/>
      <point x="1284" y="1526" type="curve" smooth="yes"/>
      <point x="1329" y="1526"/>
      <point x="1364" y="1509"/>
      <point x="1384" y="1493" type="curve"/>
      <point x="1395" y="1546" type="line"/>
      <point x="1374" y="1561"/>
      <point x="1339" y="1577"/>
      <point x="1288" y="1577" type="curve" smooth="yes"/>
      <point x="1169" y="1577"/>
      <point x="1122" y="1503"/>
      <point x="1098" y="1384" type="curve" smooth="yes"/>
      <point x="1034" y="1081" type="line" smooth="yes"/>
      <point x="1018" y="999"/>
      <point x="1001" y="920"/>
      <point x="987" y="834" type="curve"/>
      <point x="983" y="834" type="line"/>
      <point x="963" y="963"/>
      <point x="868" y="1102"/>
      <point x="666" y="1102" type="curve" smooth="yes"/>
      <point x="285" y="1102"/>
      <point x="104" y="696"/>
      <point x="104" y="365" type="curve" smooth="yes"/>
      <point x="104" y="133"/>
      <point x="201" y="-20"/>
      <point x="414" y="-20" type="curve" smooth="yes"/>
      <point x="616" y="-20"/>
      <point x="782" y="145"/>
      <point x="870" y="295" type="curve"/>
      <point x="874" y="295" type="line"/>
      <point x="854" y="219"/>
      <point x="829" y="111"/>
      <point x="813" y="35" type="curve" smooth="yes"/>
      <point x="795" y="-49" type="line" smooth="yes"/>
      <point x="743" y="-287"/>
      <point x="616" y="-440"/>
      <point x="354" y="-440" type="curve" smooth="yes"/>
      <point x="248" y="-440"/>
      <point x="133" y="-406"/>
      <point x="53" y="-365" type="curve"/>
      <point x="53" y="-424" type="line"/>
      <point x="129" y="-459"/>
      <point x="233" y="-492"/>
    </contour>
    <contour>
      <point x="420" y="31" type="curve" smooth="yes"/>
      <point x="238" y="31"/>
      <point x="160" y="160"/>
      <point x="160" y="365" type="curve" smooth="yes"/>
      <point x="160" y="686"/>
      <point x="326" y="1051"/>
      <point x="664" y="1051" type="curve" smooth="yes"/>
      <point x="831" y="1051"/>
      <point x="948" y="946"/>
      <point x="948" y="733" type="curve" smooth="yes"/>
      <point x="948" y="348"/>
      <point x="670" y="31"/>
    </contour>
  </outline>
</glyph>
<glyph name="uni0263" format="2">
  <advance width="862"/>
  <unicode hex="0263"/>
  <anchor x="213" y="-492" name="bottom"/>
  <anchor x="547" y="1081" name="top"/>
  <outline>
    <contour>
      <point x="240" y="-492" type="curve" smooth="yes"/>
      <point x="354" y="-492"/>
      <point x="440" y="-399"/>
      <point x="440" y="-213" type="curve" smooth="yes"/>
      <point x="440" y="-111"/>
      <point x="418" y="18"/>
      <point x="387" y="156" type="curve"/>
      <point x="954" y="1081" type="line"/>
      <point x="895" y="1081" type="line"/>
      <point x="451" y="350" type="line" smooth="yes"/>
      <point x="412" y="287"/>
      <point x="397" y="262"/>
      <point x="371" y="215" type="curve"/>
      <point x="367" y="215" type="line"/>
      <point x="356" y="266"/>
      <point x="348" y="301"/>
      <point x="332" y="367" type="curve" smooth="yes"/>
      <point x="162" y="1081" type="line"/>
      <point x="106" y="1081" type="line"/>
      <point x="330" y="166" type="line"/>
      <point x="150" y="-96"/>
      <point x="94" y="-199"/>
      <point x="94" y="-330" type="curve" smooth="yes"/>
      <point x="94" y="-434"/>
      <point x="147" y="-492"/>
    </contour>
    <contour>
      <point x="240" y="-440" type="curve" smooth="yes"/>
      <point x="182" y="-440"/>
      <point x="150" y="-395"/>
      <point x="150" y="-328" type="curve" smooth="yes"/>
      <point x="150" y="-205"/>
      <point x="201" y="-115"/>
      <point x="348" y="106" type="curve"/>
      <point x="369" y="-6"/>
      <point x="385" y="-92"/>
      <point x="385" y="-217" type="curve" smooth="yes"/>
      <point x="385" y="-362"/>
      <point x="330" y="-440"/>
    </contour>
  </outline>
</glyph>
<glyph name="uni0265" format="2">
  <advance width="1133"/>
  <unicode hex="0265"/>
  <anchor x="352" y="-475" name="bottom"/>
  <anchor x="682" y="1081" name="top"/>
  <outline>
    <contour>
      <point x="684" y="-475" type="line"/>
      <point x="737" y="-475" type="line"/>
      <point x="1067" y="1081" type="line"/>
      <point x="1014" y="1081" type="line"/>
      <point x="895" y="520" type="line" smooth="yes"/>
      <point x="842" y="266"/>
      <point x="635" y="31"/>
      <point x="408" y="31" type="curve" smooth="yes"/>
      <point x="262" y="31"/>
      <point x="176" y="100"/>
      <point x="176" y="254" type="curve" smooth="yes"/>
      <point x="176" y="289"/>
      <point x="180" y="330"/>
      <point x="190" y="375" type="curve" smooth="yes"/>
      <point x="340" y="1081" type="line"/>
      <point x="287" y="1081" type="line"/>
      <point x="139" y="381" type="line" smooth="yes"/>
      <point x="129" y="334"/>
      <point x="123" y="285"/>
      <point x="123" y="246" type="curve" smooth="yes"/>
      <point x="123" y="72"/>
      <point x="221" y="-20"/>
      <point x="399" y="-20" type="curve" smooth="yes"/>
      <point x="618" y="-20"/>
      <point x="776" y="154"/>
      <point x="848" y="285" type="curve"/>
      <point x="852" y="285" type="line"/>
      <point x="825" y="178"/>
      <point x="797" y="55"/>
      <point x="772" y="-59" type="curve" smooth="yes"/>
    </contour>
  </outline>
</glyph>
<glyph name="uni026C" format="2">
  <advance width="479"/>
  <unicode hex="026C"/>
  <anchor x="125" y="0" name="bottom"/>
  <anchor x="455" y="1556" name="top"/>
  <outline>
    <contour>
      <point x="141" y="0" type="line"/>
      <point x="195" y="0" type="line"/>
      <point x="338" y="676" type="line"/>
      <point x="500" y="676" type="line"/>
      <point x="512" y="727" type="line"/>
      <point x="350" y="727" type="line"/>
      <point x="528" y="1556" type="line"/>
      <point x="475" y="1556" type="line"/>
      <point x="330" y="883" type="line"/>
      <point x="313" y="928"/>
      <point x="270" y="963"/>
      <point x="203" y="963" type="curve" smooth="yes"/>
      <point x="113" y="963"/>
      <point x="45" y="897"/>
      <point x="45" y="809" type="curve" smooth="yes"/>
      <point x="45" y="719"/>
      <point x="106" y="676"/>
      <point x="219" y="676" type="curve" smooth="yes"/>
      <point x="285" y="676" type="line"/>
    </contour>
    <contour>
      <point x="223" y="727" type="line" smooth="yes"/>
      <point x="139" y="727"/>
      <point x="98" y="756"/>
      <point x="98" y="809" type="curve" smooth="yes"/>
      <point x="98" y="872"/>
      <point x="139" y="911"/>
      <point x="205" y="911" type="curve" smooth="yes"/>
      <point x="276" y="911"/>
      <point x="307" y="858"/>
      <point x="307" y="803" type="curve" smooth="yes"/>
      <point x="307" y="778"/>
      <point x="303" y="762"/>
      <point x="297" y="735" type="curve" smooth="yes"/>
      <point x="295" y="727" type="line"/>
    </contour>
  </outline>
</glyph>
<glyph name="uni0273" format="2">
  <advance width="1133"/>
  <unicode hex="0273"/>
  <anchor x="348" y="-492" name="bottom"/>
  <anchor x="682" y="1081" name="top"/>
  <anchor x="1206" y="1081" name="topright"/>
  <outline>
    <contour>
      <point x="827" y="-492" type="curve" smooth="yes"/>
      <point x="868" y="-492"/>
      <point x="897" y="-481"/>
      <point x="918" y="-471" type="curve"/>
      <point x="918" y="-420" type="line"/>
      <point x="897" y="-430"/>
      <point x="866" y="-440"/>
      <point x="827" y="-440" type="curve" smooth="yes"/>
      <point x="788" y="-440"/>
      <point x="770" y="-414"/>
      <point x="770" y="-383" type="curve" smooth="yes"/>
      <point x="770" y="-358"/>
      <point x="776" y="-330"/>
      <point x="782" y="-301" type="curve" smooth="yes"/>
      <point x="993" y="700" type="line" smooth="yes"/>
      <point x="1004" y="748"/>
      <point x="1010" y="797"/>
      <point x="1010" y="836" type="curve" smooth="yes"/>
      <point x="1010" y="1010"/>
      <point x="911" y="1102"/>
      <point x="733" y="1102" type="curve" smooth="yes"/>
      <point x="514" y="1102"/>
      <point x="354" y="926"/>
      <point x="287" y="797" type="curve"/>
      <point x="283" y="797" type="line"/>
      <point x="340" y="1081" type="line"/>
      <point x="295" y="1081" type="line"/>
      <point x="66" y="0" type="line"/>
      <point x="119" y="0" type="line"/>
      <point x="238" y="561" type="line" smooth="yes"/>
      <point x="291" y="815"/>
      <point x="498" y="1051"/>
      <point x="725" y="1051" type="curve" smooth="yes"/>
      <point x="870" y="1051"/>
      <point x="956" y="981"/>
      <point x="956" y="827" type="curve" smooth="yes"/>
      <point x="956" y="793"/>
      <point x="952" y="752"/>
      <point x="942" y="707" type="curve" smooth="yes"/>
      <point x="731" y="-295" type="line" smooth="yes"/>
      <point x="725" y="-324"/>
      <point x="717" y="-367"/>
      <point x="717" y="-385" type="curve" smooth="yes"/>
      <point x="717" y="-449"/>
      <point x="754" y="-492"/>
    </contour>
  </outline>
</glyph>
<glyph name="uni0276" format="2">
  <advance width="1542"/>
  <unicode hex="0276"/>
  <anchor x="657" y="0" name="bottom"/>
  <anchor x="887" y="1081" name="top"/>
  <outline>
    <contour>
      <point x="424" y="-23" type="curve" smooth="yes"/>
      <point x="604" y="-23"/>
      <point x="727" y="92"/>
      <point x="803" y="207" type="curve"/>
      <point x="762" y="0" type="line"/>
      <point x="1337" y="0" type="line"/>
      <point x="1354" y="59" type="line"/>
      <point x="831" y="59" type="line"/>
      <point x="942" y="594" type="line"/>
      <point x="1436" y="594" type="line"/>
      <point x="1448" y="651" type="line"/>
      <point x="954" y="651" type="line"/>
      <point x="1026" y="1026" type="line"/>
      <point x="1548" y="1026" type="line"/>
      <point x="1563" y="1081" type="line"/>
      <point x="979" y="1081" type="line"/>
      <point x="936" y="862" type="line"/>
      <point x="920" y="954"/>
      <point x="860" y="1106"/>
      <point x="631" y="1106" type="curve" smooth="yes"/>
      <point x="385" y="1106"/>
      <point x="104" y="850"/>
      <point x="104" y="430" type="curve" smooth="yes"/>
      <point x="104" y="90"/>
      <point x="223" y="-23"/>
    </contour>
    <contour>
      <point x="428" y="33" type="curve" smooth="yes"/>
      <point x="256" y="33"/>
      <point x="166" y="147"/>
      <point x="166" y="428" type="curve" smooth="yes"/>
      <point x="166" y="760"/>
      <point x="369" y="1051"/>
      <point x="629" y="1051" type="curve" smooth="yes"/>
      <point x="801" y="1051"/>
      <point x="913" y="934"/>
      <point x="895" y="666" type="curve" smooth="yes"/>
      <point x="860" y="233"/>
      <point x="639" y="33"/>
    </contour>
  </outline>
</glyph>
<glyph name="omegaclosed" format="2">
  <advance width="1378"/>
  <unicode hex="0277"/>
  <anchor x="575" y="0" name="bottom"/>
  <anchor x="805" y="1081" name="top"/>
  <outline>
    <contour>
      <point x="346" y="-20" type="curve" smooth="yes"/>
      <point x="444" y="-20"/>
      <point x="530" y="14"/>
      <point x="596" y="154" type="curve"/>
      <point x="598" y="154" type="line"/>
      <point x="623" y="49"/>
      <point x="709" y="-20"/>
      <point x="807" y="-20" type="curve" smooth="yes"/>
      <point x="1008" y="-20"/>
      <point x="1247" y="121"/>
      <point x="1247" y="571" type="curve" smooth="yes"/>
      <point x="1247" y="891"/>
      <point x="1075" y="1102"/>
      <point x="741" y="1102" type="curve" smooth="yes"/>
      <point x="362" y="1102"/>
      <point x="92" y="817"/>
      <point x="92" y="387" type="curve" smooth="yes"/>
      <point x="92" y="82"/>
      <point x="207" y="-20"/>
    </contour>
    <contour>
      <point x="356" y="35" type="curve" smooth="yes"/>
      <point x="211" y="35"/>
      <point x="147" y="162"/>
      <point x="147" y="391" type="curve" smooth="yes"/>
      <point x="147" y="762"/>
      <point x="367" y="1047"/>
      <point x="752" y="1047" type="curve" smooth="yes"/>
      <point x="1061" y="1047"/>
      <point x="1192" y="836"/>
      <point x="1192" y="537" type="curve" smooth="yes"/>
      <point x="1192" y="188"/>
      <point x="985" y="35"/>
      <point x="819" y="35" type="curve" smooth="yes"/>
      <point x="692" y="35"/>
      <point x="649" y="129"/>
      <point x="649" y="219" type="curve" smooth="yes"/>
      <point x="649" y="244"/>
      <point x="659" y="315"/>
      <point x="670" y="377" type="curve" smooth="yes"/>
      <point x="741" y="707" type="line"/>
      <point x="686" y="707" type="line"/>
      <point x="606" y="342" type="line" smooth="yes"/>
      <point x="584" y="248"/>
      <point x="541" y="35"/>
    </contour>
  </outline>
</glyph>
<glyph name="uni027A" format="2">
  <advance width="702"/>
  <unicode hex="027A"/>
  <anchor x="238" y="0" name="bottom"/>
  <anchor x="567" y="1556" name="top"/>
  <outline>
    <contour>
      <point x="27" y="-16" type="curve" smooth="yes"/>
      <point x="217" y="-16"/>
      <point x="365" y="166"/>
      <point x="428" y="285" type="curve"/>
      <point x="432" y="285" type="line"/>
      <point x="375" y="0" type="line"/>
      <point x="420" y="0" type="line"/>
      <point x="750" y="1556" type="line"/>
      <point x="696" y="1556" type="line"/>
      <point x="481" y="537" type="line" smooth="yes"/>
      <point x="422" y="258"/>
      <point x="217" y="35"/>
      <point x="27" y="35" type="curve" smooth="yes"/>
      <point x="-18" y="35"/>
      <point x="-55" y="41"/>
      <point x="-82" y="49" type="curve"/>
      <point x="-94" y="0" type="line"/>
      <point x="-61" y="-10"/>
      <point x="-18" y="-16"/>
    </contour>
  </outline>
</glyph>
<glyph name="uni027B" format="2">
  <advance width="719"/>
  <unicode hex="027B"/>
  <anchor x="141" y="-492" name="bottom"/>
  <anchor x="475" y="1081" name="top"/>
  <outline>
    <contour>
      <point x="399" y="-492" type="curve" smooth="yes"/>
      <point x="440" y="-492"/>
      <point x="469" y="-481"/>
      <point x="489" y="-471" type="curve"/>
      <point x="489" y="-420" type="line"/>
      <point x="469" y="-430"/>
      <point x="438" y="-440"/>
      <point x="399" y="-440" type="curve" smooth="yes"/>
      <point x="360" y="-440"/>
      <point x="342" y="-414"/>
      <point x="342" y="-383" type="curve" smooth="yes"/>
      <point x="342" y="-358"/>
      <point x="348" y="-330"/>
      <point x="354" y="-301" type="curve"/>
      <point x="649" y="1081" type="line"/>
      <point x="596" y="1081" type="line"/>
      <point x="481" y="537" type="line" smooth="yes"/>
      <point x="422" y="258"/>
      <point x="217" y="35"/>
      <point x="27" y="35" type="curve" smooth="yes"/>
      <point x="-18" y="35"/>
      <point x="-55" y="41"/>
      <point x="-82" y="49" type="curve"/>
      <point x="-94" y="0" type="line"/>
      <point x="-61" y="-10"/>
      <point x="-18" y="-16"/>
      <point x="27" y="-16" type="curve" smooth="yes"/>
      <point x="217" y="-16"/>
      <point x="362" y="162"/>
      <point x="426" y="281" type="curve"/>
      <point x="430" y="281" type="line"/>
      <point x="406" y="180"/>
      <point x="377" y="57"/>
      <point x="358" y="-31" type="curve" smooth="yes"/>
      <point x="301" y="-301" type="line" smooth="yes"/>
      <point x="295" y="-330"/>
      <point x="289" y="-367"/>
      <point x="289" y="-385" type="curve" smooth="yes"/>
      <point x="289" y="-449"/>
      <point x="326" y="-492"/>
    </contour>
  </outline>
</glyph>
<glyph name="rfishhookreversed" format="2">
  <advance width="600"/>
  <unicode hex="027F"/>
  <anchor x="82" y="-492" name="bottom"/>
  <anchor x="416" y="1081" name="top"/>
  <outline>
    <contour>
      <point x="127" y="-492" type="line"/>
      <point x="180" y="-492" type="line"/>
      <point x="432" y="682" type="line" smooth="yes"/>
      <point x="449" y="762"/>
      <point x="461" y="834"/>
      <point x="461" y="899" type="curve" smooth="yes"/>
      <point x="461" y="1028"/>
      <point x="389" y="1102"/>
      <point x="268" y="1102" type="curve" smooth="yes"/>
      <point x="215" y="1102"/>
      <point x="166" y="1090"/>
      <point x="133" y="1077" type="curve"/>
      <point x="133" y="1026" type="line"/>
      <point x="164" y="1038"/>
      <point x="213" y="1051"/>
      <point x="268" y="1051" type="curve" smooth="yes"/>
      <point x="348" y="1051"/>
      <point x="408" y="1006"/>
      <point x="408" y="895" type="curve" smooth="yes"/>
      <point x="408" y="831"/>
      <point x="395" y="758"/>
      <point x="379" y="682" type="curve" smooth="yes"/>
    </contour>
  </outline>
</glyph>
<glyph name="uni0281" format="2">
  <advance width="844"/>
  <unicode hex="0281"/>
  <anchor x="307" y="0" name="bottom"/>
  <anchor x="537" y="1081" name="top"/>
  <outline>
    <contour>
      <point x="57" y="0" type="line"/>
      <point x="352" y="0" type="line" smooth="yes"/>
      <point x="578" y="0"/>
      <point x="717" y="104"/>
      <point x="717" y="313" type="curve" smooth="yes"/>
      <point x="717" y="451"/>
      <point x="639" y="530"/>
      <point x="532" y="547" type="curve"/>
      <point x="932" y="1081" type="line"/>
      <point x="868" y="1081" type="line"/>
      <point x="477" y="557" type="line"/>
      <point x="227" y="557" type="line"/>
      <point x="342" y="1081" type="line"/>
      <point x="289" y="1081" type="line"/>
    </contour>
    <contour>
      <point x="119" y="51" type="line"/>
      <point x="217" y="506" type="line"/>
      <point x="436" y="506" type="line" smooth="yes"/>
      <point x="596" y="506"/>
      <point x="662" y="434"/>
      <point x="662" y="309" type="curve" smooth="yes"/>
      <point x="662" y="133"/>
      <point x="541" y="51"/>
      <point x="346" y="51" type="curve" smooth="yes"/>
    </contour>
  </outline>
</glyph>
<glyph name="eshsquatreversed" format="2">
  <advance width="539"/>
  <unicode hex="0285"/>
  <anchor x="51" y="-492" name="bottom"/>
  <anchor x="385" y="1081" name="top"/>
  <outline>
    <contour>
      <point x="283" y="-492" type="curve" smooth="yes"/>
      <point x="344" y="-492"/>
      <point x="397" y="-479"/>
      <point x="430" y="-467" type="curve"/>
      <point x="430" y="-416" type="line"/>
      <point x="391" y="-428"/>
      <point x="346" y="-440"/>
      <point x="289" y="-440" type="curve" smooth="yes"/>
      <point x="184" y="-440"/>
      <point x="139" y="-379"/>
      <point x="139" y="-283" type="curve" smooth="yes"/>
      <point x="139" y="-213"/>
      <point x="152" y="-143"/>
      <point x="170" y="-55" type="curve" smooth="yes"/>
      <point x="322" y="655" type="line" smooth="yes"/>
      <point x="340" y="739"/>
      <point x="358" y="819"/>
      <point x="358" y="895" type="curve" smooth="yes"/>
      <point x="358" y="993"/>
      <point x="315" y="1102"/>
      <point x="162" y="1102" type="curve" smooth="yes"/>
      <point x="92" y="1102"/>
      <point x="49" y="1090"/>
      <point x="16" y="1081" type="curve"/>
      <point x="16" y="1028" type="line"/>
      <point x="55" y="1040"/>
      <point x="98" y="1051"/>
      <point x="156" y="1051" type="curve" smooth="yes"/>
      <point x="260" y="1051"/>
      <point x="303" y="987"/>
      <point x="303" y="891" type="curve" smooth="yes"/>
      <point x="303" y="815"/>
      <point x="287" y="739"/>
      <point x="268" y="655" type="curve" smooth="yes"/>
      <point x="117" y="-55" type="line" smooth="yes"/>
      <point x="98" y="-143"/>
      <point x="84" y="-217"/>
      <point x="84" y="-289" type="curve" smooth="yes"/>
      <point x="84" y="-383"/>
      <point x="129" y="-492"/>
    </contour>
  </outline>
</glyph>
<glyph name="eshcurl" format="2">
  <advance width="487"/>
  <unicode hex="0286"/>
  <anchor x="25" y="-492" name="bottom"/>
  <anchor x="461" y="1567" name="top"/>
  <outline>
    <contour>
      <point x="-145" y="-492" type="curve" smooth="yes"/>
      <point x="23" y="-492"/>
      <point x="61" y="-371"/>
      <point x="111" y="-141" type="curve"/>
      <point x="244" y="-141" type="line"/>
      <point x="254" y="-90" type="line"/>
      <point x="121" y="-90" type="line"/>
      <point x="414" y="1288" type="line" smooth="yes"/>
      <point x="446" y="1442"/>
      <point x="522" y="1516"/>
      <point x="647" y="1516" type="curve" smooth="yes"/>
      <point x="702" y="1516"/>
      <point x="745" y="1507"/>
      <point x="791" y="1489" type="curve"/>
      <point x="791" y="1544" type="line"/>
      <point x="758" y="1556"/>
      <point x="715" y="1567"/>
      <point x="649" y="1567" type="curve" smooth="yes"/>
      <point x="489" y="1567"/>
      <point x="397" y="1460"/>
      <point x="362" y="1296" type="curve" smooth="yes"/>
      <point x="68" y="-90" type="line"/>
      <point x="-41" y="-90" type="line" smooth="yes"/>
      <point x="-233" y="-90"/>
      <point x="-309" y="-197"/>
      <point x="-309" y="-322" type="curve" smooth="yes"/>
      <point x="-309" y="-430"/>
      <point x="-242" y="-492"/>
    </contour>
    <contour>
      <point x="-139" y="-440" type="curve" smooth="yes"/>
      <point x="-213" y="-440"/>
      <point x="-254" y="-391"/>
      <point x="-254" y="-317" type="curve" smooth="yes"/>
      <point x="-254" y="-219"/>
      <point x="-205" y="-141"/>
      <point x="-37" y="-141" type="curve" smooth="yes"/>
      <point x="57" y="-141" type="line"/>
      <point x="12" y="-356"/>
      <point x="-23" y="-440"/>
    </contour>
  </outline>
</glyph>
<glyph name="uni0288" format="2">
  <advance width="633"/>
  <unicode hex="0288"/>
  <anchor x="98" y="-492" name="bottom"/>
  <anchor x="489" y="1350" name="top"/>
  <anchor x="764" y="1350" name="topright"/>
  <outline>
    <contour>
      <point x="201" y="-492" type="curve" smooth="yes"/>
      <point x="270" y="-492"/>
      <point x="317" y="-479"/>
      <point x="360" y="-465" type="curve"/>
      <point x="360" y="-414" type="line"/>
      <point x="317" y="-430"/>
      <point x="268" y="-440"/>
      <point x="203" y="-440" type="curve" smooth="yes"/>
      <point x="102" y="-440"/>
      <point x="61" y="-389"/>
      <point x="61" y="-299" type="curve" smooth="yes"/>
      <point x="61" y="-264"/>
      <point x="66" y="-223"/>
      <point x="76" y="-178" type="curve" smooth="yes"/>
      <point x="330" y="1030" type="line"/>
      <point x="664" y="1030" type="line"/>
      <point x="676" y="1081" type="line"/>
      <point x="342" y="1081" type="line"/>
      <point x="399" y="1350" type="line"/>
      <point x="356" y="1350" type="line"/>
      <point x="287" y="1081" type="line"/>
      <point x="129" y="1075" type="line"/>
      <point x="119" y="1030" type="line"/>
      <point x="276" y="1030" type="line"/>
      <point x="20" y="-184" type="line" smooth="yes"/>
      <point x="12" y="-227"/>
      <point x="6" y="-268"/>
      <point x="6" y="-303" type="curve" smooth="yes"/>
      <point x="6" y="-422"/>
      <point x="66" y="-492"/>
    </contour>
  </outline>
</glyph>
<glyph name="uni0289" format="2">
  <advance width="1133"/>
  <unicode hex="0289"/>
  <anchor x="469" y="0" name="bottom"/>
  <anchor x="698" y="1081" name="top"/>
  <outline>
    <contour>
      <point x="23" y="573" type="line"/>
      <point x="1116" y="573" type="line"/>
      <point x="1128" y="625" type="line"/>
      <point x="35" y="625" type="line"/>
    </contour>
    <component base="u" xOffset="16"/>
  </outline>
</glyph>
<glyph name="uni028F" format="2">
  <advance width="631"/>
  <unicode hex="028F"/>
  <anchor x="201" y="0" name="bottom"/>
  <anchor x="430" y="1081" name="top"/>
  <outline>
    <contour>
      <point x="180" y="0" type="line"/>
      <point x="233" y="0" type="line"/>
      <point x="319" y="428" type="line"/>
      <point x="766" y="1081" type="line"/>
      <point x="702" y="1081" type="line"/>
      <point x="303" y="492" type="line"/>
      <point x="156" y="1081" type="line"/>
      <point x="100" y="1081" type="line"/>
      <point x="266" y="428" type="line"/>
    </contour>
  </outline>
</glyph>
<glyph name="uni0295" format="2">
  <advance width="743"/>
  <unicode hex="0295"/>
  <anchor x="258" y="0" name="bottom"/>
  <anchor x="590" y="1563" name="top"/>
  <outline>
    <contour>
      <point x="342" y="0" type="line"/>
      <point x="395" y="0" type="line"/>
      <point x="535" y="655" type="line"/>
      <point x="344" y="774"/>
      <point x="229" y="907"/>
      <point x="229" y="1114" type="curve" smooth="yes"/>
      <point x="229" y="1364"/>
      <point x="371" y="1511"/>
      <point x="608" y="1511" type="curve" smooth="yes"/>
      <point x="729" y="1511"/>
      <point x="829" y="1468"/>
      <point x="887" y="1423" type="curve"/>
      <point x="920" y="1466" type="line"/>
      <point x="846" y="1518"/>
      <point x="756" y="1563"/>
      <point x="612" y="1563" type="curve" smooth="yes"/>
      <point x="342" y="1563"/>
      <point x="174" y="1397"/>
      <point x="174" y="1114" type="curve" smooth="yes"/>
      <point x="174" y="889"/>
      <point x="297" y="743"/>
      <point x="475" y="631" type="curve"/>
    </contour>
  </outline>
</glyph>
<glyph name="kturned" format="2">
  <advance width="907"/>
  <unicode hex="029E"/>
  <anchor x="240" y="-475" name="bottom"/>
  <anchor x="569" y="1081" name="top"/>
  <outline>
    <contour>
      <point x="481" y="-475" type="line"/>
      <point x="535" y="-475" type="line"/>
      <point x="864" y="1081" type="line"/>
      <point x="811" y="1081" type="line"/>
      <point x="737" y="729" type="line"/>
      <point x="494" y="506" type="line"/>
      <point x="203" y="1081" type="line"/>
      <point x="143" y="1081" type="line"/>
      <point x="455" y="471" type="line"/>
      <point x="-47" y="0" type="line"/>
      <point x="20" y="0" type="line"/>
      <point x="727" y="664" type="line"/>
      <point x="729" y="664" type="line"/>
      <point x="696" y="535"/>
      <point x="674" y="430"/>
      <point x="645" y="295" type="curve" smooth="yes"/>
    </contour>
  </outline>
</glyph>
<glyph name="uni029F" format="2">
  <advance width="725"/>
  <unicode hex="029F"/>
  <anchor x="248" y="0" name="bottom"/>
  <anchor x="477" y="1081" name="top"/>
  <outline>
    <contour>
      <point x="92" y="0" type="line"/>
      <point x="586" y="0" type="line"/>
      <point x="596" y="51" type="line"/>
      <point x="154" y="51" type="line"/>
      <point x="369" y="1081" type="line"/>
      <point x="315" y="1081" type="line"/>
    </contour>
  </outline>
</glyph>
<glyph name="uni02A1" format="2">
  <advance width="778"/>
  <unicode hex="02A1"/>
  <anchor x="274" y="0" name="bottom"/>
  <anchor x="606" y="1567" name="top"/>
  <anchor x="1006" y="1563" name="topright"/>
  <outline>
    <contour>
      <point x="180" y="0" type="line"/>
      <point x="233" y="0" type="line"/>
      <point x="301" y="305" type="line"/>
      <point x="483" y="305" type="line"/>
      <point x="494" y="356" type="line"/>
      <point x="311" y="356" type="line"/>
      <point x="367" y="606" type="line"/>
      <point x="719" y="811"/>
      <point x="868" y="1004"/>
      <point x="868" y="1243" type="curve" smooth="yes"/>
      <point x="868" y="1454"/>
      <point x="745" y="1567"/>
      <point x="528" y="1567" type="curve" smooth="yes"/>
      <point x="369" y="1567"/>
      <point x="264" y="1520"/>
      <point x="178" y="1464" type="curve"/>
      <point x="203" y="1419" type="line"/>
      <point x="272" y="1466"/>
      <point x="381" y="1516"/>
      <point x="520" y="1516" type="curve" smooth="yes"/>
      <point x="713" y="1516"/>
      <point x="813" y="1421"/>
      <point x="813" y="1241" type="curve" smooth="yes"/>
      <point x="813" y="1049"/>
      <point x="721" y="868"/>
      <point x="317" y="635" type="curve"/>
      <point x="258" y="356" type="line"/>
      <point x="96" y="356" type="line"/>
      <point x="86" y="305" type="line"/>
      <point x="246" y="305" type="line"/>
    </contour>
  </outline>
</glyph>
<glyph name="uni02A2" format="2">
  <advance width="743"/>
  <unicode hex="02A2"/>
  <anchor x="258" y="0" name="bottom"/>
  <anchor x="590" y="1563" name="top"/>
  <outline>
    <contour>
      <point x="342" y="0" type="line"/>
      <point x="395" y="0" type="line"/>
      <point x="461" y="305" type="line"/>
      <point x="618" y="305" type="line"/>
      <point x="629" y="356" type="line"/>
      <point x="471" y="356" type="line"/>
      <point x="535" y="655" type="line"/>
      <point x="344" y="774"/>
      <point x="229" y="907"/>
      <point x="229" y="1114" type="curve" smooth="yes"/>
      <point x="229" y="1364"/>
      <point x="371" y="1511"/>
      <point x="608" y="1511" type="curve" smooth="yes"/>
      <point x="729" y="1511"/>
      <point x="829" y="1468"/>
      <point x="887" y="1423" type="curve"/>
      <point x="920" y="1466" type="line"/>
      <point x="846" y="1518"/>
      <point x="756" y="1563"/>
      <point x="612" y="1563" type="curve" smooth="yes"/>
      <point x="342" y="1563"/>
      <point x="174" y="1397"/>
      <point x="174" y="1114" type="curve" smooth="yes"/>
      <point x="174" y="889"/>
      <point x="297" y="743"/>
      <point x="475" y="631" type="curve"/>
      <point x="418" y="356" type="line"/>
      <point x="231" y="356" type="line"/>
      <point x="221" y="305" type="line"/>
      <point x="406" y="305" type="line"/>
    </contour>
  </outline>
</glyph>
<glyph name="dzlig" format="2">
  <advance width="1780"/>
  <unicode hex="02A3"/>
  <anchor x="782" y="0" name="bottom"/>
  <anchor x="1112" y="1556" name="top"/>
  <outline>
    <contour>
      <point x="412" y="-20" type="curve" smooth="yes"/>
      <point x="621" y="-20"/>
      <point x="780" y="147"/>
      <point x="866" y="289" type="curve"/>
      <point x="870" y="289" type="line"/>
      <point x="813" y="0" type="line"/>
      <point x="1575" y="0" type="line"/>
      <point x="1585" y="51" type="line"/>
      <point x="944" y="51" type="line"/>
      <point x="1774" y="1051" type="line"/>
      <point x="1780" y="1081" type="line"/>
      <point x="1087" y="1081" type="line"/>
      <point x="1188" y="1556" type="line"/>
      <point x="1135" y="1556" type="line"/>
      <point x="1040" y="1112" type="line" smooth="yes"/>
      <point x="1022" y="1026"/>
      <point x="1001" y="926"/>
      <point x="987" y="834" type="curve"/>
      <point x="983" y="834" type="line"/>
      <point x="965" y="958"/>
      <point x="870" y="1102"/>
      <point x="664" y="1102" type="curve" smooth="yes"/>
      <point x="285" y="1102"/>
      <point x="104" y="696"/>
      <point x="104" y="365" type="curve" smooth="yes"/>
      <point x="104" y="133"/>
      <point x="201" y="-20"/>
    </contour>
    <contour>
      <point x="416" y="31" type="curve" smooth="yes"/>
      <point x="244" y="31"/>
      <point x="160" y="154"/>
      <point x="160" y="365" type="curve" smooth="yes"/>
      <point x="160" y="686"/>
      <point x="326" y="1051"/>
      <point x="662" y="1051" type="curve" smooth="yes"/>
      <point x="829" y="1051"/>
      <point x="948" y="946"/>
      <point x="948" y="733" type="curve" smooth="yes"/>
      <point x="948" y="354"/>
      <point x="676" y="31"/>
    </contour>
    <contour>
      <point x="866" y="37" type="line"/>
      <point x="1077" y="1030" type="line"/>
      <point x="1688" y="1030" type="line"/>
    </contour>
  </outline>
</glyph>
<glyph name="uni02A4" format="2">
  <advance width="1753"/>
  <unicode hex="02A4"/>
  <anchor x="657" y="-492" name="bottom"/>
  <anchor x="1092" y="1556" name="top"/>
  <outline>
    <contour>
      <point x="1047" y="-492" type="curve" smooth="yes"/>
      <point x="1434" y="-492"/>
      <point x="1561" y="-190"/>
      <point x="1561" y="47" type="curve" smooth="yes"/>
      <point x="1561" y="344"/>
      <point x="1360" y="436"/>
      <point x="1145" y="438" type="curve"/>
      <point x="1743" y="1030" type="line"/>
      <point x="1753" y="1081" type="line"/>
      <point x="1087" y="1081" type="line"/>
      <point x="1188" y="1556" type="line"/>
      <point x="1135" y="1556" type="line"/>
      <point x="1040" y="1112" type="line" smooth="yes"/>
      <point x="1022" y="1026"/>
      <point x="1001" y="926"/>
      <point x="987" y="834" type="curve"/>
      <point x="983" y="834" type="line"/>
      <point x="965" y="958"/>
      <point x="870" y="1102"/>
      <point x="664" y="1102" type="curve" smooth="yes"/>
      <point x="285" y="1102"/>
      <point x="104" y="696"/>
      <point x="104" y="365" type="curve" smooth="yes"/>
      <point x="104" y="133"/>
      <point x="201" y="-20"/>
      <point x="412" y="-20" type="curve" smooth="yes"/>
      <point x="621" y="-20"/>
      <point x="780" y="147"/>
      <point x="866" y="289" type="curve"/>
      <point x="870" y="289" type="line"/>
      <point x="813" y="0" type="line"/>
      <point x="858" y="0" type="line"/>
      <point x="1077" y="1030" type="line"/>
      <point x="1667" y="1030" type="line"/>
      <point x="1071" y="434" type="line"/>
      <point x="1063" y="387" type="line"/>
      <point x="1141" y="387" type="line" smooth="yes"/>
      <point x="1335" y="387"/>
      <point x="1505" y="303"/>
      <point x="1505" y="45" type="curve" smooth="yes"/>
      <point x="1505" y="-160"/>
      <point x="1399" y="-440"/>
      <point x="1057" y="-440" type="curve" smooth="yes"/>
      <point x="918" y="-440"/>
      <point x="807" y="-395"/>
      <point x="756" y="-362" type="curve"/>
      <point x="756" y="-424" type="line"/>
      <point x="807" y="-453"/>
      <point x="907" y="-492"/>
    </contour>
    <contour>
      <point x="416" y="31" type="curve" smooth="yes"/>
      <point x="244" y="31"/>
      <point x="160" y="154"/>
      <point x="160" y="365" type="curve" smooth="yes"/>
      <point x="160" y="686"/>
      <point x="326" y="1051"/>
      <point x="662" y="1051" type="curve" smooth="yes"/>
      <point x="829" y="1051"/>
      <point x="948" y="946"/>
      <point x="948" y="733" type="curve" smooth="yes"/>
      <point x="948" y="354"/>
      <point x="676" y="31"/>
    </contour>
  </outline>
</glyph>
<glyph name="tslig" format="2">
  <advance width="1286"/>
  <unicode hex="02A6"/>
  <anchor x="528" y="0" name="bottom"/>
  <anchor x="815" y="1350" name="top"/>
  <outline>
    <contour>
      <point x="297" y="0" type="curve" smooth="yes"/>
      <point x="756" y="0" type="line" smooth="yes"/>
      <point x="1028" y="0"/>
      <point x="1126" y="129"/>
      <point x="1126" y="281" type="curve" smooth="yes"/>
      <point x="1126" y="451"/>
      <point x="995" y="514"/>
      <point x="866" y="584" type="curve" smooth="yes"/>
      <point x="748" y="647"/>
      <point x="639" y="698"/>
      <point x="639" y="821" type="curve" smooth="yes"/>
      <point x="639" y="983"/>
      <point x="768" y="1051"/>
      <point x="938" y="1051" type="curve" smooth="yes"/>
      <point x="1044" y="1051"/>
      <point x="1149" y="1024"/>
      <point x="1219" y="989" type="curve"/>
      <point x="1237" y="1040" type="line"/>
      <point x="1165" y="1073"/>
      <point x="1067" y="1102"/>
      <point x="940" y="1102" type="curve" smooth="yes"/>
      <point x="887" y="1102"/>
      <point x="834" y="1096"/>
      <point x="788" y="1081" type="curve"/>
      <point x="342" y="1081" type="line"/>
      <point x="399" y="1350" type="line"/>
      <point x="356" y="1350" type="line"/>
      <point x="287" y="1081" type="line"/>
      <point x="129" y="1075" type="line"/>
      <point x="119" y="1030" type="line"/>
      <point x="276" y="1030" type="line"/>
      <point x="119" y="287" type="line" smooth="yes"/>
      <point x="109" y="244"/>
      <point x="104" y="203"/>
      <point x="104" y="168" type="curve" smooth="yes"/>
      <point x="104" y="70"/>
      <point x="162" y="0"/>
    </contour>
    <contour>
      <point x="307" y="51" type="line" smooth="yes"/>
      <point x="207" y="51"/>
      <point x="160" y="102"/>
      <point x="160" y="172" type="curve" smooth="yes"/>
      <point x="160" y="207"/>
      <point x="164" y="248"/>
      <point x="174" y="293" type="curve" smooth="yes"/>
      <point x="330" y="1030" type="line"/>
      <point x="684" y="1030" type="line"/>
      <point x="623" y="983"/>
      <point x="584" y="913"/>
      <point x="584" y="817" type="curve" smooth="yes"/>
      <point x="584" y="666"/>
      <point x="702" y="608"/>
      <point x="838" y="535" type="curve" smooth="yes"/>
      <point x="954" y="471"/>
      <point x="1071" y="418"/>
      <point x="1071" y="279" type="curve" smooth="yes"/>
      <point x="1071" y="152"/>
      <point x="997" y="51"/>
      <point x="758" y="51" type="curve" smooth="yes"/>
    </contour>
  </outline>
</glyph>
<glyph name="tcligcurl" format="2">
  <advance width="1360"/>
  <unicode hex="02A8"/>
  <anchor x="565" y="0" name="bottom"/>
  <anchor x="852" y="1350" name="top"/>
  <outline>
    <contour>
      <point x="299" y="-20" type="curve" smooth="yes"/>
      <point x="428" y="-20"/>
      <point x="514" y="33"/>
      <point x="631" y="123" type="curve"/>
      <point x="696" y="35"/>
      <point x="799" y="-18"/>
      <point x="932" y="-18" type="curve" smooth="yes"/>
      <point x="1096" y="-18"/>
      <point x="1210" y="55"/>
      <point x="1210" y="190" type="curve" smooth="yes"/>
      <point x="1210" y="293"/>
      <point x="1145" y="354"/>
      <point x="1020" y="354" type="curve" smooth="yes"/>
      <point x="874" y="354"/>
      <point x="756" y="281"/>
      <point x="647" y="199" type="curve"/>
      <point x="625" y="233"/>
      <point x="602" y="309"/>
      <point x="602" y="401" type="curve" smooth="yes"/>
      <point x="602" y="760"/>
      <point x="801" y="1051"/>
      <point x="1120" y="1051" type="curve" smooth="yes"/>
      <point x="1194" y="1051"/>
      <point x="1288" y="1036"/>
      <point x="1356" y="1001" type="curve"/>
      <point x="1372" y="1053" type="line"/>
      <point x="1307" y="1085"/>
      <point x="1212" y="1102"/>
      <point x="1120" y="1102" type="curve" smooth="yes"/>
      <point x="754" y="1102"/>
      <point x="547" y="772"/>
      <point x="547" y="397" type="curve" smooth="yes"/>
      <point x="547" y="309"/>
      <point x="567" y="229"/>
      <point x="604" y="164" type="curve"/>
      <point x="489" y="76"/>
      <point x="420" y="31"/>
      <point x="301" y="31" type="curve" smooth="yes"/>
      <point x="201" y="31"/>
      <point x="160" y="82"/>
      <point x="160" y="172" type="curve" smooth="yes"/>
      <point x="160" y="207"/>
      <point x="164" y="248"/>
      <point x="174" y="293" type="curve" smooth="yes"/>
      <point x="330" y="1030" type="line"/>
      <point x="664" y="1030" type="line"/>
      <point x="676" y="1081" type="line"/>
      <point x="342" y="1081" type="line"/>
      <point x="399" y="1350" type="line"/>
      <point x="356" y="1350" type="line"/>
      <point x="287" y="1081" type="line"/>
      <point x="129" y="1075" type="line"/>
      <point x="119" y="1030" type="line"/>
      <point x="276" y="1030" type="line"/>
      <point x="119" y="287" type="line" smooth="yes"/>
      <point x="109" y="244"/>
      <point x="104" y="203"/>
      <point x="104" y="168" type="curve" smooth="yes"/>
      <point x="104" y="49"/>
      <point x="164" y="-20"/>
    </contour>
    <contour>
      <point x="940" y="33" type="curve" smooth="yes"/>
      <point x="815" y="33"/>
      <point x="725" y="84"/>
      <point x="674" y="156" type="curve"/>
      <point x="768" y="231"/>
      <point x="879" y="303"/>
      <point x="1016" y="303" type="curve" smooth="yes"/>
      <point x="1108" y="303"/>
      <point x="1155" y="254"/>
      <point x="1155" y="186" type="curve" smooth="yes"/>
      <point x="1155" y="88"/>
      <point x="1073" y="33"/>
    </contour>
  </outline>
</glyph>
<glyph name="uni02A9" format="2">
  <advance width="1481"/>
  <unicode hex="02A9"/>
  <anchor x="522" y="-492" name="bottom"/>
  <anchor x="958" y="1567" name="top"/>
  <outline>
    <contour>
      <point x="-145" y="-492" type="curve" smooth="yes"/>
      <point x="-29" y="-492"/>
      <point x="51" y="-420"/>
      <point x="88" y="-246" type="curve" smooth="yes"/>
      <point x="360" y="1030" type="line"/>
      <point x="633" y="1030" type="line"/>
      <point x="414" y="0" type="line"/>
      <point x="467" y="0" type="line"/>
      <point x="586" y="561" type="line" smooth="yes"/>
      <point x="639" y="815"/>
      <point x="846" y="1051"/>
      <point x="1073" y="1051" type="curve" smooth="yes"/>
      <point x="1219" y="1051"/>
      <point x="1305" y="981"/>
      <point x="1305" y="827" type="curve" smooth="yes"/>
      <point x="1305" y="793"/>
      <point x="1300" y="752"/>
      <point x="1290" y="707" type="curve" smooth="yes"/>
      <point x="1090" y="-238" type="line" smooth="yes"/>
      <point x="1063" y="-365"/>
      <point x="997" y="-440"/>
      <point x="895" y="-440" type="curve" smooth="yes"/>
      <point x="856" y="-440"/>
      <point x="813" y="-434"/>
      <point x="780" y="-418" type="curve"/>
      <point x="780" y="-471" type="line"/>
      <point x="809" y="-483"/>
      <point x="846" y="-492"/>
      <point x="893" y="-492" type="curve" smooth="yes"/>
      <point x="1016" y="-492"/>
      <point x="1106" y="-412"/>
      <point x="1141" y="-246" type="curve" smooth="yes"/>
      <point x="1341" y="700" type="line" smooth="yes"/>
      <point x="1352" y="748"/>
      <point x="1358" y="797"/>
      <point x="1358" y="836" type="curve" smooth="yes"/>
      <point x="1358" y="1010"/>
      <point x="1260" y="1102"/>
      <point x="1081" y="1102" type="curve" smooth="yes"/>
      <point x="862" y="1102"/>
      <point x="702" y="926"/>
      <point x="635" y="797" type="curve"/>
      <point x="631" y="797" type="line"/>
      <point x="688" y="1081" type="line"/>
      <point x="371" y="1081" type="line"/>
      <point x="403" y="1239" type="line" smooth="yes"/>
      <point x="442" y="1430"/>
      <point x="522" y="1516"/>
      <point x="688" y="1516" type="curve" smooth="yes"/>
      <point x="737" y="1516"/>
      <point x="786" y="1507"/>
      <point x="829" y="1489" type="curve"/>
      <point x="846" y="1540" type="line"/>
      <point x="807" y="1554"/>
      <point x="754" y="1567"/>
      <point x="690" y="1567" type="curve" smooth="yes"/>
      <point x="489" y="1567"/>
      <point x="395" y="1448"/>
      <point x="352" y="1247" type="curve" smooth="yes"/>
      <point x="317" y="1081" type="line"/>
      <point x="123" y="1075" type="line"/>
      <point x="115" y="1030" type="line"/>
      <point x="305" y="1030" type="line"/>
      <point x="37" y="-238" type="line" smooth="yes"/>
      <point x="8" y="-369"/>
      <point x="-51" y="-440"/>
      <point x="-145" y="-440" type="curve" smooth="yes"/>
      <point x="-182" y="-440"/>
      <point x="-231" y="-432"/>
      <point x="-270" y="-418" type="curve"/>
      <point x="-270" y="-471" type="line"/>
      <point x="-244" y="-481"/>
      <point x="-182" y="-492"/>
    </contour>
  </outline>
</glyph>
<glyph name="uni02AB" format="2">
  <advance width="1030"/>
  <unicode hex="02AB"/>
  <anchor x="401" y="0" name="bottom"/>
  <anchor x="731" y="1556" name="top"/>
  <outline>
    <contour>
      <point x="66" y="0" type="line"/>
      <point x="825" y="0" type="line"/>
      <point x="836" y="51" type="line"/>
      <point x="195" y="51" type="line"/>
      <point x="1024" y="1051" type="line"/>
      <point x="1030" y="1081" type="line"/>
      <point x="348" y="1081" type="line"/>
      <point x="449" y="1556" type="line"/>
      <point x="395" y="1556" type="line"/>
    </contour>
    <contour>
      <point x="131" y="53" type="line"/>
      <point x="338" y="1030" type="line"/>
      <point x="938" y="1030" type="line"/>
    </contour>
  </outline>
</glyph>
<glyph name="uni02AC" format="2">
  <advance width="879"/>
  <unicode hex="02AC"/>
  <anchor x="326" y="0" name="bottom"/>
  <anchor x="635" y="1460" name="top"/>
  <outline>
    <contour>
      <point x="238" y="770" type="line"/>
      <point x="301" y="770" type="line"/>
      <point x="616" y="1374" type="line"/>
      <point x="662" y="770" type="line"/>
      <point x="725" y="770" type="line"/>
      <point x="1030" y="1460" type="line"/>
      <point x="977" y="1460" type="line"/>
      <point x="705" y="838" type="line"/>
      <point x="657" y="1460" type="line"/>
      <point x="612" y="1460" type="line"/>
      <point x="285" y="838" type="line"/>
      <point x="281" y="1460" type="line"/>
      <point x="227" y="1460" type="line"/>
    </contour>
    <contour>
      <point x="76" y="0" type="line"/>
      <point x="139" y="0" type="line"/>
      <point x="455" y="604" type="line"/>
      <point x="500" y="0" type="line"/>
      <point x="563" y="0" type="line"/>
      <point x="868" y="690" type="line"/>
      <point x="815" y="690" type="line"/>
      <point x="543" y="68" type="line"/>
      <point x="496" y="690" type="line"/>
      <point x="451" y="690" type="line"/>
      <point x="123" y="68" type="line"/>
      <point x="119" y="690" type="line"/>
      <point x="66" y="690" type="line"/>
    </contour>
  </outline>
</glyph>
<glyph name="uni02AE" format="2">
  <advance width="1133"/>
  <unicode hex="02AE"/>
  <anchor x="352" y="-475" name="bottom"/>
  <anchor x="682" y="1081" name="top"/>
  <outline>
    <contour>
      <point x="696" y="-475" type="line"/>
      <point x="750" y="-475" type="line"/>
      <point x="1079" y="1081" type="line"/>
      <point x="1026" y="1081" type="line"/>
      <point x="907" y="520" type="line" smooth="yes"/>
      <point x="854" y="266"/>
      <point x="647" y="31"/>
      <point x="420" y="31" type="curve" smooth="yes"/>
      <point x="274" y="31"/>
      <point x="188" y="100"/>
      <point x="188" y="254" type="curve" smooth="yes"/>
      <point x="188" y="289"/>
      <point x="193" y="330"/>
      <point x="203" y="375" type="curve" smooth="yes"/>
      <point x="313" y="901" type="line" smooth="yes"/>
      <point x="319" y="930"/>
      <point x="328" y="973"/>
      <point x="328" y="991" type="curve" smooth="yes"/>
      <point x="328" y="1055"/>
      <point x="291" y="1098"/>
      <point x="217" y="1098" type="curve" smooth="yes"/>
      <point x="176" y="1098"/>
      <point x="147" y="1087"/>
      <point x="127" y="1077" type="curve"/>
      <point x="127" y="1026" type="line"/>
      <point x="147" y="1036"/>
      <point x="178" y="1047"/>
      <point x="217" y="1047" type="curve" smooth="yes"/>
      <point x="256" y="1047"/>
      <point x="274" y="1020"/>
      <point x="274" y="989" type="curve" smooth="yes"/>
      <point x="274" y="965"/>
      <point x="268" y="936"/>
      <point x="262" y="907" type="curve" smooth="yes"/>
      <point x="152" y="381" type="line" smooth="yes"/>
      <point x="141" y="334"/>
      <point x="135" y="285"/>
      <point x="135" y="246" type="curve" smooth="yes"/>
      <point x="135" y="72"/>
      <point x="233" y="-20"/>
      <point x="412" y="-20" type="curve" smooth="yes"/>
      <point x="631" y="-20"/>
      <point x="788" y="154"/>
      <point x="860" y="285" type="curve"/>
      <point x="864" y="285" type="line"/>
      <point x="838" y="178"/>
      <point x="809" y="55"/>
      <point x="784" y="-59" type="curve" smooth="yes"/>
    </contour>
  </outline>
</glyph>
<glyph name="uni02C1" format="2">
  <advance width="532"/>
  <unicode hex="02C1"/>
  <outline>
    <contour>
      <point x="371" y="954" type="line"/>
      <point x="422" y="954" type="line"/>
      <point x="455" y="1110" type="line"/>
      <point x="322" y="1135"/>
      <point x="258" y="1190"/>
      <point x="258" y="1303" type="curve" smooth="yes"/>
      <point x="258" y="1427"/>
      <point x="340" y="1509"/>
      <point x="494" y="1509" type="curve" smooth="yes"/>
      <point x="569" y="1509"/>
      <point x="639" y="1483"/>
      <point x="682" y="1448" type="curve"/>
      <point x="715" y="1493" type="line"/>
      <point x="672" y="1530"/>
      <point x="592" y="1561"/>
      <point x="502" y="1561" type="curve" smooth="yes"/>
      <point x="317" y="1561"/>
      <point x="203" y="1456"/>
      <point x="203" y="1300" type="curve" smooth="yes"/>
      <point x="203" y="1174"/>
      <point x="270" y="1104"/>
      <point x="397" y="1075" type="curve"/>
    </contour>
  </outline>
</glyph>
<glyph name="uni02C8" format="2">
  <advance width="213"/>
  <unicode hex="02C8"/>
  <outline>
    <contour>
      <point x="182" y="1016" type="line"/>
      <point x="231" y="1016" type="line"/>
      <point x="346" y="1556" type="line"/>
      <point x="297" y="1556" type="line"/>
    </contour>
  </outline>
</glyph>
<glyph name="macron" format="2">
  <advance width="662"/>
  <unicode hex="02C9"/>
  <outline>
    <contour>
      <point x="236" y="1257" type="line"/>
      <point x="731" y="1257" type="line"/>
      <point x="741" y="1309" type="line"/>
      <point x="246" y="1309" type="line"/>
    </contour>
  </outline>
</glyph>
<glyph name="uni02D0" format="2">
  <advance width="688"/>
  <unicode hex="02D0"/>
  <outline>
    <contour>
      <point x="410" y="813" type="line"/>
      <point x="653" y="1098" type="line"/>
      <point x="291" y="1098" type="line"/>
    </contour>
    <contour>
      <point x="57" y="0" type="line"/>
      <point x="420" y="0" type="line"/>
      <point x="299" y="285" type="line"/>
    </contour>
  </outline>
</glyph>
<glyph name="hungarumlaut" format="2">
  <advance width="776"/>
  <unicode hex="02DD"/>
  <outline>
    <contour>
      <point x="561" y="1241" type="line"/>
      <point x="606" y="1241" type="line"/>
      <point x="715" y="1331"/>
      <point x="838" y="1462"/>
      <point x="909" y="1554" type="curve"/>
      <point x="909" y="1569" type="line"/>
      <point x="848" y="1569" type="line"/>
      <point x="788" y="1481"/>
      <point x="653" y="1335"/>
      <point x="561" y="1253" type="curve"/>
    </contour>
    <contour>
      <point x="233" y="1241" type="line"/>
      <point x="279" y="1241" type="line"/>
      <point x="387" y="1331"/>
      <point x="510" y="1462"/>
      <point x="582" y="1554" type="curve"/>
      <point x="582" y="1569" type="line"/>
      <point x="520" y="1569" type="line"/>
      <point x="461" y="1481"/>
      <point x="326" y="1335"/>
      <point x="233" y="1253" type="curve"/>
    </contour>
  </outline>
</glyph>
